{
.formatVersion = 3;
DisplayStrings = (
"Îˆ",
"űu",
"/.notdef"
);
classes = (
{
code = "A.alt B.7 D.7 E.7 F.7 H.alt K.alt M.7 N.alt P.7 R.7.001 S.2 T.7 U.alt";
name = capsinit;
},
{
code = "A B D E F H K M N P R S T U";
name = decapsinit;
},
{
code = "a.7 b.44 e.8 g.77 h.44 i.7 j.7 k.7 m.7 n.7 o.77 q.2 r.7 s.7 t.7 u.005.7 v.7.001 x.002332 z.7 ampersand.77 exclam.7";
name = rulote;
},
{
code = "a b e g h i j k m n o q r s t u v x z ampersand exclam";
name = derulote;
},
{
code = "a.5 d.5 l.5 m.5 n.5 s.4 u.5 z.baja";
name = bajan;
},
{
code = "a d l m n s u z";
name = debajan;
},
{
code = "a.7.b b.4.acc e.8.acc g.77.acc h.44.acc i.7.acc j.7.acc k.7.acc m.7.acc n.7.acc o.77.acc s.7.acc t.7.acc u.005.acc v.7.acc w.7 z.7.acc";
name = rulotefat;
},
{
code = "a b e g h i j k m n o s t u v w z";
name = derulotefat;
},
{
code = "a.4 c.4 d.4 e.4 f.7 h.4 j.4 l.4 m.4 n.4 p.4 r.4 u.4 v.4 y.44 z.4";
name = encierran;
},
{
code = "a c d e f h j l m n p r u v y z";
name = deencierran;
},
{
code = "b.6 d.6 h.6 k.6 l.6 u.005 y.4";
name = encierranup;
},
{
code = "b d h k l u y";
name = deencierranup;
},
{
code = "a.7.more d.6.more g.7 h.6.more l.6.more m.7.more n.7.more o.7.001 p.4.more r.4.more t.7.more v.7.more y.1.7.more quotesingle.alt";
name = more;
},
{
code = "a d g h l m n o p r t v y quotesingle";
name = demore;
},
{
code = "a.8 g.7777 h.44 k.44 o.7 t.7.4 u.4.2 x.7 y.7";
name = otrorulote;
},
{
code = "a g h k o t u x y";
name = deotrorulote;
},
{
code = "a.9 d.9 e.999 h.9 i.9 k.9 l.9 m.9 n.9 r.sube t.9 u.9 v.sube w.sube y.1.sube";
name = gota;
},
{
code = "a d e h i k l m n r t u v w y";
name = degota;
},
{
code = "a.7.more.acc d.6.more.acc h.6.more.acc l.6.more.acc m.7.more.acc n.7.more.acc o.7.acc p.4.more.acc t.7.more.acc y.1.7.more.acc";
name = morefat;
},
{
code = "a d h l m n o p t y";
name = demorefat;
},
{
code = "a.8.acc g.777 k.44.acc r.4.4 y.4.acc b.new h.new l.new";
name = extra1;
},
{
code = "a g k r y b h l";
name = deextra1;
},
{
code = "e.55 i.1 o.2 y.2";

glyphs = (
{
color = (255, 153, 153, 255);
glyphname = a;
layers = (
{
anchors = (
{
name = top;
position = "{270, 577}";
},
{
name = bottom;
position = "{271, -77}";
}
);
guides = (
{
position = "{0, -77}";
},
{
angle = 90;
position = "{319, 0}";
}
);
hints = (
{
horizontal = 1;
place = (-6,43);
type = Stem;
},
{
horizontal = 1;
place = (250,217);
type = Stem;
},
{
place = (-64,192);
type = Stem;
},
{
place = (-31,208);
type = Stem;
},
{
place = (252,195);
type = Stem;
},
{
place = (252,248);
type = Stem;
}
);
layerId = "A410FBA5-8D09-49B2-9E86-D368B18AE5F7";
shapes = (
{
closed = 1;
nodes = (
(85,291,o),
(72,326,o),
(72,351,cs),
(72,377,o),
(89,410,o),
(119,434,c),
(98,405,o),
(94,372,o),
(94,353,cs),
(94,326,o),
(100,300,o),
(135,291,c),
(130,291,o),
(130,291,o),
(122,291,c)
);
},
{
closed = 1;
nodes = (
(391,18,o),
(344,32,o),
(344,136,cs),
(344,382,ls),
(344,415,o),
(332,449,o),
(319,468,c),
(350,463,o),
(364,422,o),
(364,382,cs),
(364,134,ls),
(364,36,o),
(403,18,o),
(443,18,c),
(443,18,o),
(436,18,o),
(436,18,c)
);
},
{
closed = 1;
nodes = (
(135,18,o),
(43,19,o),
(43,97,cs),
(43,141,o),
(78,173,o),
(136,201,c),
(131,196,l),
(88,168,o),
(65,134,o),
(65,97,cs),
(65,31,o),
(125,18,o),
(149,18,c),
(142,18,o),
(142,18,o),
(135,18,c)
);
},
{
closed = 1;
nodes = (
(319,301,l),
(209,236,o),
(18,221,o),
(18,96,cs),
(18,35,o),
(72,-9,o),
(148,-9,cs),
(242,-9,o),
(292,51,o),
(314,149,c),
(314,137,l),
(317,37,o),
(358,-9,o),
(439,-9,cs),
(482,-9,o),
(528,5,o),
(546,43,c),
(542,49,l),
(537,38,o),
(532,34,o),
(526,34,cs),
(513,34,o),
(509,52,o),
(509,110,cs),
(509,268,ls),
(509,399,o),
(468,500,o),
(283,500,cs),
(118,500,o),
(50,418,o),
(50,351,cs),
(50,299,o),
(78,266,o),
(126,266,cs),
(180,266,o),
(206,310,o),
(206,353,cs),
(206,388,o),
(190,422,o),
(157,437,c),
(168,464,o),
(203,489,o),
(242,489,cs),
(301,489,o),
(319,433,o),
(319,385,cs)
);
},
{
closed = 1;
nodes = (
(319,280,ls),
(319,140,o),
(281,49,o),
(240,49,cs),
(211,49,o),
(201,84,o),
(201,120,cs),
(201,200,o),
(260,257,o),
(319,290,c)
);
}
);
width = 560;
}
);
leftKerningGroup = _kern1;
rightKerningGroup = _kern1;
unicode = 97;
},
{
color = (153, 255, 154, 255);
glyphname = a.5;
layers = (
{
layerId = "A410FBA5-8D09-49B2-9E86-D368B18AE5F7";
shapes = (
{
closed = 1;
nodes = (
(326,163,l),
(326,129,ls),
(326,-52,o),
(369,-239,o),
(683,-239,cs),
(771,-239,o),
(866,-208,o),
(895,-139,c),
(890,-134,l),
(867,-192,o),
(791,-222,o),
(726,-222,cs),
(618,-222,o),
(510,-145,o),
(510,31,cs),
(510,268,ls),
(510,403,o),
(470,500,o),
(284,500,cs),
(127,500,o),
(56,418,o),
(56,351,cs),
(56,299,o),
(84,266,o),
(132,266,cs),
(186,266,o),
(212,310,o),
(212,353,cs),
(212,388,o),
(196,422,o),
(163,437,c),
(174,464,o),
(208,489,o),
(250,489,cs),
(306,489,o),
(325,433,o),
(325,385,cs),
(325,301,l),
(214,236,o),
(21,221,o),
(21,96,cs),
(21,19,o),
(92,-7,o),
(146,-7,cs),
(250,-7,o),
(302,57,o),
(323,163,c)
);
},
{
closed = 1;
nodes = (
(325,275,ls),
(325,135,o),
(283,49,o),
(238,49,cs),
(209,49,o),
(199,84,o),
(199,120,cs),
(199,200,o),
(262,257,o),
(325,290,c)
);
},
{
closed = 1;
nodes = (
(144,18,o),
(42,18,o),
(42,95,cs),
(42,140,o),
(82,173,o),
(145,201,c),
(140,196,l),
(92,168,o),
(64,133,o),
(64,95,cs),
(64,30,o),
(132,18,o),
(158,18,c),
(151,18,o),
(151,18,o),
(144,18,c)
);
},
{
closed = 1;
nodes = (
(562,-205,l),
(444,-177,o),
(350,-99,o),
(350,108,cs),
(350,382,ls),
(350,415,o),
(338,449,o),
(325,468,c),
(356,463,o),
(370,422,o),
(370,382,cs),
(370,106,ls),
(370,-87,o),
(452,-170,o),
(562,-202,c)
);
},
{
closed = 1;
nodes = (
(91,291,o),
(78,324,o),
(78,347,cs),
(78,374,o),
(95,409,o),
(125,434,c),
(111,415,o),
(99,382,o),
(99,352,cs),
(99,324,o),
(110,298,o),
(141,291,c),
(136,291,o),
(136,291,o),
(128,291,c)
);
}
);
width = 566;
}
);
leftKerningGroup = _kern1;
rightKerningGroup = _kern1;
},
{
color = (153, 255, 154, 255);
glyphname = a.7;
layers = (
{
guides = (
{
angle = 90;
position = "{1016, 0}";
}
);
layerId = "A410FBA5-8D09-49B2-9E86-D368B18AE5F7";
shapes = (
{
closed = 1;
nodes = (
(212,388,o),
(196,422,o),
(163,437,c),
(174,464,o),
(208,489,o),
(250,489,cs),
(306,489,o),
(325,433,o),
(325,385,cs),
(325,301,l),
(215,237,o),
(22,221,o),
(21,100,c),
(-300,-255,o),
(-640,-616,o),
(-1107,-616,cs),
(-1583,-616,o),
(-1970,-229,o),
(-1970,247,cs),
(-1970,723,o),
(-1583,1110,o),
(-1107,1110,cs),
(-896,1110,o),
(-702,1034,o),
(-552,907,c),
(-547,911,l),
(-698,1039,o),
(-894,1116,o),
(-1107,1116,cs),
(-1587,1116,o),
(-1976,727,o),
(-1976,247,cs),
(-1976,-233,o),
(-1587,-622,o),
(-1107,-622,cs),
(-640,-622,o),
(-300,-265,o),
(21,90,c),
(26,24,o),
(83,-7,o),
(146,-7,cs),
(250,-7,o),
(302,57,o),
(323,163,c),
(328,163,l),
(327,151,l),
(327,-213,o),
(632,-386,o),
(1016,-386,cs),
(1341,-386,o),
(1604,-124,o),
(1604,201,cs),
(1604,526,o),
(1341,789,o),
(1016,789,cs),
(783,789,o),
(581,663,o),
(389,486,c),
(360,495,o),
(325,500,o),
(284,500,cs),
(127,500,o),
(56,418,o),
(56,351,cs),
(56,299,o),
(84,266,o),
(132,266,cs),
(186,266,o),
(212,310,o),
(212,353,cs)
);
},
{
closed = 1;
nodes = (
(589,658,o),
(787,783,o),
(1016,783,cs),
(1337,783,o),
(1598,522,o),
(1598,201,cs),
(1598,-120,o),
(1337,-380,o),
(1016,-380,cs),
(744,-380,o),
(510,-273,o),
(510,134,cs),
(510,268,ls),
(510,384,o),
(478,453,o),
(398,483,c)
);
},
{
closed = 1;
nodes = (
(370,131,ls),
(370,-33,o),
(456,-213,o),
(683,-316,c),
(611,-299,o),
(350,-166,o),
(350,142,cs),
(350,344,ls),
(350,396,o),
(350,447,o),
(323,467,c),
(369,459,o),
(370,396,o),
(370,344,cs)
);
},
{
closed = 1;
nodes = (
(91,291,o),
(78,324,o),
(78,347,cs),
(78,374,o),
(95,409,o),
(125,434,c),
(111,415,o),
(99,382,o),
(99,352,cs),
(99,324,o),
(110,298,o),
(141,291,c),
(136,291,o),
(136,291,o),
(128,291,cs)
);
},
{
closed = 1;
nodes = (
(325,275,ls),
(325,135,o),
(283,49,o),
(238,49,cs),
(209,49,o),
(199,84,o),
(199,120,cs),
(199,200,o),
(262,257,o),
(325,290,c)
);
},
{
closed = 1;
nodes = (
(141,18,o),
(45,18,o),
(45,99,cs),
(45,142,o),
(83,174,o),
(142,201,c),
(137,196,l),
(93,169,o),
(67,135,o),
(67,99,cs),
(67,31,o),
(131,18,o),
(155,18,c),
(148,18,o),
(148,18,o),
(141,18,c)
);
}
);
width = 564;
}
);
leftKerningGroup = _kern1;
rightKerningGroup = _kern1;
},
{
color = (153, 255, 154, 255);
glyphname = a.7.b;
layers = (
{
anchors = (
{
name = top;
position = "{285, 577}";
}
);
guides = (
{
position = "{0, -536}";
}
);
layerId = "A410FBA5-8D09-49B2-9E86-D368B18AE5F7";
shapes = (
{
closed = 1;
nodes = (
(-288,-209,o),
(-638,-509,o),
(-1103,-509,cs),
(-1554,-509,o),
(-1966,-214,o),
(-1966,264,cs),
(-1966,717,o),
(-1583,1110,o),
(-1106,1110,cs),
(-891,1110,o),
(-697,1030,o),
(-552,907,c),
(-547,911,l),
(-698,1039,o),
(-893,1116,o),
(-1108,1116,cs),
(-1587,1116,o),
(-1976,738,o),
(-1976,237,cs),
(-1976,-264,o),
(-1587,-702,o),
(-1119,-702,cs),
(-642,-702,o),
(-276,-259,o),
(21,91,c),
(25,25,o),
(80,-7,o),
(146,-7,cs),
(250,-7,o),
(302,57,o),
(323,163,c),
(328,163,l),
(327,151,l),
(327,-219,o),
(628,-396,o),
(1006,-396,cs),
(1337,-396,o),
(1608,-132,o),
(1608,216,cs),
(1608,565,o),
(1341,820,o),
(1016,820,cs),
(783,820,o),
(581,683,o),
(389,486,c),
(360,495,o),
(325,500,o),
(284,500,cs),
(127,500,o),
(56,418,o),
(56,351,cs),
(56,299,o),
(84,266,o),
(132,266,cs),
(186,266,o),
(212,310,o),
(212,353,cs),
(212,388,o),
(196,422,o),
(163,437,c),
(174,464,o),
(208,489,o),
(250,489,cs),
(306,489,o),
(325,433,o),
(325,385,cs),
(325,301,l),
(216,237,o),
(25,221,o),
(21,102,c)
);
},
{
closed = 1;
nodes = (
(1306,712,l),
(1219,754,o),
(1118,780,o),
(1014,780,cs),
(943,780,o),
(861,764,o),
(796,746,c),
(817,756,l),
(876,773,o),
(952,789,o),
(1015,789,cs),
(1113,789,o),
(1205,767,o),
(1286,726,c)
);
},
{
closed = 1;
nodes = (
(588,655,o),
(787,760,o),
(1016,760,cs),
(1337,760,o),
(1598,522,o),
(1598,201,cs),
(1598,-120,o),
(1348,-380,o),
(1016,-380,cs),
(744,-380,o),
(510,-273,o),
(510,134,cs),
(510,268,ls),
(510,383,o),
(478,453,o),
(398,483,c)
);
},
{
closed = 1;
nodes = (
(370,131,ls),
(370,-33,o),
(452,-215,o),
(679,-318,c),
(592,-295,o),
(350,-166,o),
(350,142,cs),
(350,344,ls),
(350,396,o),
(350,447,o),
(323,467,c),
(369,459,o),
(370,396,o),
(370,344,cs)
);
},
{
closed = 1;
nodes = (
(91,291,o),
(78,324,o),
(78,347,cs),
(78,374,o),
(95,409,o),
(125,434,c),
(111,415,o),
(99,382,o),
(99,352,cs),
(99,324,o),
(110,298,o),
(141,291,c),
(136,291,o),
(136,291,o),
(128,291,cs)
);
},
{
closed = 1;
nodes = (
(325,275,ls),
(325,135,o),
(283,49,o),
(238,49,cs),
(209,49,o),
(199,84,o),
(199,120,cs),
(199,200,o),
(262,257,o),
(325,290,c)
);
},
{
closed = 1;
nodes = (
(141,18,o),
(46,18,o),
(46,97,cs),
(46,141,o),
(84,174,o),
(142,201,c),
(137,196,l),
(94,169,o),
(68,134,o),
(68,97,cs),
(68,30,o),
(131,18,o),
(155,18,c),
(148,18,o),
(148,18,o),
(141,18,c)
);
},
{
closed = 1;
nodes = (
(-417,-314,l),
(-619,-455,o),
(-842,-560,o),
(-1103,-560,cs),
(-1352,-560,o),
(-1575,-462,o),
(-1732,-313,c),
(-1730,-311,l),
(-1575,-447,o),
(-1352,-538,o),
(-1103,-538,cs),
(-842,-538,o),
(-619,-441,o),
(-419,-312,c)
);
}
);
width = 564;
}
);
leftKerningGroup = _kern1;
rightKerningGroup = _kern1;
},
{
color = (153, 255, 154, 255);
glyphname = a.7.more;
layers = (
{
layerId = "A410FBA5-8D09-49B2-9E86-D368B18AE5F7";
shapes = (
{
closed = 1;
nodes = (
(325,301,l),
(217,238,o),
(28,212,o),
(21,100,c),
(-300,-256,o),
(-640,-616,o),
(-1107,-616,cs),
(-1583,-616,o),
(-1970,-229,o),
(-1970,247,cs),
(-1970,723,o),
(-1583,1110,o),
(-1107,1110,cs),
(-685,1110,o),
(-414,868,o),
(-32,868,cs),
(139,868,o),
(293,933,o),
(396,1046,c),
(388,1048,l),
(286,938,o),
(136,874,o),
(-32,874,cs),
(-411,874,o),
(-677,1116,o),
(-1107,1116,cs),
(-1587,1116,o),
(-1976,727,o),
(-1976,247,cs),
(-1976,-233,o),
(-1587,-622,o),
(-1107,-622,cs),
(-640,-622,o),
(-300,-264,o),
(21,90,c),
(24,23,o),
(91,-7,o),
(146,-7,cs),
(250,-7,o),
(302,57,o),
(323,163,c),
(328,163,l),
(327,151,l),
(327,-213,o),
(632,-386,o),
(1016,-386,cs),
(1341,-386,o),
(1604,-124,o),
(1604,201,cs),
(1604,526,o),
(1341,789,o),
(1016,789,cs),
(783,789,o),
(581,663,o),
(389,486,c),
(360,495,o),
(325,500,o),
(284,500,cs),
(127,500,o),
(56,418,o),
(56,351,cs),
(56,299,o),
(84,266,o),
(132,266,cs),
(186,266,o),
(212,310,o),
(212,353,cs),
(212,388,o),
(196,422,o),
(163,437,c),
(174,464,o),
(208,489,o),
(250,489,cs),
(306,489,o),
(325,433,o),
(325,385,cs)
);
},
{
closed = 1;
nodes = (
(589,658,o),
(787,783,o),
(1016,783,cs),
(1337,783,o),
(1598,522,o),
(1598,201,cs),
(1598,-120,o),
(1337,-380,o),
(1016,-380,cs),
(744,-380,o),
(510,-273,o),
(510,134,cs),
(510,268,ls),
(510,384,o),
(478,453,o),
(398,483,c)
);
},
{
closed = 1;
nodes = (
(370,131,ls),
(370,-33,o),
(452,-215,o),
(679,-318,c),
(592,-295,o),
(350,-166,o),
(350,142,cs),
(350,344,ls),
(350,396,o),
(350,447,o),
(323,467,c),
(369,459,o),
(370,396,o),
(370,344,cs)
);
},
{
closed = 1;
nodes = (
(91,291,o),
(78,324,o),
(78,347,cs),
(78,374,o),
(95,409,o),
(125,434,c),
(111,415,o),
(99,382,o),
(99,352,cs),
(99,324,o),
(110,298,o),
(141,291,c),
(136,291,o),
(136,291,o),
(128,291,cs)
);
},
{
closed = 1;
nodes = (
(325,275,ls),
(325,135,o),
(283,49,o),
(238,49,cs),
(209,49,o),
(199,84,o),
(199,120,cs),
(199,200,o),
(262,257,o),
(325,290,c)
);
},
{
closed = 1;
nodes = (
(141,18,o),
(46,18,o),
(46,97,cs),
(46,141,o),
(84,174,o),
(142,201,c),
(137,196,l),
(94,169,o),
(68,134,o),
(68,97,cs),
(68,30,o),
(131,18,o),
(155,18,c),
(148,18,o),
(148,18,o),
(141,18,c)
);
}
);
width = 564;
}
);
leftKerningGroup = _kern1;
rightKerningGroup = _kern1;
},
{
color = (153, 255, 154, 255);
glyphname = a.7.more.acc;
layers = (
{
layerId = "A410FBA5-8D09-49B2-9E86-D368B18AE5F7";
shapes = (
{
closed = 1;
nodes = (
(325,301,l),
(294,283,o),
(261,270,o),
(228,258,cs),
(156,232,o),
(25,196,o),
(20,101,c),
(-301,-220,o),
(-641,-544,o),
(-1107,-544,cs),
(-1583,-544,o),
(-1970,-189,o),
(-1970,247,cs),
(-1970,723,o),
(-1583,1110,o),
(-1107,1110,cs),
(-685,1110,o),
(-414,868,o),
(-32,868,cs),
(139,868,o),
(293,933,o),
(396,1046,c),
(388,1048,l),
(286,938,o),
(136,874,o),
(-32,874,cs),
(-411,874,o),
(-677,1116,o),
(-1107,1116,cs),
(-1587,1116,o),
(-1976,727,o),
(-1976,247,cs),
(-1976,-262,o),
(-1587,-674,o),
(-1107,-674,cs),
(-640,-674,o),
(-301,-292,o),
(20,86,c),
(25,23,o),
(86,-7,o),
(146,-7,cs),
(250,-7,o),
(302,57,o),
(323,163,c),
(328,163,l),
(327,151,l),
(327,-213,o),
(632,-386,o),
(1016,-386,cs),
(1341,-386,o),
(1604,-124,o),
(1604,201,cs),
(1604,539,o),
(1341,823,o),
(1016,823,cs),
(782,823,o),
(581,679,o),
(388,487,c),
(359,496,o),
(324,500,o),
(284,500,cs),
(127,500,o),
(56,418,o),
(56,351,cs),
(56,299,o),
(84,266,o),
(132,266,cs),
(186,266,o),
(212,310,o),
(212,353,cs),
(212,388,o),
(196,422,o),
(163,437,c),
(174,464,o),
(208,489,o),
(250,489,cs),
(306,489,o),
(325,433,o),
(325,385,cs)
);
},
{
closed = 1;
nodes = (
(1300,729,l),
(1213,771,o),
(1112,797,o),
(1008,797,cs),
(937,797,o),
(855,781,o),
(790,763,c),
(811,773,l),
(870,790,o),
(946,806,o),
(1009,806,cs),
(1107,806,o),
(1199,784,o),
(1280,743,c)
);
},
{
closed = 1;
nodes = (
(589,658,o),
(787,783,o),
(1016,783,cs),
(1337,783,o),
(1598,522,o),
(1598,201,cs),
(1598,-120,o),
(1337,-380,o),
(1016,-380,cs),
(744,-380,o),
(510,-273,o),
(510,134,cs),
(510,268,ls),
(510,387,o),
(475,454,o),
(398,483,c)
);
},
{
closed = 1;
nodes = (
(370,131,ls),
(370,-33,o),
(452,-215,o),
(679,-318,c),
(592,-295,o),
(350,-166,o),
(350,142,cs),
(350,344,ls),
(350,396,o),
(350,447,o),
(323,467,c),
(369,459,o),
(370,396,o),
(370,344,cs)
);
},
{
closed = 1;
nodes = (
(91,291,o),
(78,324,o),
(78,349,cs),
(78,374,o),
(95,409,o),
(125,434,c),
(98,397,o),
(100,369,o),
(100,349,cs),
(100,324,o),
(106,299,o),
(141,291,c),
(136,291,o),
(136,291,o),
(128,291,cs)
);
},
{
closed = 1;
nodes = (
(325,275,ls),
(325,135,o),
(283,49,o),
(238,49,cs),
(209,49,o),
(199,84,o),
(199,120,cs),
(199,200,o),
(262,257,o),
(325,290,c)
);
},
{
closed = 1;
nodes = (
(141,18,o),
(46,18,o),
(46,97,cs),
(46,141,o),
(84,174,o),
(142,201,c),
(137,196,l),
(94,169,o),
(68,134,o),
(68,97,cs),
(68,30,o),
(131,18,o),
(155,18,c),
(148,18,o),
(148,18,o),
(141,18,c)
);
},
{
closed = 1;
nodes = (
(-421,-336,l),
(-623,-488,o),
(-846,-596,o),
(-1107,-596,cs),
(-1356,-596,o),
(-1579,-495,o),
(-1736,-335,c),
(-1734,-333,l),
(-1579,-480,o),
(-1356,-574,o),
(-1107,-574,cs),
(-846,-574,o),
(-623,-474,o),
(-423,-334,c)
);
}
);
width = 564;
}
);
leftKerningGroup = _kern1;
rightKerningGroup = _kern1;
},
{
color = (153, 255, 154, 255);
glyphname = a.4;
layers = (
{
layerId = "A410FBA5-8D09-49B2-9E86-D368B18AE5F7";
shapes = (
{
closed = 1;
nodes = (
(325,301,l),
(212,236,o),
(16,221,o),
(16,96,cs),
(16,19,o),
(90,-9,o),
(146,-9,cs),
(250,-9,o),
(302,57,o),
(323,163,c),
(325,156,l),
(337,-199,o),
(650,-413,o),
(1024,-413,cs),
(1367,-413,o),
(1644,-136,o),
(1644,207,cs),
(1644,544,o),
(1371,817,o),
(1034,817,cs),
(876,817,o),
(732,757,o),
(624,659,c),
(630,655,l),
(737,752,o),
(879,811,o),
(1034,811,cs),
(1367,811,o),
(1638,540,o),
(1638,207,cs),
(1638,-126,o),
(1367,-397,o),
(1034,-397,cs),
(763,-397,o),
(515,-231,o),
(515,138,cs),
(515,268,ls),
(515,403,o),
(474,500,o),
(284,500,cs),
(127,500,o),
(56,418,o),
(56,351,cs),
(56,299,o),
(84,266,o),
(132,266,cs),
(186,266,o),
(212,310,o),
(212,353,cs),
(212,388,o),
(196,422,o),
(163,437,c),
(174,464,o),
(208,489,o),
(250,489,cs),
(306,489,o),
(325,433,o),
(325,385,cs)
);
},
{
closed = 1;
nodes = (
(325,275,ls),
(325,135,o),
(283,49,o),
(238,49,cs),
(209,49,o),
(199,84,o),
(199,120,cs),
(199,200,o),
(262,257,o),
(325,290,c)
);
},
{
closed = 1;
nodes = (
(370,157,ls),
(370,-17,o),
(469,-199,o),
(683,-316,c),
(611,-298,o),
(350,-144,o),
(350,168,cs),
(350,344,ls),
(350,396,o),
(350,447,o),
(323,467,c),
(369,459,o),
(370,396,o),
(370,344,cs)
);
},
{
closed = 1;
nodes = (
(91,291,o),
(78,324,o),
(78,349,cs),
(78,374,o),
(95,409,o),
(125,434,c),
(98,397,o),
(100,369,o),
(100,349,cs),
(100,324,o),
(106,299,o),
(141,291,c),
(136,291,o),
(136,291,o),
(128,291,c)
);
},
{
closed = 1;
nodes = (
(141,18,o),
(46,18,o),
(46,97,cs),
(46,141,o),
(84,174,o),
(142,201,c),
(137,196,l),
(94,169,o),
(68,134,o),
(68,97,cs),
(68,30,o),
(131,18,o),
(155,18,c),
(148,18,o),
(148,18,o),
(141,18,c)
);
}
);
width = 569;
}
);
leftKerningGroup = _kern1;
rightKerningGroup = _kern1;
},
{
color = (153, 255, 154, 255);
glyphname = a.8;
layers = (
{
layerId = "A410FBA5-8D09-49B2-9E86-D368B18AE5F7";
shapes = (
{
closed = 1;
nodes = (
(-1011,628,l),
(-1125,722,o),
(-1272,779,o),
(-1431,779,cs),
(-1794,779,o),
(-2087,485,o),
(-2087,119,cs),
(-2087,-242,o),
(-1803,-536,o),
(-1409,-536,cs),
(-1031,-536,o),
(-734,-281,o),
(-467,-24,cs),
(-209,224,o),
(12,489,o),
(233,489,cs),
(307,489,o),
(325,451,o),
(325,385,cs),
(325,301,l),
(212,236,o),
(16,221,o),
(16,96,cs),
(16,19,o),
(90,-9,o),
(146,-9,cs),
(250,-9,o),
(302,57,o),
(323,163,c),
(328,163,l),
(327,151,l),
(327,42,o),
(361,-9,o),
(445,-9,cs),
(488,-9,o),
(534,5,o),
(552,43,c),
(548,49,l),
(543,38,o),
(538,34,o),
(532,34,cs),
(519,34,o),
(515,52,o),
(515,110,cs),
(515,268,ls),
(515,455,o),
(418,503,o),
(260,503,cs),
(25,503,o),
(-208,239,o),
(-478,-22,cs),
(-742,-278,o),
(-1042,-530,o),
(-1405,-530,cs),
(-1802,-530,o),
(-2081,-238,o),
(-2081,118,cs),
(-2081,482,o),
(-1790,773,o),
(-1430,773,cs),
(-1272,773,o),
(-1128,717,o),
(-1015,624,c)
);
},
{
closed = 1;
nodes = (
(325,275,ls),
(325,135,o),
(283,49,o),
(238,49,cs),
(209,49,o),
(199,84,o),
(199,120,cs),
(199,200,o),
(262,257,o),
(325,290,c)
);
},
{
closed = 1;
nodes = (
(181,266,o),
(216,304,o),
(216,351,cs),
(216,398,o),
(181,437,o),
(138,437,cs),
(95,437,o),
(60,398,o),
(60,351,cs),
(60,304,o),
(95,266,o),
(138,266,cs)
);
},
{
closed = 1;
nodes = (
(95,294,o),
(82,327,o),
(82,352,cs),
(82,372,o),
(87,400,o),
(123,418,c),
(92,385,o),
(92,306,o),
(145,294,c),
(140,294,o),
(140,294,o),
(132,294,c)
);
},
{
closed = 1;
nodes = (
(141,18,o),
(46,18,o),
(46,97,cs),
(46,141,o),
(84,174,o),
(142,201,c),
(137,196,l),
(94,169,o),
(68,134,o),
(68,97,cs),
(68,30,o),
(131,18,o),
(155,18,c),
(148,18,o),
(148,18,o),
(141,18,c)
);
},
{
closed = 1;
nodes = (
(397,18,o),
(350,32,o),
(350,136,cs),
(350,382,ls),
(350,415,o),
(338,449,o),
(325,468,c),
(356,463,o),
(370,422,o),
(370,382,cs),
(370,134,ls),
(370,36,o),
(409,18,o),
(449,18,c),
(449,18,o),
(442,18,o),
(442,18,c)
);
}
);
width = 568;
}
);
leftKerningGroup = _kern1;
rightKerningGroup = _kern1;
},
{
color = (153, 255, 154, 255);
glyphname = a.8.acc;
layers = (
{
layerId = "A410FBA5-8D09-49B2-9E86-D368B18AE5F7";
shapes = (
{
closed = 1;
nodes = (
(25,503,o),
(-201,270,o),
(-478,-22,cs),
(-717,-274,o),
(-1042,-471,o),
(-1405,-471,cs),
(-1802,-471,o),
(-2081,-205,o),
(-2081,118,cs),
(-2081,482,o),
(-1790,773,o),
(-1430,773,cs),
(-1272,773,o),
(-1128,717,o),
(-1015,624,c),
(-1011,628,l),
(-1125,722,o),
(-1272,779,o),
(-1431,779,cs),
(-1794,779,o),
(-2087,485,o),
(-2087,119,cs),
(-2087,-273,o),
(-1802,-591,o),
(-1407,-591,cs),
(-1030,-591,o),
(-733,-310,o),
(-467,-24,cs),
(-223,238,o),
(12,489,o),
(233,489,cs),
(307,489,o),
(325,451,o),
(325,385,cs),
(325,301,l),
(212,236,o),
(16,221,o),
(16,96,cs),
(16,19,o),
(90,-9,o),
(146,-9,cs),
(250,-9,o),
(302,57,o),
(323,163,c),
(328,163,l),
(327,151,l),
(327,42,o),
(361,-9,o),
(445,-9,cs),
(488,-9,o),
(534,5,o),
(552,43,c),
(548,49,l),
(543,38,o),
(538,34,o),
(532,34,cs),
(519,34,o),
(515,52,o),
(515,110,cs),
(515,268,ls),
(515,455,o),
(418,503,o),
(260,503,cs)
);
},
{
closed = 1;
nodes = (
(325,275,ls),
(325,135,o),
(283,49,o),
(238,49,cs),
(209,49,o),
(199,84,o),
(199,120,cs),
(199,200,o),
(262,257,o),
(325,290,c)
);
},
{
closed = 1;
nodes = (
(181,266,o),
(216,304,o),
(216,351,cs),
(216,398,o),
(181,437,o),
(138,437,cs),
(95,437,o),
(60,398,o),
(60,351,cs),
(60,304,o),
(95,266,o),
(138,266,cs)
);
},
{
closed = 1;
nodes = (
(95,294,o),
(82,327,o),
(82,352,cs),
(82,372,o),
(87,400,o),
(123,418,c),
(92,385,o),
(92,306,o),
(145,294,c),
(140,294,o),
(140,294,o),
(132,294,c)
);
},
{
closed = 1;
nodes = (
(141,18,o),
(46,18,o),
(46,97,cs),
(46,141,o),
(84,174,o),
(142,201,c),
(137,196,l),
(94,169,o),
(68,134,o),
(68,97,cs),
(68,30,o),
(131,18,o),
(155,18,c),
(148,18,o),
(148,18,o),
(141,18,c)
);
},
{
closed = 1;
nodes = (
(397,18,o),
(350,32,o),
(350,136,cs),
(350,382,ls),
(350,415,o),
(338,449,o),
(325,468,c),
(356,463,o),
(370,422,o),
(370,382,cs),
(370,134,ls),
(370,36,o),
(409,18,o),
(449,18,c),
(449,18,o),
(442,18,o),
(442,18,c)
);
},
{
closed = 1;
nodes = (
(-729,-263,l),
(-928,-415,o),
(-1148,-523,o),
(-1405,-523,cs),
(-1665,-523,o),
(-1866,-400,o),
(-1955,-262,c),
(-1953,-260,l),
(-1866,-385,o),
(-1666,-501,o),
(-1405,-501,cs),
(-1148,-501,o),
(-928,-401,o),
(-731,-261,c)
);
}
);
width = 568;
}
);
leftKerningGroup = _kern1;
rightKerningGroup = _kern1;
},
{
color = (153, 255, 154, 255);
glyphname = a.9;
layers = (
{
layerId = "A410FBA5-8D09-49B2-9E86-D368B18AE5F7";
shapes = (
{
closed = 1;
nodes = (
(325,301,l),
(212,236,o),
(16,221,o),
(16,96,cs),
(16,19,o),
(90,-9,o),
(146,-9,cs),
(249,-9,o),
(301,60,o),
(322,164,c),
(328,-31,o),
(466,-152,o),
(659,-152,cs),
(864,-152,o),
(981,-14,o),
(981,124,cs),
(981,216,o),
(929,301,o),
(839,301,cs),
(774,301,o),
(730,256,o),
(730,203,cs),
(730,152,o),
(771,105,o),
(834,105,cs),
(883,105,o),
(924,134,o),
(940,171,c),
(948,144,o),
(952,120,o),
(952,94,cs),
(952,-31,o),
(858,-121,o),
(731,-121,cs),
(619,-121,o),
(515,-56,o),
(515,160,cs),
(515,268,ls),
(515,399,o),
(474,500,o),
(289,500,cs),
(124,500,o),
(56,418,o),
(56,351,cs),
(56,299,o),
(84,266,o),
(132,266,cs),
(186,266,o),
(212,310,o),
(212,353,cs),
(212,388,o),
(196,422,o),
(163,437,c),
(174,464,o),
(209,489,o),
(248,489,cs),
(307,489,o),
(325,433,o),
(325,385,cs)
);
},
{
closed = 1;
nodes = (
(325,274,ls),
(325,134,o),
(283,49,o),
(238,49,cs),
(209,49,o),
(199,84,o),
(199,120,cs),
(199,200,o),
(262,257,o),
(325,290,c)
);
},
{
closed = 1;
nodes = (
(91,292,o),
(78,325,o),
(78,350,cs),
(78,375,o),
(95,410,o),
(125,435,c),
(98,398,o),
(100,370,o),
(100,350,cs),
(100,325,o),
(106,300,o),
(141,292,c),
(136,292,o),
(136,292,o),
(128,292,c)
);
},
{
closed = 1;
nodes = (
(138,18,o),
(43,18,o),
(43,97,cs),
(43,141,o),
(81,174,o),
(139,201,c),
(134,196,l),
(91,169,o),
(65,134,o),
(65,97,cs),
(65,30,o),
(128,18,o),
(152,18,c),
(145,18,o),
(145,18,o),
(138,18,c)
);
},
{
closed = 1;
nodes = (
(505,-136,o),
(350,-28,o),
(350,169,cs),
(350,382,ls),
(350,415,o),
(338,449,o),
(325,468,c),
(356,463,o),
(370,422,o),
(370,382,cs),
(370,167,ls),
(370,-18,o),
(513,-135,o),
(660,-135,c),
(660,-135,o),
(653,-136,o),
(653,-136,c)
);
},
{
closed = 1;
nodes = (
(777,165,o),
(809,138,o),
(847,129,c),
(839,129,o),
(839,129,o),
(833,129,cs),
(789,129,o),
(755,165,o),
(755,203,cs),
(755,241,o),
(789,277,o),
(833,277,cs),
(839,277,o),
(839,277,o),
(847,277,c),
(809,268,o),
(777,241,o),
(777,203,cs)
);
}
);
width = 1020;
}
);
},
{
color = (255, 153, 153, 255);
glyphname = b;
layers = (
{
hints = (
{
horizontal = 1;
place = (-6,21);
target = up;
type = BottomGhost;
},
{
horizontal = 1;
place = (736,-20);
target = down;
type = TopGhost;
},
{
place = (81,207);
type = Stem;
},
{
place = (407,201);
type = Stem;
}
);
layerId = "A410FBA5-8D09-49B2-9E86-D368B18AE5F7";
shapes = (
{
closed = 1;
nodes = (
(65,-9,ls),
(65,-13,o),
(67,-14,o),
(69,-14,c),
(75,-14,o),
(69,50,o),
(128,50,cs),
(184,50,o),
(206,-8,o),
(327,-8,cs),
(445,-8,o),
(592,56,o),
(592,265,cs),
(592,401,o),
(503,500,o),
(388,500,cs),
(311,500,o),
(274,461,o),
(261,401,cs),
(260,397,o),
(258,395,o),
(258,399,cs),
(258,465,l),
(258,721,l),
(-12,689,l),
(-12,682,l),
(44,682,o),
(65,686,o),
(65,634,cs)
);
},
{
closed = 1;
nodes = (
(282,1,o),
(263,47,o),
(263,111,cs),
(263,345,ls),
(263,406,o),
(285,474,o),
(336,474,cs),
(385,474,o),
(391,420,o),
(391,246,cs),
(391,32,o),
(373,1,o),
(324,1,cs)
);
},
{
closed = 1;
nodes = (
(104,677,l),
(110,662,o),
(110,650,o),
(110,637,c),
(110,74,l),
(90,64,l),
(90,637,l),
(90,650,o),
(88,666,o),
(83,677,c)
);
},
{
closed = 1;
nodes = (
(443,155,o),
(441,83,o),
(404,22,c),
(415,71,o),
(421,147,o),
(421,246,cs),
(421,345,o),
(415,421,o),
(404,470,c),
(441,409,o),
(443,337,o),
(443,246,cs)
);
}
);
width = 616;
}
);
unicode = 98;
},
{
color = (153, 255, 154, 255);
glyphname = b.6;
layers = (
{
layerId = "A410FBA5-8D09-49B2-9E86-D368B18AE5F7";
shapes = (
{
closed = 1;
nodes = (
(318,-192,l),
(452,-314,o),
(632,-389,o),
(829,-389,cs),
(1269,-389,o),
(1623,-29,o),
(1623,421,cs),
(1623,878,o),
(1264,1243,o),
(816,1243,cs),
(347,1243,o),
(55,923,o),
(55,517,cs),
(55,-9,ls),
(55,-13,o),
(57,-14,o),
(59,-14,c),
(65,-14,o),
(59,50,o),
(118,50,cs),
(174,50,o),
(196,-6,o),
(317,-6,c),
(435,-1,o),
(582,56,o),
(582,265,cs),
(582,401,o),
(493,500,o),
(378,500,cs),
(301,500,o),
(264,461,o),
(251,401,cs),
(250,397,o),
(249,394,o),
(245,394,c),
(245,540,l),
(245,617,ls),
(245,978,o),
(490,1233,o),
(819,1233,cs),
(1260,1233,o),
(1617,872,o),
(1617,421,cs),
(1617,-24,o),
(1264,-382,o),
(829,-382,cs),
(636,-382,o),
(458,-308,o),
(324,-187,c)
);
},
{
closed = 1;
nodes = (
(263,4,o),
(253,47,o),
(253,111,cs),
(253,348,ls),
(253,409,o),
(275,477,o),
(326,477,cs),
(375,477,o),
(381,420,o),
(381,246,cs),
(381,32,o),
(354,2,o),
(305,2,c)
);
},
{
closed = 1;
nodes = (
(433,155,o),
(431,83,o),
(394,22,c),
(405,71,o),
(411,147,o),
(411,246,cs),
(411,345,o),
(405,421,o),
(394,470,c),
(431,409,o),
(433,337,o),
(433,246,cs)
);
},
{
closed = 1;
nodes = (
(345,1073,l),
(165,933,o),
(100,701,o),
(100,522,cs),
(100,74,l),
(80,64,l),
(80,522,ls),
(80,734,o),
(159,937,o),
(340,1073,c)
);
}
);
width = 610;
}
);
},
{
color = (153, 255, 154, 255);
glyphname = b.44;
layers = (
{
layerId = "A410FBA5-8D09-49B2-9E86-D368B18AE5F7";
shapes = (
{
closed = 1;
nodes = (
(-2044,453,l),
(-1907,733,o),
(-1620,928,o),
(-1291,928,cs),
(-358,928,o),
(-129,-389,o),
(832,-389,cs),
(1272,-389,o),
(1626,-29,o),
(1626,421,cs),
(1626,878,o),
(1267,1243,o),
(819,1243,cs),
(350,1243,o),
(58,923,o),
(58,517,cs),
(58,-9,ls),
(58,-13,o),
(60,-14,o),
(62,-14,c),
(68,-14,o),
(62,50,o),
(121,50,cs),
(177,50,o),
(199,-6,o),
(320,-6,c),
(438,-1,o),
(585,56,o),
(585,265,cs),
(585,401,o),
(496,500,o),
(381,500,cs),
(304,500,o),
(267,461,o),
(254,401,cs),
(253,397,o),
(248,393,o),
(248,400,cs),
(248,551,l),
(248,617,ls),
(248,978,o),
(493,1233,o),
(822,1233,cs),
(1263,1233,o),
(1620,872,o),
(1620,421,cs),
(1620,-24,o),
(1267,-383,o),
(832,-383,cs),
(-130,-383,o),
(-345,934,o),
(-1291,934,cs),
(-1622,934,o),
(-1912,737,o),
(-2050,455,c)
);
},
{
closed = 1;
nodes = (
(266,4,o),
(256,47,o),
(256,111,cs),
(256,348,ls),
(256,409,o),
(278,477,o),
(329,477,cs),
(378,477,o),
(384,420,o),
(384,246,cs),
(384,32,o),
(357,2,o),
(308,2,c)
);
},
{
closed = 1;
nodes = (
(436,155,o),
(434,83,o),
(397,22,c),
(408,71,o),
(414,147,o),
(414,246,cs),
(414,345,o),
(408,421,o),
(397,470,c),
(434,409,o),
(436,337,o),
(436,246,cs)
);
},
{
closed = 1;
nodes = (
(348,1073,l),
(168,933,o),
(103,701,o),
(103,522,cs),
(103,74,l),
(83,64,l),
(83,522,ls),
(83,734,o),
(162,937,o),
(343,1073,c)
);
}
);
width = 613;
}
);
},
{
color = (153, 255, 154, 255);
glyphname = b.4.acc;
layers = (
{
layerId = "A410FBA5-8D09-49B2-9E86-D368B18AE5F7";
shapes = (
{
closed = 1;
nodes = (
(-2044,453,l),
(-1907,733,o),
(-1620,928,o),
(-1291,928,cs),
(-358,928,o),
(-129,-480,o),
(832,-480,cs),
(1272,-480,o),
(1626,-52,o),
(1626,421,cs),
(1626,878,o),
(1267,1243,o),
(819,1243,cs),
(350,1243,o),
(58,923,o),
(58,517,cs),
(58,-9,ls),
(58,-13,o),
(60,-14,o),
(62,-14,c),
(68,-14,o),
(62,50,o),
(121,50,cs),
(177,50,o),
(199,-6,o),
(320,-6,c),
(438,-1,o),
(585,56,o),
(585,265,cs),
(585,401,o),
(496,500,o),
(381,500,cs),
(304,500,o),
(267,461,o),
(254,401,cs),
(253,396,o),
(251,394,o),
(250,394,c),
(249,394,o),
(248,397,o),
(248,399,c),
(248,617,ls),
(248,978,o),
(493,1233,o),
(822,1233,cs),
(1263,1233,o),
(1620,872,o),
(1620,421,cs),
(1620,23,o),
(1267,-350,o),
(832,-350,cs),
(-275,-350,o),
(-345,934,o),
(-1291,934,cs),
(-1622,934,o),
(-1912,737,o),
(-2050,455,c)
);
},
{
closed = 1;
nodes = (
(266,4,o),
(256,47,o),
(256,111,cs),
(256,348,ls),
(256,409,o),
(278,477,o),
(329,477,cs),
(378,477,o),
(384,420,o),
(384,246,cs),
(384,32,o),
(357,2,o),
(308,2,c)
);
},
{
closed = 1;
nodes = (
(436,155,o),
(434,83,o),
(397,22,c),
(408,71,o),
(414,147,o),
(414,246,cs),
(414,345,o),
(408,421,o),
(397,470,c),
(434,409,o),
(436,337,o),
(436,246,cs)
);
},
{
closed = 1;
nodes = (
(348,1073,l),
(168,933,o),
(103,701,o),
(103,522,cs),
(103,74,l),
(83,64,l),
(83,522,ls),
(83,734,o),
(162,937,o),
(343,1073,c)
);
},
{
closed = 1;
nodes = (
(1399,-143,l),
(1243,-306,o),
(1056,-402,o),
(819,-402,cs),
(589,-402,o),
(359,-321,o),
(197,-197,c),
(199,-195,l),
(359,-306,o),
(589,-380,o),
(819,-380,cs),
(1056,-380,o),
(1243,-292,o),
(1397,-141,c)
);
}
);
width = 613;
}
);
},
{
color = (255, 153, 153, 255);
glyphname = c;
layers = (
{
anchors = (
{
name = top;
position = "{278, 577}";
}
);
hints = (
{
horizontal = 1;
place = (-5,36);
type = Stem;
},
{
horizontal = 1;
place = (255,213);
type = Stem;
},
{
place = (38,197);
type = Stem;
},
{
place = (327,200);
type = Stem;
},
{
place = (376,151);
type = Stem;
}
);
layerId = "A410FBA5-8D09-49B2-9E86-D368B18AE5F7";
shapes = (
{
closed = 1;
nodes = (
(480,148,l),
(459,84,o),
(414,55,o),
(357,55,cs),
(263,55,o),
(224,119,o),
(224,273,cs),
(224,453,o),
(262,493,o),
(307,493,cs),
(342,493,o),
(368,470,o),
(372,449,c),
(349,423,o),
(337,386,o),
(337,354,cs),
(337,309,o),
(361,271,o),
(409,271,cs),
(459,271,o),
(485,312,o),
(485,364,cs),
(485,453,o),
(402,500,o),
(289,500,cs),
(138,500,o),
(22,414,o),
(22,244,cs),
(22,68,o),
(135,-9,o),
(267,-9,cs),
(369,-9,o),
(452,44,o),
(487,145,c)
);
},
{
closed = 1;
nodes = (
(375,301,o),
(366,332,o),
(366,360,cs),
(366,396,o),
(380,429,o),
(419,444,c),
(397,427,o),
(385,393,o),
(385,362,cs),
(385,336,o),
(394,305,o),
(424,301,c),
(416,301,o),
(416,301,o),
(411,301,c)
);
},
{
closed = 1;
nodes = (
(130,17,o),
(52,104,o),
(52,246,cs),
(52,364,o),
(116,451,o),
(226,470,c),
(132,445,o),
(74,358,o),
(74,246,cs),
(74,110,o),
(151,21,o),
(272,17,c),
(272,17,o),
(272,17,o),
(266,17,c)
);
}
);
width = 500;
}
);
leftKerningGroup = _kern2;
rightKerningGroup = _kern2;
unicode = 99;
},
{
color = (153, 255, 154, 255);
glyphname = c.4;
layers = (
{
layerId = "A410FBA5-8D09-49B2-9E86-D368B18AE5F7";
shapes = (
{
closed = 1;
nodes = (
(348,493,o),
(366,469,o),
(370,449,c),
(347,423,o),
(335,386,o),
(335,354,cs),
(335,309,o),
(359,271,o),
(407,271,cs),
(457,271,o),
(483,312,o),
(483,364,cs),
(483,450,o),
(410,500,o),
(303,500,cs),
(135,500,o),
(23,386,o),
(23,205,cs),
(23,-139,o),
(412,-306,o),
(691,-306,cs),
(1065,-306,o),
(1352,-7,o),
(1352,309,cs),
(1352,596,o),
(1116,834,o),
(813,834,cs),
(668,834,o),
(540,780,o),
(443,692,c),
(448,688,l),
(544,775,o),
(670,828,o),
(812,828,cs),
(1109,828,o),
(1346,597,o),
(1346,307,cs),
(1346,2,o),
(1083,-263,o),
(744,-263,cs),
(502,-263,o),
(226,-128,o),
(226,279,cs),
(226,339,o),
(233,493,o),
(309,493,cs)
);
},
{
closed = 1;
nodes = (
(373,301,o),
(364,332,o),
(364,360,cs),
(364,396,o),
(378,429,o),
(417,444,c),
(395,427,o),
(383,393,o),
(383,362,cs),
(383,336,o),
(392,305,o),
(422,301,c),
(414,301,o),
(414,301,o),
(409,301,c)
);
},
{
closed = 1;
nodes = (
(474,-253,l),
(211,-183,o),
(51,6,o),
(51,205,cs),
(51,345,o),
(115,448,o),
(226,470,c),
(131,440,o),
(73,338,o),
(73,205,cs),
(73,9,o),
(242,-185,o),
(499,-257,c)
);
}
);
width = 498;
}
);
leftKerningGroup = _kern2;
rightKerningGroup = _kern2;
},
{
color = (255, 153, 153, 255);
glyphname = d;
layers = (
{
hints = (
{
horizontal = 1;
place = (-6,43);
type = Stem;
},
{
horizontal = 1;
place = (736,-20);
target = down;
type = TopGhost;
},
{
place = (20,213);
type = Stem;
},
{
place = (350,198);
type = Stem;
}
);
layerId = "A410FBA5-8D09-49B2-9E86-D368B18AE5F7";
shapes = (
{
closed = 1;
nodes = (
(543,721,l),
(273,689,l),
(273,682,l),
(329,682,o),
(350,686,o),
(350,634,cs),
(350,456,l),
(336,494,o),
(298,500,o),
(264,500,cs),
(118,500,o),
(20,385,o),
(20,227,cs),
(20,88,o),
(96,-9,o),
(209,-9,cs),
(279,-9,o),
(332,29,o),
(350,127,c),
(350,121,ls),
(350,37,o),
(394,-9,o),
(486,-9,cs),
(542,-9,o),
(588,9,o),
(604,30,c),
(598,37,l),
(595,32,o),
(585,24,o),
(573,24,cs),
(549,24,o),
(543,55,o),
(543,125,cs)
);
},
{
closed = 1;
nodes = (
(237,71,o),
(231,180,o),
(231,261,cs),
(231,349,o),
(238,482,o),
(303,482,cs),
(334,482,o),
(347,452,o),
(350,410,c),
(350,213,ls),
(350,94,o),
(315,71,o),
(290,71,cs)
);
},
{
closed = 1;
nodes = (
(394,120,ls),
(394,49,o),
(428,18,o),
(494,18,c),
(494,18,o),
(486,18,o),
(486,18,c),
(408,18,o),
(374,49,o),
(374,120,cs),
(374,630,l),
(374,649,o),
(374,662,o),
(368,667,c),
(388,667,l),
(394,662,o),
(394,649,o),
(394,630,c)
);
},
{
closed = 1;
nodes = (
(72,103,o),
(130,22,o),
(219,18,c),
(213,18,o),
(213,18,o),
(205,18,c),
(112,18,o),
(50,103,o),
(50,227,cs),
(50,366,o),
(131,464,o),
(236,471,c),
(137,452,o),
(72,353,o),
(72,227,cs)
);
}
);
width = 611;
}
);
unicode = 100;
},
{
color = (153, 255, 154, 255);
glyphname = d.5;
rightMetricsKey = l.5;
layers = (
{
hints = (
{
horizontal = 1;
place = (-6,43);
type = Stem;
},
{
horizontal = 1;
place = (736,-20);
target = down;
type = TopGhost;
},
{
place = (20,213);
type = Stem;
},
{
place = (350,198);
type = Stem;
}
);
layerId = "A410FBA5-8D09-49B2-9E86-D368B18AE5F7";
shapes = (
{
closed = 1;
nodes = (
(350,456,l),
(336,494,o),
(298,500,o),
(264,500,cs),
(118,500,o),
(20,385,o),
(20,227,cs),
(20,88,o),
(96,-9,o),
(209,-9,cs),
(278,-9,o),
(331,28,o),
(350,123,c),
(350,121,l),
(350,-63,o),
(393,-239,o),
(707,-239,cs),
(795,-239,o),
(890,-208,o),
(919,-139,c),
(914,-134,l),
(891,-192,o),
(815,-222,o),
(750,-222,cs),
(642,-222,o),
(544,-145,o),
(544,31,cs),
(543,721,l),
(273,689,l),
(273,682,l),
(329,682,o),
(350,686,o),
(350,634,cs)
);
},
{
closed = 1;
nodes = (
(236,57,o),
(231,174,o),
(231,251,cs),
(231,348,o),
(239,479,o),
(305,479,cs),
(336,479,o),
(347,450,o),
(350,410,c),
(350,179,l),
(344,78,o),
(308,57,o),
(287,57,cs)
);
},
{
closed = 1;
nodes = (
(72,103,o),
(130,22,o),
(219,18,c),
(213,18,o),
(213,18,o),
(205,18,c),
(112,18,o),
(50,103,o),
(50,227,cs),
(50,366,o),
(131,464,o),
(236,471,c),
(137,452,o),
(72,353,o),
(72,227,cs)
);
},
{
closed = 1;
nodes = (
(394,106,ls),
(394,-87,o),
(476,-170,o),
(586,-202,c),
(586,-205,l),
(468,-177,o),
(374,-99,o),
(374,108,cs),
(374,632,ls),
(374,651,o),
(374,664,o),
(368,669,c),
(388,669,l),
(394,664,o),
(394,651,o),
(394,632,cs)
);
}
);
width = 606;
}
);
},
{
color = (153, 255, 154, 255);
glyphname = d.4;
layers = (
{
layerId = "A410FBA5-8D09-49B2-9E86-D368B18AE5F7";
shapes = (
{
closed = 1;
nodes = (
(20,88,o),
(96,-9,o),
(209,-9,cs),
(280,-9,o),
(334,30,o),
(352,131,c),
(377,-209,o),
(686,-413,o),
(1051,-413,cs),
(1394,-413,o),
(1671,-136,o),
(1671,207,cs),
(1671,544,o),
(1398,817,o),
(1061,817,cs),
(903,817,o),
(759,757,o),
(651,659,c),
(657,655,l),
(764,752,o),
(906,811,o),
(1061,811,cs),
(1394,811,o),
(1665,540,o),
(1665,207,cs),
(1665,-126,o),
(1394,-397,o),
(1061,-397,cs),
(790,-397,o),
(543,-231,o),
(543,138,cs),
(543,721,l),
(273,689,l),
(273,682,l),
(329,682,o),
(350,686,o),
(350,634,cs),
(350,456,l),
(336,494,o),
(298,500,o),
(264,500,cs),
(118,500,o),
(20,385,o),
(20,227,cs)
);
},
{
closed = 1;
nodes = (
(236,57,o),
(231,174,o),
(231,251,cs),
(231,348,o),
(239,479,o),
(305,479,cs),
(336,479,o),
(347,450,o),
(350,410,c),
(350,179,l),
(344,78,o),
(308,57,o),
(287,57,cs)
);
},
{
closed = 1;
nodes = (
(72,103,o),
(130,22,o),
(219,18,c),
(213,18,o),
(213,18,o),
(205,18,c),
(112,18,o),
(50,103,o),
(50,227,cs),
(50,366,o),
(131,464,o),
(236,471,c),
(137,452,o),
(72,353,o),
(72,227,cs)
);
},
{
closed = 1;
nodes = (
(395,157,ls),
(395,-17,o),
(494,-199,o),
(708,-316,c),
(636,-298,o),
(375,-144,o),
(375,168,cs),
(375,630,ls),
(375,649,o),
(375,662,o),
(369,667,c),
(389,667,l),
(395,662,o),
(395,649,o),
(395,630,cs)
);
}
);
width = 611;
}
);
},
{
color = (153, 255, 154, 255);
glyphname = d.6;
layers = (
{
layerId = "A410FBA5-8D09-49B2-9E86-D368B18AE5F7";
shapes = (
{
closed = 1;
nodes = (
(616,-192,l),
(750,-314,o),
(930,-389,o),
(1127,-389,cs),
(1567,-389,o),
(1921,-29,o),
(1921,421,cs),
(1921,878,o),
(1562,1243,o),
(1114,1243,cs),
(645,1243,o),
(354,923,o),
(354,517,cs),
(354,450,l),
(353,446,l),
(342,493,o),
(301,500,o),
(264,500,cs),
(118,500,o),
(20,385,o),
(20,227,cs),
(20,88,o),
(96,-9,o),
(209,-9,cs),
(278,-9,o),
(331,28,o),
(350,123,c),
(350,121,l),
(350,37,o),
(394,-9,o),
(486,-9,cs),
(542,-9,o),
(588,9,o),
(604,30,c),
(598,37,l),
(595,32,o),
(585,24,o),
(573,24,cs),
(549,24,o),
(543,55,o),
(543,125,cs),
(543,617,ls),
(543,978,o),
(788,1233,o),
(1117,1233,cs),
(1558,1233,o),
(1915,872,o),
(1915,421,cs),
(1915,-24,o),
(1562,-382,o),
(1127,-382,cs),
(934,-382,o),
(756,-308,o),
(622,-187,c)
);
},
{
closed = 1;
nodes = (
(236,57,o),
(231,174,o),
(231,251,cs),
(231,348,o),
(239,479,o),
(305,479,cs),
(336,479,o),
(347,450,o),
(350,410,c),
(350,179,l),
(344,78,o),
(308,57,o),
(287,57,cs)
);
},
{
closed = 1;
nodes = (
(72,103,o),
(130,22,o),
(219,18,c),
(213,18,o),
(213,18,o),
(205,18,c),
(112,18,o),
(50,103,o),
(50,227,cs),
(50,366,o),
(131,464,o),
(236,471,c),
(137,452,o),
(72,353,o),
(72,227,cs)
);
},
{
closed = 1;
nodes = (
(374,519,ls),
(374,731,o),
(453,937,o),
(634,1073,c),
(639,1073,l),
(459,933,o),
(394,698,o),
(394,522,cs),
(394,120,ls),
(394,49,o),
(428,18,o),
(494,18,c),
(494,18,o),
(486,18,o),
(486,18,c),
(408,18,o),
(374,49,o),
(374,120,cs)
);
}
);
width = 611;
}
);
},
{
color = (153, 255, 154, 255);
glyphname = d.6.more;
layers = (
{
layerId = "A410FBA5-8D09-49B2-9E86-D368B18AE5F7";
shapes = (
{
closed = 1;
nodes = (
(-368,-320,l),
(-266,-210,o),
(-116,-146,o),
(52,-146,cs),
(431,-146,o),
(697,-388,o),
(1127,-388,cs),
(1565,-388,o),
(1921,-28,o),
(1921,421,cs),
(1921,878,o),
(1562,1243,o),
(1114,1243,cs),
(645,1243,o),
(357,923,o),
(357,517,cs),
(357,444,l),
(356,444,o),
(354,444,o),
(354,444,c),
(343,492,o),
(301,500,o),
(264,500,cs),
(118,500,o),
(20,385,o),
(20,227,cs),
(20,88,o),
(96,-9,o),
(209,-9,cs),
(278,-9,o),
(331,28,o),
(350,123,c),
(350,121,l),
(350,37,o),
(394,-9,o),
(486,-9,cs),
(542,-9,o),
(588,9,o),
(604,30,c),
(603,31,o),
(599,36,o),
(598,37,c),
(595,32,o),
(585,24,o),
(573,24,cs),
(549,24,o),
(543,55,o),
(543,125,cs),
(543,617,ls),
(543,978,o),
(788,1233,o),
(1117,1233,cs),
(1558,1233,o),
(1915,872,o),
(1915,421,cs),
(1915,-24,o),
(1562,-382,o),
(1127,-382,cs),
(705,-382,o),
(434,-140,o),
(52,-140,cs),
(-119,-140,o),
(-273,-205,o),
(-376,-318,c)
);
},
{
closed = 1;
nodes = (
(236,57,o),
(231,174,o),
(231,251,cs),
(231,348,o),
(239,479,o),
(305,479,cs),
(336,479,o),
(347,450,o),
(350,410,c),
(350,395,o),
(350,200,o),
(350,179,c),
(344,78,o),
(308,57,o),
(287,57,cs)
);
},
{
closed = 1;
nodes = (
(72,103,o),
(130,22,o),
(219,18,c),
(213,18,o),
(213,18,o),
(205,18,c),
(112,18,o),
(50,103,o),
(50,227,cs),
(50,366,o),
(131,464,o),
(236,471,c),
(137,452,o),
(72,353,o),
(72,227,cs)
);
},
{
closed = 1;
nodes = (
(374,519,ls),
(374,731,o),
(453,937,o),
(634,1073,c),
(639,1073,l),
(459,933,o),
(394,698,o),
(394,522,cs),
(394,120,ls),
(394,49,o),
(428,18,o),
(494,18,c),
(494,18,o),
(486,18,o),
(486,18,c),
(408,18,o),
(374,49,o),
(374,120,cs)
);
}
);
width = 611;
}
);
},
{
color = (153, 255, 154, 255);
glyphname = d.6.more.acc;
layers = (
{
layerId = "A410FBA5-8D09-49B2-9E86-D368B18AE5F7";
shapes = (
{
closed = 1;
nodes = (
(-368,-320,l),
(-266,-210,o),
(-116,-146,o),
(52,-146,cs),
(431,-146,o),
(697,-462,o),
(1127,-462,cs),
(1565,-462,o),
(1921,-28,o),
(1921,421,cs),
(1921,878,o),
(1562,1243,o),
(1114,1243,cs),
(645,1243,o),
(356,923,o),
(356,517,cs),
(356,444,l),
(354,444,l),
(343,492,o),
(301,500,o),
(264,500,cs),
(118,500,o),
(20,385,o),
(20,227,cs),
(20,88,o),
(96,-9,o),
(209,-9,cs),
(278,-9,o),
(331,28,o),
(350,123,c),
(350,121,l),
(350,37,o),
(394,-9,o),
(486,-9,cs),
(542,-9,o),
(588,9,o),
(604,30,c),
(598,37,l),
(595,32,o),
(585,24,o),
(573,24,cs),
(549,24,o),
(543,55,o),
(543,125,cs),
(543,617,ls),
(543,978,o),
(788,1233,o),
(1117,1233,cs),
(1558,1233,o),
(1915,872,o),
(1915,421,cs),
(1915,-24,o),
(1562,-332,o),
(1127,-332,cs),
(705,-332,o),
(434,-140,o),
(52,-140,cs),
(-119,-140,o),
(-273,-205,o),
(-376,-318,c)
);
},
{
closed = 1;
nodes = (
(236,57,o),
(231,174,o),
(231,251,cs),
(231,348,o),
(239,479,o),
(305,479,cs),
(336,479,o),
(347,450,o),
(350,410,c),
(350,179,l),
(344,78,o),
(308,57,o),
(287,57,cs)
);
},
{
closed = 1;
nodes = (
(72,103,o),
(130,22,o),
(219,18,c),
(213,18,o),
(213,18,o),
(205,18,c),
(112,18,o),
(50,103,o),
(50,227,cs),
(50,366,o),
(131,464,o),
(236,471,c),
(137,452,o),
(72,353,o),
(72,227,cs)
);
},
{
closed = 1;
nodes = (
(374,519,ls),
(374,731,o),
(453,937,o),
(634,1073,c),
(639,1073,l),
(459,933,o),
(394,698,o),
(394,522,cs),
(394,120,ls),
(394,49,o),
(428,18,o),
(494,18,c),
(494,18,o),
(486,18,o),
(486,18,c),
(408,18,o),
(374,49,o),
(374,120,cs)
);
},
{
closed = 1;
nodes = (
(1707,-125,l),
(1551,-288,o),
(1364,-384,o),
(1127,-384,cs),
(907,-384,o),
(690,-317,o),
(532,-244,c),
(534,-242,l),
(690,-303,o),
(907,-362,o),
(1127,-362,cs),
(1364,-362,o),
(1551,-274,o),
(1705,-123,c)
);
}
);
width = 611;
}
);
},
{
color = (153, 255, 154, 255);
glyphname = d.9;
layers = (
{
layerId = "A410FBA5-8D09-49B2-9E86-D368B18AE5F7";
shapes = (
{
closed = 1;
nodes = (
(350,456,l),
(336,494,o),
(298,500,o),
(264,500,cs),
(118,500,o),
(20,385,o),
(20,227,cs),
(20,88,o),
(96,-9,o),
(209,-9,cs),
(281,-9,o),
(335,31,o),
(352,135,c),
(371,-43,o),
(503,-152,o),
(687,-152,cs),
(892,-152,o),
(1009,-14,o),
(1009,124,cs),
(1009,216,o),
(957,301,o),
(867,301,cs),
(802,301,o),
(758,256,o),
(758,203,cs),
(758,152,o),
(799,105,o),
(862,105,cs),
(911,105,o),
(952,134,o),
(968,171,c),
(976,144,o),
(980,120,o),
(980,94,cs),
(980,-31,o),
(886,-121,o),
(759,-121,cs),
(647,-121,o),
(543,-56,o),
(543,160,cs),
(543,721,l),
(273,689,l),
(273,682,l),
(329,682,o),
(350,686,o),
(350,634,cs)
);
},
{
closed = 1;
nodes = (
(236,57,o),
(231,174,o),
(231,251,cs),
(231,348,o),
(239,479,o),
(305,479,cs),
(336,479,o),
(347,450,o),
(350,410,c),
(350,179,l),
(344,78,o),
(308,57,o),
(287,57,cs)
);
},
{
closed = 1;
nodes = (
(72,103,o),
(130,22,o),
(219,18,c),
(213,18,o),
(213,18,o),
(205,18,c),
(112,18,o),
(50,103,o),
(50,227,cs),
(50,366,o),
(131,464,o),
(236,471,c),
(137,452,o),
(72,353,o),
(72,227,cs)
);
},
{
closed = 1;
nodes = (
(394,167,ls),
(394,-18,o),
(537,-135,o),
(684,-135,c),
(684,-135,o),
(677,-136,o),
(677,-136,c),
(529,-136,o),
(374,-28,o),
(374,169,cs),
(374,632,ls),
(374,651,o),
(374,664,o),
(368,669,c),
(388,669,l),
(394,664,o),
(394,651,o),
(394,632,cs)
);
},
{
closed = 1;
nodes = (
(804,165,o),
(836,138,o),
(874,129,c),
(866,129,o),
(866,129,o),
(860,129,cs),
(816,129,o),
(782,165,o),
(782,203,cs),
(782,241,o),
(816,277,o),
(860,277,cs),
(866,277,o),
(866,277,o),
(874,277,c),
(836,268,o),
(804,241,o),
(804,203,cs)
);
}
);
width = 1048;
}
);
},
{
color = (255, 153, 153, 255);
glyphname = e;
layers = (
{
anchors = (
{
name = top;
position = "{289, 577}";
},
{
name = bottom;
position = "{267, -77}";
}
);
guides = (
{
position = "{0, -77}";
},
{
angle = 90;
position = "{228, 0}";
}
);
hints = (
{
horizontal = 1;
place = (-5,27);
type = Stem;
},
{
horizontal = 1;
place = (468,-20);
target = down;
type = TopGhost;
},
{
place = (28,203);
type = Stem;
},
{
place = (350,170);
type = Stem;
}
);
layerId = "A410FBA5-8D09-49B2-9E86-D368B18AE5F7";
shapes = (
{
closed = 1;
nodes = (
(22,68,o),
(123,-9,o),
(267,-9,cs),
(379,-9,o),
(461,39,o),
(498,142,c),
(490,145,l),
(467,81,o),
(416,51,o),
(353,51,cs),
(259,51,o),
(233,130,o),
(226,208,c),
(274,226,o),
(337,234,o),
(391,253,cs),
(446,273,o),
(491,311,o),
(491,367,cs),
(491,456,o),
(402,500,o),
(289,500,cs),
(138,500,o),
(22,422,o),
(22,244,cs)
);
},
{
closed = 1;
nodes = (
(224,236,o),
(224,255,o),
(224,273,cs),
(224,453,o),
(257,490,o),
(302,490,cs),
(329,490,o),
(350,464,o),
(350,416,cs),
(350,332,o),
(291,255,o),
(226,216,c)
);
},
{
closed = 1;
nodes = (
(152,453,o),
(74,382,o),
(74,244,cs),
(74,93,o),
(146,36,o),
(228,20,c),
(139,32,o),
(52,83,o),
(52,244,cs),
(52,401,o),
(142,458,o),
(228,470,c)
);
},
{
closed = 1;
nodes = (
(352,299,o),
(379,344,o),
(379,415,cs),
(379,433,o),
(374,450,o),
(369,458,c),
(392,453,o),
(401,418,o),
(401,397,cs),
(401,337,o),
(348,270,o),
(317,258,c)
);
}
);
width = 511;
}
);
leftKerningGroup = _kern2;
rightKerningGroup = _kern2;
unicode = 101;
},
{
color = (153, 255, 154, 255);
glyphname = e.55;
layers = (
{
layerId = "A410FBA5-8D09-49B2-9E86-D368B18AE5F7";
shapes = (
{
closed = 1;
nodes = (
(493,145,l),
(470,81,o),
(419,51,o),
(356,51,cs),
(271,51,o),
(238,112,o),
(230,209,c),
(278,226,o),
(341,234,o),
(394,253,c),
(631,332,o),
(745,485,o),
(745,640,cs),
(745,831,o),
(591,985,o),
(400,985,cs),
(290,985,o),
(192,933,o),
(129,853,c),
(133,848,l),
(195,928,o),
(291,979,o),
(400,979,cs),
(587,979,o),
(739,827,o),
(739,640,cs),
(739,501,o),
(642,363,o),
(446,280,c),
(475,302,o),
(494,331,o),
(494,367,cs),
(494,456,o),
(405,500,o),
(292,500,cs),
(141,500,o),
(25,422,o),
(25,244,cs),
(25,68,o),
(126,-9,o),
(270,-9,cs),
(382,-9,o),
(464,39,o),
(501,142,c)
);
},
{
closed = 1;
nodes = (
(228,234,o),
(227,253,o),
(227,273,cs),
(227,453,o),
(260,490,o),
(305,490,cs),
(332,490,o),
(353,464,o),
(353,416,cs),
(353,332,o),
(294,255,o),
(229,217,c)
);
},
{
closed = 1;
nodes = (
(352,299,o),
(379,344,o),
(379,415,cs),
(379,433,o),
(374,450,o),
(369,458,c),
(392,453,o),
(401,418,o),
(401,397,cs),
(401,337,o),
(348,270,o),
(317,258,c)
);
},
{
closed = 1;
nodes = (
(153,453,o),
(75,382,o),
(75,244,cs),
(75,93,o),
(147,36,o),
(229,20,c),
(140,32,o),
(53,83,o),
(53,244,cs),
(53,401,o),
(143,458,o),
(229,470,c)
);
}
);
width = 514;
}
);
leftKerningGroup = _kern2;
rightKerningGroup = _kern2;
},
{
color = (153, 255, 154, 255);
glyphname = e.4;
layers = (
{
layerId = "A410FBA5-8D09-49B2-9E86-D368B18AE5F7";
shapes = (
{
closed = 1;
nodes = (
(448,688,l),
(544,775,o),
(670,828,o),
(812,828,cs),
(1109,828,o),
(1346,597,o),
(1346,307,cs),
(1346,2,o),
(1083,-263,o),
(744,-263,cs),
(524,-263,o),
(277,-152,o),
(233,173,c),
(281,191,o),
(342,200,o),
(394,221,cs),
(449,244,o),
(494,287,o),
(494,350,cs),
(494,448,o),
(410,500,o),
(299,500,cs),
(138,500,o),
(23,386,o),
(23,201,cs),
(23,-139,o),
(412,-306,o),
(691,-306,cs),
(1065,-306,o),
(1352,-7,o),
(1352,309,cs),
(1352,596,o),
(1116,834,o),
(813,834,cs),
(668,834,o),
(540,780,o),
(443,692,c)
);
},
{
closed = 1;
nodes = (
(228,213,o),
(226,245,o),
(226,279,cs),
(226,419,o),
(259,489,o),
(300,490,c),
(333,490,o),
(353,459,o),
(353,405,cs),
(353,312,o),
(295,226,o),
(232,183,c)
);
},
{
closed = 1;
nodes = (
(358,288,o),
(379,340,o),
(379,411,cs),
(379,429,o),
(374,446,o),
(369,454,c),
(392,449,o),
(401,414,o),
(401,393,cs),
(401,333,o),
(354,259,o),
(323,247,c)
);
},
{
closed = 1;
nodes = (
(474,-253,l),
(211,-183,o),
(53,-2,o),
(53,204,cs),
(53,344,o),
(115,448,o),
(226,470,c),
(131,440,o),
(75,337,o),
(75,204,cs),
(75,8,o),
(242,-185,o),
(499,-257,c)
);
}
);
width = 514;
}
);
leftKerningGroup = _kern2;
rightKerningGroup = _kern2;
},
{
color = (153, 255, 154, 255);
glyphname = e.8;
layers = (
{
layerId = "A410FBA5-8D09-49B2-9E86-D368B18AE5F7";
shapes = (
{
closed = 1;
nodes = (
(-2533,346,l),
(-2396,626,o),
(-2109,821,o),
(-1780,821,cs),
(-1248,821,o),
(-836,401,o),
(-455,4,cs),
(-114,-350,o),
(207,-685,o),
(591,-685,cs),
(960,-685,o),
(1160,-429,o),
(1160,-180,cs),
(1160,58,o),
(978,290,o),
(591,290,cs),
(545,290,o),
(483,281,o),
(429,269,c),
(467,291,o),
(494,324,o),
(494,367,cs),
(494,456,o),
(405,500,o),
(292,500,cs),
(141,500,o),
(25,422,o),
(25,244,cs),
(25,68,o),
(126,-9,o),
(270,-9,cs),
(382,-9,o),
(464,39,o),
(501,142,c),
(493,145,l),
(470,81,o),
(419,51,o),
(356,51,cs),
(271,51,o),
(238,112,o),
(230,209,c),
(326,242,o),
(491,284,o),
(591,284,cs),
(974,284,o),
(1154,54,o),
(1154,-180,cs),
(1154,-427,o),
(956,-679,o),
(591,-679,cs),
(214,-679,o),
(-116,-340,o),
(-451,8,cs),
(-824,396,o),
(-1240,827,o),
(-1780,827,cs),
(-2111,827,o),
(-2401,630,o),
(-2539,348,c)
);
},
{
closed = 1;
nodes = (
(332,490,o),
(353,464,o),
(353,416,cs),
(353,332,o),
(294,255,o),
(229,217,c),
(228,234,o),
(227,253,o),
(227,273,cs),
(227,453,o),
(260,490,o),
(305,490,cs)
);
},
{
closed = 1;
nodes = (
(352,299,o),
(379,344,o),
(379,415,cs),
(379,433,o),
(374,450,o),
(369,458,c),
(392,453,o),
(401,418,o),
(401,397,cs),
(401,337,o),
(348,270,o),
(317,258,c)
);
},
{
closed = 1;
nodes = (
(153,453,o),
(75,382,o),
(75,244,cs),
(75,93,o),
(147,36,o),
(229,20,c),
(140,32,o),
(53,83,o),
(53,244,cs),
(53,401,o),
(143,458,o),
(229,470,c)
);
}
);
width = 514;
}
);
leftKerningGroup = _kern2;
rightKerningGroup = _kern2;
},
{
color = (153, 255, 154, 255);
glyphname = e.8.acc;
layers = (
{
layerId = "A410FBA5-8D09-49B2-9E86-D368B18AE5F7";
shapes = (
{
closed = 1;
nodes = (
(-2533,346,l),
(-2396,626,o),
(-2109,821,o),
(-1780,821,cs),
(-1248,821,o),
(-836,401,o),
(-455,4,cs),
(-114,-350,o),
(207,-778,o),
(603,-778,cs),
(975,-778,o),
(1166,-519,o),
(1166,-251,cs),
(1166,105,o),
(921,290,o),
(591,290,cs),
(545,290,o),
(483,281,o),
(429,269,c),
(467,291,o),
(494,324,o),
(494,367,cs),
(494,456,o),
(405,500,o),
(292,500,cs),
(141,500,o),
(25,422,o),
(25,244,cs),
(25,68,o),
(126,-9,o),
(270,-9,cs),
(382,-9,o),
(464,39,o),
(501,142,c),
(493,145,l),
(470,81,o),
(419,51,o),
(356,51,cs),
(271,51,o),
(238,112,o),
(230,209,c),
(327,243,o),
(490,284,o),
(591,284,cs),
(974,284,o),
(1154,30,o),
(1154,-181,cs),
(1154,-427,o),
(956,-648,o),
(616,-648,cs),
(214,-648,o),
(-116,-340,o),
(-451,8,cs),
(-824,396,o),
(-1240,827,o),
(-1780,827,cs),
(-2111,827,o),
(-2401,630,o),
(-2539,348,c)
);
},
{
closed = 1;
nodes = (
(228,234,o),
(227,253,o),
(227,273,cs),
(227,453,o),
(260,490,o),
(305,490,cs),
(332,490,o),
(353,464,o),
(353,416,cs),
(353,332,o),
(294,255,o),
(229,217,c)
);
},
{
closed = 1;
nodes = (
(352,299,o),
(379,344,o),
(379,415,cs),
(379,433,o),
(374,450,o),
(369,458,c),
(392,453,o),
(401,418,o),
(401,397,cs),
(401,337,o),
(348,270,o),
(317,258,c)
);
},
{
closed = 1;
nodes = (
(1099,-441,l),
(993,-619,o),
(813,-700,o),
(616,-700,cs),
(415,-700,o),
(214,-616,o),
(73,-487,c),
(75,-485,l),
(214,-601,o),
(415,-678,o),
(616,-678,cs),
(813,-678,o),
(993,-605,o),
(1097,-439,c)
);
},
{
closed = 1;
nodes = (
(153,453,o),
(75,382,o),
(75,244,cs),
(75,93,o),
(147,36,o),
(229,20,c),
(140,32,o),
(53,83,o),
(53,244,cs),
(53,401,o),
(143,458,o),
(229,470,c)
);
}
);
width = 514;
}
);
leftKerningGroup = _kern2;
rightKerningGroup = _kern2;
},
{
color = (153, 255, 154, 255);
glyphname = e.999;
layers = (
{
anchors = (
{
name = top;
position = "{289, 577}";
},
{
name = bottom;
position = "{267, -77}";
}
);
guides = (
{
position = "{0, -77}";
}
);
hints = (
{
horizontal = 1;
place = (-5,27);
type = Stem;
},
{
horizontal = 1;
place = (468,-20);
target = down;
type = TopGhost;
},
{
place = (28,203);
type = Stem;
},
{
place = (350,170);
type = Stem;
}
);
layerId = "A410FBA5-8D09-49B2-9E86-D368B18AE5F7";
shapes = (
{
closed = 1;
nodes = (
(276,226,o),
(339,234,o),
(391,253,cs),
(446,273,o),
(491,311,o),
(491,367,cs),
(491,456,o),
(402,500,o),
(289,500,cs),
(138,500,o),
(22,404,o),
(22,226,cs),
(22,-1,o),
(196,-102,o),
(372,-102,cs),
(648,-102,o),
(746,49,o),
(746,181,cs),
(746,267,o),
(699,337,o),
(619,337,cs),
(554,337,o),
(510,292,o),
(510,239,cs),
(510,188,o),
(551,141,o),
(614,141,cs),
(663,141,o),
(704,170,o),
(720,207,c),
(723,190,o),
(725,173,o),
(725,157,cs),
(725,34,o),
(623,-63,o),
(493,-63,cs),
(396,-63,o),
(252,0,o),
(228,209,c)
);
},
{
closed = 1;
nodes = (
(225,235,o),
(224,253,o),
(224,273,cs),
(224,453,o),
(257,490,o),
(302,490,cs),
(329,490,o),
(350,464,o),
(350,416,cs),
(350,332,o),
(291,255,o),
(227,217,c)
);
},
{
closed = 1;
nodes = (
(352,299,o),
(379,344,o),
(379,415,cs),
(379,433,o),
(374,450,o),
(369,458,c),
(392,453,o),
(401,418,o),
(401,397,cs),
(401,337,o),
(348,270,o),
(317,258,c)
);
},
{
closed = 1;
nodes = (
(231,-71,o),
(53,0,o),
(53,227,cs),
(53,396,o),
(148,455,o),
(229,470,c),
(158,450,o),
(75,375,o),
(75,227,cs),
(75,6,o),
(241,-65,o),
(360,-84,c),
(360,-84,o),
(360,-84,o),
(353,-84,c)
);
},
{
closed = 1;
nodes = (
(562,201,o),
(594,174,o),
(632,165,c),
(624,165,o),
(624,165,o),
(618,165,cs),
(574,165,o),
(540,201,o),
(540,239,cs),
(540,277,o),
(574,313,o),
(618,313,cs),
(624,313,o),
(624,313,o),
(632,313,c),
(594,304,o),
(562,277,o),
(562,239,cs)
);
}
);
width = 763;
}
);
leftKerningGroup = _kern2;
rightKerningGroup = _kern2;
},
{
glyphname = e.9;
layers = (
{
layerId = "A410FBA5-8D09-49B2-9E86-D368B18AE5F7";
shapes = (
{
closed = 1;
nodes = (
(683,887,l),
(842,1024,o),
(1048,1107,o),
(1273,1107,cs),
(1772,1107,o),
(2178,701,o),
(2178,201,cs),
(2178,-330,o),
(1720,-706,o),
(1173,-706,cs),
(661,-706,o),
(247,-378,o),
(215,150,c),
(268,171,o),
(335,178,o),
(391,202,cs),
(446,226,o),
(495,270,o),
(495,350,cs),
(495,462,o),
(400,499,o),
(302,500,cs),
(150,501,o),
(22,385,o),
(22,139,cs),
(22,-388,o),
(562,-725,o),
(1116,-725,cs),
(1686,-725,o),
(2184,-369,o),
(2184,196,cs),
(2184,708,o),
(1776,1113,o),
(1274,1113,cs),
(1044,1113,o),
(835,1028,o),
(675,889,c)
);
},
{
closed = 1;
nodes = (
(213,180,o),
(213,198,o),
(213,217,cs),
(213,407,o),
(261,490,o),
(301,490,cs),
(337,490,o),
(353,456,o),
(353,403,cs),
(353,294,o),
(285,202,o),
(214,162,c)
);
},
{
closed = 1;
nodes = (
(359,285,o),
(379,338,o),
(379,411,cs),
(379,429,o),
(374,446,o),
(369,454,c),
(392,449,o),
(401,414,o),
(401,393,cs),
(401,331,o),
(356,255,o),
(326,243,c)
);
},
{
closed = 1;
nodes = (
(714,-643,l),
(451,-573,o),
(52,-280,o),
(52,140,cs),
(52,308,o),
(114,430,o),
(214,459,c),
(130,421,o),
(74,299,o),
(74,140,cs),
(74,-270,o),
(482,-575,o),
(739,-647,c)
);
}
);
width = 514;
}
);
leftKerningGroup = _kern2;
rightKerningGroup = _kern2;
},
{
color = (255, 153, 153, 255);
glyphname = f;
layers = (
{
hints = (
{
horizontal = 1;
place = (-6,21);
target = up;
type = BottomGhost;
},
{
horizontal = 1;
place = (446,157);
type = Stem;
},
{
horizontal = 1;
place = (523,80);
type = Stem;
},
{
horizontal = 1;
place = (712,24);
type = Stem;
},
{
place = (70,57);
type = Stem;
},
{
place = (86,197);
type = Stem;
}
);
layerId = "A410FBA5-8D09-49B2-9E86-D368B18AE5F7";
shapes = (
{
closed = 1;
nodes = (
(67,0,l),
(264,0,l),
(264,473,l),
(339,473,l),
(339,481,l),
(264,481,l),
(264,623,ls),
(264,670,o),
(281,727,o),
(334,727,cs),
(357,727,o),
(368,716,o),
(371,709,c),
(338,694,o),
(322,660,o),
(322,626,cs),
(322,582,o),
(348,538,o),
(401,538,cs),
(450,538,o),
(478,575,o),
(478,624,cs),
(478,682,o),
(440,737,o),
(308,737,cs),
(131,737,o),
(67,639,o),
(67,505,cs),
(67,481,l),
(21,481,l),
(21,473,l),
(67,473,l)
);
},
{
closed = 1;
nodes = (
(114,25,l),
(94,25,l),
(94,503,ls),
(94,625,o),
(146,696,o),
(257,710,c),
(159,689,o),
(114,619,o),
(114,503,cs)
);
},
{
closed = 1;
nodes = (
(367,619,o),
(367,574,o),
(412,565,c),
(407,565,o),
(407,565,o),
(399,565,c),
(347,565,o),
(347,619,o),
(347,619,cs),
(347,672,o),
(383,695,o),
(407,697,c),
(389,684,o),
(367,668,o),
(367,625,cs)
);
}
);
width = 337;
}
);
unicode = 102;
},
{
color = (153, 255, 154, 255);
glyphname = f.7;
layers = (
{
layerId = "A410FBA5-8D09-49B2-9E86-D368B18AE5F7";
shapes = (
{
closed = 1;
nodes = (
(16,473,l),
(62,473,l),
(62,138,ls),
(62,-231,o),
(-187,-397,o),
(-452,-397,cs),
(-791,-397,o),
(-1060,-126,o),
(-1060,207,cs),
(-1060,540,o),
(-789,811,o),
(-456,811,cs),
(-301,811,o),
(-159,752,o),
(-52,655,c),
(-46,659,l),
(-154,757,o),
(-298,817,o),
(-456,817,cs),
(-793,817,o),
(-1066,546,o),
(-1066,203,cs),
(-1066,-136,o),
(-800,-413,o),
(-422,-413,cs),
(-81,-413,o),
(263,-187,o),
(263,164,cs),
(263,282,o),
(224,387,o),
(190,473,c),
(334,473,l),
(334,481,l),
(187,481,l),
(162,543,o),
(141,596,o),
(141,637,cs),
(141,697,o),
(186,729,o),
(237,729,cs),
(250,729,o),
(276,727,o),
(281,709,c),
(248,694,o),
(232,660,o),
(232,626,cs),
(232,582,o),
(258,538,o),
(311,538,cs),
(360,538,o),
(388,575,o),
(388,625,cs),
(388,681,o),
(352,737,o),
(249,737,cs),
(98,737,o),
(62,616,o),
(62,505,cs),
(62,481,l),
(16,481,l)
);
},
{
closed = 1;
nodes = (
(107,138,ls),
(107,-140,o),
(-26,-305,o),
(-210,-368,c),
(-228,-370,l),
(-45,-309,o),
(87,-144,o),
(87,138,cs),
(87,503,ls),
(87,551,o),
(95,606,o),
(112,638,c),
(106,589,o),
(107,537,o),
(107,503,cs)
);
},
{
closed = 1;
nodes = (
(277,621,o),
(277,576,o),
(322,567,c),
(317,567,o),
(317,567,o),
(309,567,c),
(257,567,o),
(257,621,o),
(257,621,cs),
(257,674,o),
(293,697,o),
(317,699,c),
(299,686,o),
(277,670,o),
(277,627,cs)
);
}
);
width = 316;
}
);
},
{
color = (255, 153, 153, 255);
glyphname = g;
layers = (
{
hints = (
{
horizontal = 1;
place = (-281,21);
target = up;
type = BottomGhost;
},
{
horizontal = 1;
place = (-95,166);
type = Stem;
},
{
horizontal = 1;
place = (-95,226);
type = Stem;
},
{
horizontal = 1;
place = (459,198);
type = Stem;
},
{
horizontal = 1;
place = (511,146);
type = Stem;
},
{
horizontal = 1;
place = (560,97);
type = Stem;
},
{
place = (53,96);
type = Stem;
},
{
place = (75,28);
type = Stem;
},
{
place = (75,181);
type = Stem;
},
{
place = (367,219);
type = Stem;
},
{
place = (384,183);
type = Stem;
},
{
place = (521,65);
type = Stem;
},
{
place = (535,51);
type = Stem;
}
);
layerId = "A410FBA5-8D09-49B2-9E86-D368B18AE5F7";
shapes = (
{
closed = 1;
nodes = (
(289,564,o),
(309,568,o),
(326,577,c),
(326,546,o),
(317,521,o),
(304,499,c),
(292,500,o),
(281,500,o),
(270,500,cs),
(171,500,o),
(28,468,o),
(28,327,cs),
(28,246,o),
(72,201,o),
(132,178,c),
(56,162,o),
(-4,126,o),
(-4,57,cs),
(-4,16,o),
(12,-12,o),
(37,-31,c),
(19,-38,o),
(3,-74,o),
(3,-104,cs),
(3,-178,o),
(48,-255,o),
(267,-255,cs),
(469,-255,o),
(560,-155,o),
(560,-61,cs),
(560,24,o),
(493,104,o),
(365,104,cs),
(306,104,o),
(245,95,o),
(194,97,cs),
(134,99,o),
(92,107,o),
(92,139,cs),
(92,162,o),
(118,170,o),
(150,172,c),
(187,161,o),
(228,156,o),
(268,156,cs),
(394,156,o),
(520,190,o),
(520,329,cs),
(520,441,o),
(415,486,o),
(317,497,c),
(340,526,o),
(356,559,o),
(356,600,cs),
(356,656,o),
(318,679,o),
(277,679,cs),
(236,679,o),
(206,656,o),
(206,621,cs),
(206,594,o),
(224,564,o),
(276,564,cs)
);
},
{
closed = 1;
nodes = (
(231,654,o),
(268,658,o),
(290,655,c),
(270,655,o),
(251,640,o),
(251,622,cs),
(251,607,o),
(263,589,o),
(283,589,c),
(261,585,o),
(231,592,o),
(231,622,cs)
);
},
{
closed = 1;
nodes = (
(280,494,o),
(288,491,o),
(295,485,c),
(283,469,o),
(268,453,o),
(252,438,c),
(258,438,l),
(273,451,o),
(287,465,o),
(301,479,c),
(332,445,o),
(339,360,o),
(339,328,cs),
(339,246,o),
(315,162,o),
(268,162,cs),
(222,162,o),
(200,244,o),
(200,328,cs),
(200,412,o),
(224,494,o),
(270,494,cs)
);
},
{
closed = 1;
nodes = (
(368,359,o),
(361,425,o),
(342,468,c),
(382,428,o),
(390,391,o),
(390,327,cs),
(390,281,o),
(373,228,o),
(335,188,c),
(356,222,o),
(368,274,o),
(368,327,cs)
);
},
{
closed = 1;
nodes = (
(101,211,o),
(55,265,o),
(55,327,cs),
(55,401,o),
(100,437,o),
(151,455,c),
(110,431,o),
(77,388,o),
(77,327,cs),
(77,277,o),
(112,217,o),
(159,194,c)
);
},
{
closed = 1;
nodes = (
(49,107,o),
(42,87,o),
(42,58,cs),
(42,25,o),
(55,7,o),
(75,-7,c),
(44,3,o),
(21,25,o),
(21,58,cs),
(21,85,o),
(35,111,o),
(67,130,c)
);
},
{
closed = 1;
nodes = (
(381,-30,l),
(446,-24,o),
(524,-38,o),
(524,-103,cs),
(524,-115,o),
(517,-125,o),
(511,-130,c),
(511,-68,o),
(461,-33,o),
(373,-33,c)
);
},
{
closed = 1;
nodes = (
(252,-67,o),
(294,-60,o),
(361,-60,cs),
(433,-60,o),
(484,-71,o),
(484,-133,cs),
(484,-188,o),
(434,-249,o),
(267,-249,cs),
(102,-249,o),
(46,-189,o),
(46,-139,cs),
(46,-100,o),
(80,-65,o),
(122,-63,c),
(143,-66,o),
(165,-67,o),
(185,-67,cs)
);
}
);
width = 540;
}
);
unicode = 103;
},
{
color = (153, 255, 154, 255);
glyphname = g.7;
layers = (
{
layerId = "A410FBA5-8D09-49B2-9E86-D368B18AE5F7";
shapes = (
{
closed = 1;
nodes = (
(63,481,l),
(80,475,l),
(89,471,o),
(97,467,o),
(106,463,c),
(61,437,o),
(28,395,o),
(28,327,cs),
(28,246,o),
(73,201,o),
(132,178,c),
(56,162,o),
(-4,126,o),
(-4,57,cs),
(-4,16,o),
(12,-12,o),
(37,-31,c),
(19,-38,o),
(3,-74,o),
(3,-104,cs),
(3,-178,o),
(48,-255,o),
(267,-255,cs),
(469,-255,o),
(560,-155,o),
(560,-61,cs),
(560,24,o),
(493,104,o),
(365,104,cs),
(306,104,o),
(245,95,o),
(194,97,cs),
(134,99,o),
(92,107,o),
(92,139,cs),
(92,161,o),
(117,170,o),
(148,172,c),
(185,160,o),
(228,156,o),
(268,156,cs),
(394,156,o),
(520,190,o),
(520,329,cs),
(520,398,o),
(481,441,o),
(430,466,c),
(523,520,o),
(589,617,o),
(589,721,cs),
(589,857,o),
(479,1014,o),
(277,1014,cs),
(-64,1014,o),
(-298,548,o),
(-699,548,cs),
(-855,548,o),
(-982,675,o),
(-982,831,cs),
(-982,987,o),
(-855,1115,o),
(-699,1115,cs),
(-627,1115,o),
(-561,1087,o),
(-511,1043,c),
(-506,1047,l),
(-557,1093,o),
(-625,1121,o),
(-699,1121,cs),
(-858,1121,o),
(-989,991,o),
(-989,831,cs),
(-989,671,o),
(-857,542,o),
(-699,542,cs),
(-299,542,o),
(-52,1008,o),
(275,1008,cs),
(464,1008,o),
(563,858,o),
(563,723,cs),
(563,618,o),
(504,524,o),
(418,472,c),
(371,492,o),
(316,500,o),
(270,500,cs),
(221,500,o),
(161,492,o),
(113,467,c),
(103,472,o),
(92,477,o),
(82,481,cs),
(65,487,l)
);
},
{
closed = 1;
nodes = (
(143,-66,o),
(165,-67,o),
(185,-67,cs),
(252,-67,o),
(294,-60,o),
(361,-60,cs),
(433,-60,o),
(484,-71,o),
(484,-133,cs),
(484,-189,o),
(434,-251,o),
(267,-251,cs),
(102,-251,o),
(46,-190,o),
(46,-139,cs),
(46,-100,o),
(80,-65,o),
(122,-63,c)
);
},
{
closed = 1;
nodes = (
(231,425,o),
(249,423,o),
(269,423,cs),
(288,423,o),
(307,425,o),
(326,428,c),
(335,399,o),
(339,363,o),
(339,328,cs),
(339,247,o),
(315,164,o),
(268,164,cs),
(222,164,o),
(200,245,o),
(200,328,cs),
(200,364,o),
(204,399,o),
(213,428,c)
);
},
{
closed = 1;
nodes = (
(227,469,o),
(245,492,o),
(270,492,cs),
(295,492,o),
(313,469,o),
(324,435,c),
(306,431,o),
(288,429,o),
(269,429,cs),
(250,429,o),
(232,431,o),
(215,434,c)
);
},
{
closed = 1;
nodes = (
(101,211,o),
(55,265,o),
(55,327,cs),
(55,401,o),
(100,437,o),
(151,455,c),
(110,431,o),
(77,388,o),
(77,327,cs),
(77,277,o),
(112,217,o),
(159,194,c)
);
},
{
closed = 1;
nodes = (
(368,359,o),
(361,425,o),
(342,468,c),
(382,428,o),
(390,391,o),
(390,327,cs),
(390,281,o),
(373,228,o),
(335,188,c),
(356,222,o),
(368,274,o),
(368,327,cs)
);
},
{
closed = 1;
nodes = (
(381,-30,l),
(446,-24,o),
(524,-38,o),
(524,-103,cs),
(524,-115,o),
(517,-125,o),
(511,-130,c),
(511,-68,o),
(461,-33,o),
(373,-33,c)
);
},
{
closed = 1;
nodes = (
(49,107,o),
(42,87,o),
(42,58,cs),
(42,25,o),
(55,7,o),
(75,-7,c),
(44,3,o),
(21,25,o),
(21,58,cs),
(21,85,o),
(35,111,o),
(67,130,c)
);
}
);
width = 543;
}
);
},
{
color = (153, 255, 154, 255);
glyphname = g.77;
layers = (
{
layerId = "A410FBA5-8D09-49B2-9E86-D368B18AE5F7";
shapes = (
{
closed = 1;
nodes = (
(-497,-291,l),
(-647,-418,o),
(-841,-494,o),
(-1052,-494,cs),
(-1528,-494,o),
(-1915,-107,o),
(-1915,369,cs),
(-1915,845,o),
(-1528,1232,o),
(-1052,1232,cs),
(-513,1232,o),
(-111,629,o),
(274,500,c),
(271,500,o),
(269,500,o),
(266,500,cs),
(156,498,o),
(28,461,o),
(28,327,cs),
(28,246,o),
(73,201,o),
(132,178,c),
(56,162,o),
(-4,126,o),
(-4,57,cs),
(-4,16,o),
(12,-12,o),
(37,-31,c),
(19,-38,o),
(3,-74,o),
(3,-104,cs),
(3,-178,o),
(48,-255,o),
(267,-255,cs),
(469,-255,o),
(560,-155,o),
(560,-61,cs),
(560,24,o),
(493,104,o),
(365,104,cs),
(306,104,o),
(245,95,o),
(194,97,cs),
(134,99,o),
(92,107,o),
(92,139,cs),
(92,161,o),
(117,170,o),
(148,172,c),
(185,160,o),
(228,156,o),
(268,156,cs),
(394,156,o),
(520,190,o),
(520,329,cs),
(520,407,o),
(470,452,o),
(408,476,c),
(410,476,o),
(411,476,o),
(412,476,c),
(607,476,o),
(758,637,o),
(758,831,cs),
(758,1026,o),
(601,1183,o),
(406,1183,cs),
(299,1183,o),
(203,1136,o),
(139,1061,c),
(145,1060,l),
(206,1132,o),
(299,1177,o),
(406,1177,cs),
(598,1177,o),
(745,1034,o),
(745,842,cs),
(745,651,o),
(585,495,o),
(393,495,cs),
(-29,495,o),
(-445,1238,o),
(-1052,1238,cs),
(-1532,1238,o),
(-1921,849,o),
(-1921,369,cs),
(-1921,-111,o),
(-1532,-500,o),
(-1052,-500,cs),
(-839,-500,o),
(-643,-423,o),
(-492,-295,c)
);
},
{
closed = 1;
nodes = (
(143,-66,o),
(165,-67,o),
(185,-67,cs),
(252,-67,o),
(294,-60,o),
(361,-60,cs),
(433,-60,o),
(484,-71,o),
(484,-133,cs),
(484,-189,o),
(434,-249,o),
(267,-249,cs),
(102,-249,o),
(46,-190,o),
(46,-139,cs),
(46,-100,o),
(80,-65,o),
(122,-63,c)
);
},
{
closed = 1;
nodes = (
(222,164,o),
(200,245,o),
(200,328,cs),
(200,411,o),
(224,492,o),
(270,492,cs),
(317,492,o),
(339,409,o),
(339,328,cs),
(339,247,o),
(315,164,o),
(268,164,cs)
);
},
{
closed = 1;
nodes = (
(101,211,o),
(55,265,o),
(55,327,cs),
(55,401,o),
(100,437,o),
(151,455,c),
(110,431,o),
(77,388,o),
(77,327,cs),
(77,277,o),
(112,217,o),
(159,194,c)
);
},
{
closed = 1;
nodes = (
(368,359,o),
(361,425,o),
(342,468,c),
(382,428,o),
(390,391,o),
(390,327,cs),
(390,281,o),
(373,228,o),
(335,188,c),
(356,222,o),
(368,274,o),
(368,327,cs)
);
},
{
closed = 1;
nodes = (
(381,-30,l),
(446,-24,o),
(524,-38,o),
(524,-103,cs),
(524,-115,o),
(517,-125,o),
(511,-130,c),
(511,-68,o),
(461,-33,o),
(373,-33,c)
);
},
{
closed = 1;
nodes = (
(49,107,o),
(42,87,o),
(42,58,cs),
(42,25,o),
(55,7,o),
(75,-7,c),
(44,3,o),
(21,25,o),
(21,58,cs),
(21,85,o),
(35,111,o),
(67,130,c)
);
}
);
width = 543;
}
);
},
{
color = (153, 255, 154, 255);
glyphname = g.7777;
layers = (
{
layerId = "A410FBA5-8D09-49B2-9E86-D368B18AE5F7";
shapes = (
{
closed = 1;
nodes = (
(1329,-296,l),
(1480,-424,o),
(1676,-501,o),
(1889,-501,cs),
(2369,-501,o),
(2758,-112,o),
(2758,368,cs),
(2758,848,o),
(2369,1237,o),
(1889,1237,cs),
(1282,1237,o),
(866,494,o),
(444,494,cs),
(252,494,o),
(92,650,o),
(92,841,cs),
(92,1033,o),
(239,1176,o),
(431,1176,cs),
(538,1176,o),
(631,1131,o),
(692,1059,c),
(698,1060,l),
(634,1135,o),
(538,1182,o),
(431,1182,cs),
(236,1182,o),
(79,1025,o),
(79,830,cs),
(79,681,o),
(168,551,o),
(299,499,c),
(289,500,o),
(279,500,o),
(270,500,cs),
(171,500,o),
(28,468,o),
(28,327,cs),
(28,246,o),
(73,201,o),
(132,178,c),
(56,162,o),
(-4,126,o),
(-4,57,cs),
(-4,16,o),
(12,-12,o),
(37,-31,c),
(19,-38,o),
(3,-74,o),
(3,-104,cs),
(3,-178,o),
(48,-255,o),
(267,-255,cs),
(469,-255,o),
(560,-155,o),
(560,-61,cs),
(560,24,o),
(493,104,o),
(365,104,cs),
(306,104,o),
(245,95,o),
(194,97,cs),
(134,99,o),
(92,107,o),
(92,139,cs),
(92,161,o),
(117,170,o),
(148,172,c),
(185,160,o),
(228,156,o),
(268,156,cs),
(394,156,o),
(520,190,o),
(520,329,cs),
(520,406,o),
(471,451,o),
(410,475,c),
(415,475,o),
(420,475,o),
(425,475,cs),
(854,475,o),
(1286,1231,o),
(1889,1231,cs),
(2365,1231,o),
(2752,844,o),
(2752,368,cs),
(2752,-108,o),
(2365,-495,o),
(1889,-495,cs),
(1678,-495,o),
(1484,-419,o),
(1334,-292,c)
);
},
{
closed = 1;
nodes = (
(143,-66,o),
(165,-67,o),
(185,-67,cs),
(252,-67,o),
(294,-60,o),
(361,-60,cs),
(433,-60,o),
(484,-71,o),
(484,-133,cs),
(484,-189,o),
(434,-251,o),
(267,-251,cs),
(102,-251,o),
(46,-190,o),
(46,-139,cs),
(46,-100,o),
(80,-65,o),
(122,-63,c)
);
},
{
closed = 1;
nodes = (
(222,164,o),
(200,245,o),
(200,328,cs),
(200,411,o),
(224,492,o),
(270,492,cs),
(317,492,o),
(339,409,o),
(339,328,cs),
(339,247,o),
(315,164,o),
(268,164,cs)
);
},
{
closed = 1;
nodes = (
(101,211,o),
(55,265,o),
(55,327,cs),
(55,401,o),
(100,437,o),
(151,455,c),
(110,431,o),
(77,388,o),
(77,327,cs),
(77,277,o),
(112,217,o),
(159,194,c)
);
},
{
closed = 1;
nodes = (
(368,359,o),
(361,425,o),
(342,468,c),
(382,428,o),
(390,391,o),
(390,327,cs),
(390,281,o),
(373,228,o),
(335,188,c),
(356,222,o),
(368,274,o),
(368,327,cs)
);
},
{
closed = 1;
nodes = (
(381,-30,l),
(446,-24,o),
(524,-38,o),
(524,-103,cs),
(524,-115,o),
(517,-125,o),
(511,-130,c),
(511,-68,o),
(461,-33,o),
(373,-33,c)
);
},
{
closed = 1;
nodes = (
(49,107,o),
(42,87,o),
(42,58,cs),
(42,25,o),
(55,7,o),
(75,-7,c),
(44,3,o),
(21,25,o),
(21,58,cs),
(21,85,o),
(35,111,o),
(67,130,c)
);
}
);
width = 540;
}
);
},
{
color = (154, 153, 255, 255);
glyphname = g.778;
layers = (
{
guides = (
{
angle = 90;
position = "{273, 0}";
}
);
layerId = "A410FBA5-8D09-49B2-9E86-D368B18AE5F7";
shapes = (
{
closed = 1;
nodes = (
(1451,-194,l),
(1569,-314,o),
(1732,-387,o),
(1914,-387,cs),
(2274,-387,o),
(2565,-97,o),
(2565,263,cs),
(2565,623,o),
(2274,914,o),
(1914,914,cs),
(1519,914,o),
(1271,554,o),
(927,114,cs),
(754,-107,o),
(520,-260,o),
(308,-260,cs),
(112,-260,o),
(15,-129,o),
(15,-14,cs),
(15,60,o),
(53,135,o),
(123,180,c),
(166,162,o),
(218,156,o),
(266,156,cs),
(321,156,o),
(376,162,o),
(421,181,c),
(447,165,o),
(469,146,o),
(487,122,c),
(493,122,l),
(476,146,o),
(453,167,o),
(427,184,c),
(481,209,o),
(518,254,o),
(518,329,cs),
(518,407,o),
(468,452,o),
(406,476,c),
(408,476,o),
(410,476,o),
(412,476,c),
(607,476,o),
(758,637,o),
(758,831,cs),
(758,1026,o),
(605,1183,o),
(406,1183,cs),
(299,1183,o),
(203,1136,o),
(139,1061,c),
(145,1060,l),
(206,1132,o),
(299,1177,o),
(406,1177,cs),
(598,1177,o),
(745,1034,o),
(745,842,cs),
(745,651,o),
(585,495,o),
(393,495,cs),
(369,495,o),
(344,497,o),
(320,502,c),
(343,533,o),
(356,565,o),
(356,600,cs),
(356,656,o),
(318,679,o),
(277,679,cs),
(236,679,o),
(206,656,o),
(206,621,cs),
(206,594,o),
(224,564,o),
(276,564,cs),
(289,564,o),
(309,568,o),
(326,577,c),
(326,553,o),
(322,530,o),
(308,505,c),
(-86,592,o),
(-486,1238,o),
(-1052,1238,cs),
(-1532,1238,o),
(-1921,849,o),
(-1921,369,cs),
(-1921,-111,o),
(-1532,-500,o),
(-1052,-500,cs),
(-839,-500,o),
(-643,-423,o),
(-492,-295,c),
(-497,-289,l),
(-647,-416,o),
(-841,-492,o),
(-1052,-492,cs),
(-1528,-492,o),
(-1915,-106,o),
(-1915,369,cs),
(-1915,845,o),
(-1528,1232,o),
(-1052,1232,cs),
(-513,1232,o),
(-111,629,o),
(275,500,c),
(162,500,o),
(26,466,o),
(26,327,cs),
(26,253,o),
(63,209,o),
(115,184,c),
(22,127,o),
(-33,22,o),
(-33,-86,cs),
(-33,-253,o),
(100,-406,o),
(301,-406,cs),
(551,-406,o),
(747,-147,o),
(976,156,cs),
(1300,585,o),
(1548,908,o),
(1914,908,cs),
(2270,908,o),
(2559,619,o),
(2559,263,cs),
(2559,-93,o),
(2270,-381,o),
(1914,-381,cs),
(1734,-381,o),
(1571,-308,o),
(1455,-190,c)
);
},
{
closed = 1;
nodes = (
(231,654,o),
(268,658,o),
(290,655,c),
(270,655,o),
(251,640,o),
(251,622,cs),
(251,607,o),
(263,589,o),
(283,589,c),
(261,585,o),
(231,592,o),
(231,622,cs)
);
},
{
closed = 1;
nodes = (
(258,438,l),
(274,452,o),
(288,465,o),
(300,478,c),
(325,450,o),
(337,388,o),
(337,328,cs),
(337,291,o),
(332,253,o),
(322,223,c),
(305,226,o),
(288,227,o),
(270,227,cs),
(250,227,o),
(231,226,o),
(212,222,c),
(203,252,o),
(198,290,o),
(198,328,cs),
(198,412,o),
(222,494,o),
(268,494,cs),
(278,494,o),
(286,491,o),
(294,484,c),
(283,470,o),
(270,454,o),
(252,438,c)
);
},
{
closed = 1;
nodes = (
(368,359,o),
(361,425,o),
(342,468,c),
(382,428,o),
(390,391,o),
(390,327,cs),
(390,291,o),
(380,251,o),
(357,216,c),
(355,217,o),
(351,216,o),
(349,217,c),
(361,248,o),
(368,288,o),
(368,327,cs)
);
},
{
closed = 1;
nodes = (
(94,221,o),
(55,271,o),
(55,327,cs),
(55,401,o),
(100,437,o),
(151,455,c),
(110,431,o),
(77,388,o),
(77,327,cs),
(77,281,o),
(106,228,o),
(147,201,c),
(146,201,o),
(145,200,o),
(144,200,c)
);
},
{
closed = 1;
nodes = (
(232,219,o),
(250,221,o),
(270,221,cs),
(287,221,o),
(304,220,o),
(320,217,c),
(308,184,o),
(290,162,o),
(266,162,cs),
(242,162,o),
(225,184,o),
(214,216,c)
);
},
{
closed = 1;
nodes = (
(339,195,o),
(343,203,o),
(347,212,c),
(349,211,o),
(351,211,o),
(353,210,c),
(348,202,o),
(342,195,o),
(335,188,c)
);
},
{
closed = 1;
nodes = (
(157,195,o),
(154,195,o),
(152,196,c),
(154,197,l),
(156,196,o),
(157,195,o),
(159,194,c)
);
},
{
closed = 1;
nodes = (
(727,-115,l),
(602,-229,o),
(466,-312,o),
(308,-312,cs),
(166,-312,o),
(32,-246,o),
(-9,-65,c),
(-7,-63,l),
(33,-231,o),
(183,-290,o),
(308,-290,cs),
(465,-290,o),
(601,-217,o),
(724,-113,c)
);
}
);
width = 540;
}
);
},
{
color = (255, 153, 153, 255);
glyphname = g.777;
layers = (
{
guides = (
{
angle = 90;
position = "{273, 0}";
}
);
layerId = "A410FBA5-8D09-49B2-9E86-D368B18AE5F7";
shapes = (
{
closed = 1;
nodes = (
(321,156,o),
(376,162,o),
(421,181,c),
(447,165,o),
(469,146,o),
(487,122,c),
(493,122,l),
(476,146,o),
(453,167,o),
(427,184,c),
(481,209,o),
(518,254,o),
(518,329,cs),
(518,443,o),
(411,486,o),
(316,497,c),
(342,530,o),
(356,564,o),
(356,600,cs),
(356,656,o),
(318,679,o),
(277,679,cs),
(236,679,o),
(206,656,o),
(206,621,cs),
(206,594,o),
(224,564,o),
(276,564,cs),
(289,564,o),
(309,568,o),
(326,577,c),
(326,551,o),
(320,525,o),
(304,498,c),
(291,499,o),
(280,500,o),
(268,500,cs),
(169,500,o),
(26,468,o),
(26,327,cs),
(26,253,o),
(63,209,o),
(115,184,c),
(22,127,o),
(-33,22,o),
(-33,-86,cs),
(-33,-253,o),
(100,-406,o),
(301,-406,cs),
(551,-406,o),
(747,-147,o),
(976,156,cs),
(1300,585,o),
(1548,908,o),
(1914,908,cs),
(2270,908,o),
(2559,619,o),
(2559,263,cs),
(2559,-93,o),
(2270,-381,o),
(1914,-381,cs),
(1734,-381,o),
(1571,-308,o),
(1455,-190,c),
(1451,-194,l),
(1569,-314,o),
(1732,-387,o),
(1914,-387,cs),
(2274,-387,o),
(2565,-97,o),
(2565,263,cs),
(2565,623,o),
(2274,914,o),
(1914,914,cs),
(1519,914,o),
(1271,554,o),
(927,114,cs),
(754,-107,o),
(520,-260,o),
(308,-260,cs),
(112,-260,o),
(15,-129,o),
(15,-14,cs),
(15,60,o),
(53,135,o),
(123,180,c),
(166,162,o),
(218,156,o),
(266,156,cs)
);
},
{
closed = 1;
nodes = (
(231,654,o),
(268,658,o),
(290,655,c),
(270,655,o),
(251,640,o),
(251,622,cs),
(251,607,o),
(263,589,o),
(283,589,c),
(261,585,o),
(231,592,o),
(231,622,cs)
);
},
{
closed = 1;
nodes = (
(258,438,l),
(274,452,o),
(288,465,o),
(300,478,c),
(325,450,o),
(337,388,o),
(337,328,cs),
(337,291,o),
(332,253,o),
(322,223,c),
(305,226,o),
(288,227,o),
(270,227,cs),
(250,227,o),
(231,226,o),
(212,222,c),
(203,252,o),
(198,290,o),
(198,328,cs),
(198,412,o),
(222,494,o),
(268,494,cs),
(278,494,o),
(286,491,o),
(294,484,c),
(283,470,o),
(270,454,o),
(252,438,c)
);
},
{
closed = 1;
nodes = (
(368,359,o),
(361,425,o),
(342,468,c),
(382,428,o),
(390,391,o),
(390,327,cs),
(390,291,o),
(380,251,o),
(357,216,c),
(355,217,o),
(351,216,o),
(349,217,c),
(361,248,o),
(368,288,o),
(368,327,cs)
);
},
{
closed = 1;
nodes = (
(80,221,o),
(55,270,o),
(55,327,cs),
(55,401,o),
(100,437,o),
(151,455,c),
(110,431,o),
(77,388,o),
(77,327,cs),
(77,281,o),
(106,228,o),
(147,201,c),
(146,200,o),
(143,200,o),
(142,199,c)
);
},
{
closed = 1;
nodes = (
(232,219,o),
(250,221,o),
(270,221,cs),
(287,221,o),
(304,220,o),
(320,217,c),
(308,184,o),
(290,162,o),
(266,162,cs),
(242,162,o),
(225,184,o),
(214,216,c)
);
},
{
closed = 1;
nodes = (
(339,195,o),
(343,203,o),
(347,212,c),
(349,211,o),
(351,211,o),
(353,210,c),
(348,202,o),
(342,195,o),
(335,188,c)
);
},
{
closed = 1;
nodes = (
(157,195,o),
(154,195,o),
(152,196,c),
(154,197,l),
(156,196,o),
(157,195,o),
(159,194,c)
);
},
{
closed = 1;
nodes = (
(727,-115,l),
(602,-229,o),
(466,-312,o),
(308,-312,cs),
(166,-312,o),
(32,-246,o),
(-9,-65,c),
(-7,-63,l),
(33,-231,o),
(183,-290,o),
(308,-290,cs),
(465,-290,o),
(601,-217,o),
(724,-113,c)
);
}
);
width = 546;
}
);
},
{
color = (153, 255, 154, 255);
glyphname = g.77.acc;
layers = (
{
layerId = "A410FBA5-8D09-49B2-9E86-D368B18AE5F7";
shapes = (
{
closed = 1;
nodes = (
(-497,-291,l),
(-647,-418,o),
(-841,-494,o),
(-1052,-494,cs),
(-1528,-494,o),
(-1915,-107,o),
(-1915,369,cs),
(-1915,845,o),
(-1528,1181,o),
(-1052,1181,cs),
(-516,1181,o),
(-115,623,o),
(269,500,c),
(170,500,o),
(28,468,o),
(28,327,cs),
(28,246,o),
(73,201,o),
(132,178,c),
(56,162,o),
(-4,126,o),
(-4,57,cs),
(-4,16,o),
(12,-12,o),
(37,-31,c),
(19,-38,o),
(3,-74,o),
(3,-104,cs),
(3,-178,o),
(48,-255,o),
(267,-255,cs),
(469,-255,o),
(560,-155,o),
(560,-61,cs),
(560,24,o),
(493,104,o),
(365,104,cs),
(306,104,o),
(245,95,o),
(194,97,cs),
(134,99,o),
(92,107,o),
(92,139,cs),
(92,161,o),
(117,170,o),
(148,172,c),
(185,160,o),
(228,156,o),
(268,156,cs),
(394,156,o),
(520,190,o),
(520,329,cs),
(520,407,o),
(470,452,o),
(408,476,c),
(410,476,o),
(411,476,o),
(412,476,c),
(607,476,o),
(758,637,o),
(758,831,cs),
(758,1026,o),
(601,1183,o),
(406,1183,cs),
(299,1183,o),
(203,1136,o),
(139,1061,c),
(145,1060,l),
(206,1132,o),
(299,1177,o),
(406,1177,cs),
(598,1177,o),
(745,1034,o),
(745,842,cs),
(745,651,o),
(585,495,o),
(393,495,cs),
(-109,495,o),
(-445,1341,o),
(-1052,1341,cs),
(-1532,1341,o),
(-1921,849,o),
(-1921,369,cs),
(-1921,-111,o),
(-1532,-500,o),
(-1052,-500,cs),
(-839,-500,o),
(-643,-423,o),
(-492,-295,c)
);
},
{
closed = 1;
nodes = (
(143,-66,o),
(165,-67,o),
(185,-67,cs),
(252,-67,o),
(294,-60,o),
(361,-60,cs),
(433,-60,o),
(484,-71,o),
(484,-133,cs),
(484,-189,o),
(434,-251,o),
(267,-251,cs),
(102,-251,o),
(46,-190,o),
(46,-139,cs),
(46,-100,o),
(80,-65,o),
(122,-63,c)
);
},
{
closed = 1;
nodes = (
(222,164,o),
(200,245,o),
(200,328,cs),
(200,411,o),
(224,492,o),
(270,492,cs),
(317,492,o),
(339,409,o),
(339,328,cs),
(339,247,o),
(315,164,o),
(268,164,cs)
);
},
{
closed = 1;
nodes = (
(101,211,o),
(55,265,o),
(55,327,cs),
(55,401,o),
(100,437,o),
(151,455,c),
(110,431,o),
(77,388,o),
(77,327,cs),
(77,277,o),
(112,217,o),
(159,194,c)
);
},
{
closed = 1;
nodes = (
(368,359,o),
(361,425,o),
(342,468,c),
(382,428,o),
(390,391,o),
(390,327,cs),
(390,281,o),
(373,228,o),
(335,188,c),
(356,222,o),
(368,274,o),
(368,327,cs)
);
},
{
closed = 1;
nodes = (
(381,-30,l),
(446,-24,o),
(524,-38,o),
(524,-103,cs),
(524,-115,o),
(517,-125,o),
(511,-130,c),
(511,-68,o),
(461,-33,o),
(373,-33,c)
);
},
{
closed = 1;
nodes = (
(49,107,o),
(42,87,o),
(42,58,cs),
(42,25,o),
(55,7,o),
(75,-7,c),
(44,3,o),
(21,25,o),
(21,58,cs),
(21,85,o),
(35,111,o),
(67,130,c)
);
},
{
closed = 1;
nodes = (
(-1593,1049,l),
(-1444,1168,o),
(-1256,1235,o),
(-1052,1235,cs),
(-873,1235,o),
(-709,1167,o),
(-556,1069,c),
(-556,1067,l),
(-709,1151,o),
(-873,1211,o),
(-1052,1211,cs),
(-1256,1211,o),
(-1444,1150,o),
(-1591,1047,c)
);
}
);
width = 543;
}
);
},
{
color = (153, 255, 154, 255);
glyphname = g.7777.acc;
layers = (
{
layerId = "A410FBA5-8D09-49B2-9E86-D368B18AE5F7";
shapes = (
{
closed = 1;
nodes = (
(1329,-296,l),
(1480,-424,o),
(1676,-501,o),
(1889,-501,cs),
(2369,-501,o),
(2758,-112,o),
(2758,368,cs),
(2758,848,o),
(2369,1342,o),
(1889,1342,cs),
(1282,1342,o),
(955,494,o),
(444,494,cs),
(252,494,o),
(92,650,o),
(92,841,cs),
(92,1033,o),
(239,1176,o),
(431,1176,cs),
(538,1176,o),
(631,1131,o),
(692,1059,c),
(698,1060,l),
(634,1135,o),
(538,1182,o),
(431,1182,cs),
(236,1182,o),
(79,1025,o),
(79,830,cs),
(79,681,o),
(168,551,o),
(299,499,c),
(289,500,o),
(279,500,o),
(270,500,cs),
(171,500,o),
(28,468,o),
(28,327,cs),
(28,246,o),
(73,201,o),
(132,178,c),
(56,162,o),
(-4,126,o),
(-4,57,cs),
(-4,16,o),
(12,-12,o),
(37,-31,c),
(19,-38,o),
(3,-74,o),
(3,-104,cs),
(3,-178,o),
(48,-255,o),
(267,-255,cs),
(469,-255,o),
(560,-155,o),
(560,-61,cs),
(560,24,o),
(493,104,o),
(365,104,cs),
(306,104,o),
(245,95,o),
(194,97,cs),
(134,99,o),
(92,107,o),
(92,139,cs),
(92,161,o),
(117,170,o),
(148,172,c),
(185,160,o),
(228,156,o),
(268,156,cs),
(394,156,o),
(520,190,o),
(520,329,cs),
(520,406,o),
(471,451,o),
(410,475,c),
(415,475,o),
(420,475,o),
(425,475,cs),
(854,475,o),
(1286,1182,o),
(1889,1182,cs),
(2365,1182,o),
(2752,844,o),
(2752,368,cs),
(2752,-108,o),
(2365,-495,o),
(1889,-495,cs),
(1678,-495,o),
(1484,-419,o),
(1334,-292,c)
);
},
{
closed = 1;
nodes = (
(143,-66,o),
(165,-67,o),
(185,-67,cs),
(252,-67,o),
(294,-60,o),
(361,-60,cs),
(433,-60,o),
(484,-71,o),
(484,-133,cs),
(484,-189,o),
(434,-251,o),
(267,-251,cs),
(102,-251,o),
(46,-190,o),
(46,-139,cs),
(46,-100,o),
(80,-65,o),
(122,-63,c)
);
},
{
closed = 1;
nodes = (
(222,164,o),
(200,245,o),
(200,328,cs),
(200,411,o),
(224,492,o),
(270,492,cs),
(317,492,o),
(339,409,o),
(339,328,cs),
(339,247,o),
(315,164,o),
(268,164,cs)
);
},
{
closed = 1;
nodes = (
(101,211,o),
(55,265,o),
(55,327,cs),
(55,401,o),
(100,437,o),
(151,455,c),
(110,431,o),
(77,388,o),
(77,327,cs),
(77,277,o),
(112,217,o),
(159,194,c)
);
},
{
closed = 1;
nodes = (
(368,359,o),
(361,425,o),
(342,468,c),
(382,428,o),
(390,391,o),
(390,327,cs),
(390,281,o),
(373,228,o),
(335,188,c),
(356,222,o),
(368,274,o),
(368,327,cs)
);
},
{
closed = 1;
nodes = (
(381,-30,l),
(446,-24,o),
(524,-38,o),
(524,-103,cs),
(524,-115,o),
(517,-125,o),
(511,-130,c),
(511,-68,o),
(461,-33,o),
(373,-33,c)
);
},
{
closed = 1;
nodes = (
(49,107,o),
(42,87,o),
(42,58,cs),
(42,25,o),
(55,7,o),
(75,-7,c),
(44,3,o),
(21,25,o),
(21,58,cs),
(21,85,o),
(35,111,o),
(67,130,c)
);
},
{
closed = 1;
nodes = (
(1377,1050,l),
(1529,1163,o),
(1695,1236,o),
(1888,1236,cs),
(2067,1236,o),
(2238,1174,o),
(2391,1070,c),
(2391,1068,l),
(2238,1158,o),
(2079,1212,o),
(1888,1212,cs),
(1695,1212,o),
(1529,1145,o),
(1379,1048,c)
);
}
);
width = 540;
}
);
},
{
color = (154, 153, 255, 255);
glyphname = g.778.acc;
layers = (
{
guides = (
{
angle = 90;
position = "{273, 0}";
}
);
layerId = "A410FBA5-8D09-49B2-9E86-D368B18AE5F7";
shapes = (
{
closed = 1;
nodes = (
(321,156,o),
(376,163,o),
(421,182,c),
(447,166,o),
(470,145,o),
(488,121,c),
(493,122,l),
(476,146,o),
(454,168,o),
(428,185,c),
(481,210,o),
(518,254,o),
(518,329,cs),
(518,407,o),
(468,452,o),
(406,476,c),
(408,476,o),
(410,476,o),
(412,476,c),
(607,476,o),
(758,637,o),
(758,831,cs),
(758,1026,o),
(605,1183,o),
(406,1183,cs),
(299,1183,o),
(203,1136,o),
(139,1061,c),
(146,1058,l),
(207,1131,o),
(299,1177,o),
(406,1177,cs),
(598,1177,o),
(745,1034,o),
(745,842,cs),
(745,651,o),
(585,495,o),
(393,495,cs),
(368,495,o),
(343,497,o),
(319,501,c),
(343,533,o),
(356,565,o),
(356,600,cs),
(356,656,o),
(318,679,o),
(277,679,cs),
(236,679,o),
(206,656,o),
(206,621,cs),
(206,594,o),
(224,564,o),
(276,564,cs),
(289,564,o),
(309,568,o),
(326,577,c),
(326,552,o),
(321,529,o),
(307,503,c),
(-157,589,o),
(-480,1341,o),
(-1052,1341,cs),
(-1532,1341,o),
(-1921,849,o),
(-1921,369,cs),
(-1921,-111,o),
(-1532,-500,o),
(-1052,-500,cs),
(-839,-500,o),
(-643,-423,o),
(-492,-295,c),
(-496,-290,l),
(-646,-417,o),
(-841,-494,o),
(-1052,-494,cs),
(-1528,-494,o),
(-1915,-107,o),
(-1915,369,cs),
(-1915,845,o),
(-1528,1181,o),
(-1052,1181,cs),
(-516,1181,o),
(-115,623,o),
(268,500,c),
(169,500,o),
(26,468,o),
(26,327,cs),
(26,254,o),
(62,210,o),
(113,185,c),
(21,128,o),
(-33,22,o),
(-33,-86,cs),
(-33,-253,o),
(100,-406,o),
(301,-406,cs),
(551,-406,o),
(738,-149,o),
(967,154,cs),
(1291,583,o),
(1548,820,o),
(1914,820,cs),
(2270,820,o),
(2559,619,o),
(2559,263,cs),
(2559,-93,o),
(2270,-381,o),
(1914,-381,cs),
(1733,-381,o),
(1570,-307,o),
(1453,-188,c),
(1451,-194,l),
(1569,-314,o),
(1732,-387,o),
(1914,-387,cs),
(2274,-387,o),
(2565,-97,o),
(2565,263,cs),
(2565,623,o),
(2274,948,o),
(1914,948,cs),
(1519,948,o),
(1271,554,o),
(927,114,cs),
(754,-107,o),
(520,-260,o),
(308,-260,cs),
(112,-260,o),
(15,-129,o),
(15,-14,cs),
(15,60,o),
(53,136,o),
(122,181,c),
(165,162,o),
(217,156,o),
(266,156,cs)
);
},
{
closed = 1;
nodes = (
(-1593,1049,l),
(-1444,1168,o),
(-1256,1235,o),
(-1052,1235,cs),
(-873,1235,o),
(-709,1167,o),
(-556,1069,c),
(-556,1067,l),
(-709,1151,o),
(-873,1211,o),
(-1052,1211,cs),
(-1256,1211,o),
(-1444,1150,o),
(-1591,1047,c)
);
},
{
closed = 1;
nodes = (
(1404,666,l),
(1555,793,o),
(1721,874,o),
(1914,874,cs),
(2072,874,o),
(2224,815,o),
(2363,713,c),
(2362,710,l),
(2226,798,o),
(2082,850,o),
(1914,850,cs),
(1721,850,o),
(1555,774,o),
(1406,664,c)
);
},
{
closed = 1;
nodes = (
(231,654,o),
(268,658,o),
(290,655,c),
(270,655,o),
(251,640,o),
(251,622,cs),
(251,607,o),
(263,589,o),
(283,589,c),
(261,585,o),
(231,592,o),
(231,622,cs)
);
},
{
closed = 1;
nodes = (
(258,438,l),
(274,452,o),
(288,465,o),
(300,478,c),
(325,450,o),
(337,388,o),
(337,328,cs),
(337,291,o),
(332,255,o),
(323,225,c),
(306,228,o),
(288,229,o),
(270,229,cs),
(250,229,o),
(230,227,o),
(211,223,c),
(202,253,o),
(198,290,o),
(198,328,cs),
(198,412,o),
(222,494,o),
(268,494,cs),
(278,494,o),
(286,491,o),
(294,484,c),
(283,470,o),
(270,454,o),
(252,438,c)
);
},
{
closed = 1;
nodes = (
(368,359,o),
(361,425,o),
(342,468,c),
(382,428,o),
(390,391,o),
(390,327,cs),
(390,291,o),
(380,252,o),
(358,217,c),
(355,218,o),
(353,218,o),
(350,219,c),
(362,250,o),
(368,288,o),
(368,327,cs)
);
},
{
closed = 1;
nodes = (
(142,200,l),
(93,222,o),
(55,271,o),
(55,327,cs),
(55,401,o),
(100,437,o),
(151,455,c),
(110,431,o),
(77,388,o),
(77,327,cs),
(77,282,o),
(105,229,o),
(145,202,c)
);
},
{
closed = 1;
nodes = (
(231,221,o),
(250,223,o),
(270,223,cs),
(287,223,o),
(305,222,o),
(321,219,c),
(309,185,o),
(291,162,o),
(266,162,cs),
(242,162,o),
(224,185,o),
(213,218,c)
);
},
{
closed = 1;
nodes = (
(340,196,o),
(344,204,o),
(348,213,c),
(350,212,o),
(352,212,o),
(354,211,c),
(348,203,o),
(342,195,o),
(335,188,c)
);
},
{
closed = 1;
nodes = (
(727,-115,l),
(602,-229,o),
(466,-312,o),
(308,-312,cs),
(166,-312,o),
(32,-246,o),
(-9,-65,c),
(-7,-63,l),
(33,-231,o),
(183,-290,o),
(308,-290,cs),
(465,-290,o),
(601,-217,o),
(724,-113,c)
);
}
);
width = 540;
}
);
},
{
color = (255, 153, 153, 255);
glyphname = g.777.acc;
layers = (
{
guides = (
{
angle = 90;
position = "{273, 0}";
}
);
layerId = "A410FBA5-8D09-49B2-9E86-D368B18AE5F7";
shapes = (
{
closed = 1;
nodes = (
(321,156,o),
(376,163,o),
(421,182,c),
(447,166,o),
(470,145,o),
(488,121,c),
(493,122,l),
(476,146,o),
(454,168,o),
(428,185,c),
(481,210,o),
(518,254,o),
(518,329,cs),
(518,443,o),
(411,486,o),
(316,497,c),
(342,530,o),
(356,564,o),
(356,600,cs),
(356,656,o),
(318,679,o),
(277,679,cs),
(236,679,o),
(206,656,o),
(206,621,cs),
(206,594,o),
(224,564,o),
(276,564,cs),
(289,564,o),
(309,568,o),
(326,577,c),
(326,551,o),
(320,525,o),
(304,498,c),
(291,499,o),
(280,500,o),
(268,500,cs),
(169,500,o),
(26,468,o),
(26,327,cs),
(26,254,o),
(62,210,o),
(113,185,c),
(21,128,o),
(-33,22,o),
(-33,-86,cs),
(-33,-253,o),
(100,-406,o),
(301,-406,cs),
(551,-406,o),
(738,-149,o),
(967,154,cs),
(1291,583,o),
(1548,820,o),
(1914,820,cs),
(2270,820,o),
(2559,619,o),
(2559,263,cs),
(2559,-93,o),
(2270,-381,o),
(1914,-381,cs),
(1733,-381,o),
(1570,-307,o),
(1453,-188,c),
(1451,-194,l),
(1569,-314,o),
(1732,-387,o),
(1914,-387,cs),
(2274,-387,o),
(2565,-97,o),
(2565,263,cs),
(2565,623,o),
(2274,948,o),
(1914,948,cs),
(1519,948,o),
(1271,554,o),
(927,114,cs),
(754,-107,o),
(520,-260,o),
(308,-260,cs),
(112,-260,o),
(15,-129,o),
(15,-14,cs),
(15,60,o),
(53,136,o),
(122,181,c),
(165,162,o),
(217,156,o),
(266,156,cs)
);
},
{
closed = 1;
nodes = (
(1404,666,l),
(1555,793,o),
(1721,874,o),
(1914,874,cs),
(2072,874,o),
(2224,815,o),
(2363,713,c),
(2362,710,l),
(2226,798,o),
(2082,850,o),
(1914,850,cs),
(1721,850,o),
(1555,774,o),
(1406,664,c)
);
},
{
closed = 1;
nodes = (
(231,654,o),
(268,658,o),
(290,655,c),
(270,655,o),
(251,640,o),
(251,622,cs),
(251,607,o),
(263,589,o),
(283,589,c),
(261,585,o),
(231,592,o),
(231,622,cs)
);
},
{
closed = 1;
nodes = (
(258,438,l),
(274,452,o),
(288,465,o),
(300,478,c),
(325,450,o),
(337,388,o),
(337,328,cs),
(337,291,o),
(332,255,o),
(323,225,c),
(306,228,o),
(288,229,o),
(270,229,cs),
(250,229,o),
(230,227,o),
(211,223,c),
(202,253,o),
(198,290,o),
(198,328,cs),
(198,412,o),
(222,494,o),
(268,494,cs),
(278,494,o),
(286,491,o),
(294,484,c),
(283,470,o),
(270,454,o),
(252,438,c)
);
},
{
closed = 1;
nodes = (
(368,359,o),
(361,425,o),
(342,468,c),
(382,428,o),
(390,391,o),
(390,327,cs),
(390,291,o),
(380,252,o),
(358,217,c),
(355,218,o),
(353,218,o),
(350,219,c),
(362,250,o),
(368,288,o),
(368,327,cs)
);
},
{
closed = 1;
nodes = (
(142,200,l),
(93,222,o),
(55,271,o),
(55,327,cs),
(55,401,o),
(100,437,o),
(151,455,c),
(110,431,o),
(77,388,o),
(77,327,cs),
(77,282,o),
(105,229,o),
(145,202,c)
);
},
{
closed = 1;
nodes = (
(231,221,o),
(250,223,o),
(270,223,cs),
(287,223,o),
(305,222,o),
(321,219,c),
(309,185,o),
(291,162,o),
(266,162,cs),
(242,162,o),
(224,185,o),
(213,218,c)
);
},
{
closed = 1;
nodes = (
(340,196,o),
(344,204,o),
(348,213,c),
(350,212,o),
(352,212,o),
(354,211,c),
(348,203,o),
(342,195,o),
(335,188,c)
);
},
{
closed = 1;
nodes = (
(727,-115,l),
(602,-229,o),
(466,-312,o),
(308,-312,cs),
(166,-312,o),
(32,-246,o),
(-9,-65,c),
(-7,-63,l),
(33,-231,o),
(183,-290,o),
(308,-290,cs),
(465,-290,o),
(601,-217,o),
(724,-113,c)
);
}
);
width = 546;
}
);
},
{
color = (255, 153, 153, 255);
glyphname = h;
layers = (
{
hints = (
{
horizontal = 1;
place = (-6,38);
type = Stem;
},
{
horizontal = 1;
place = (436,31);
type = Stem;
},
{
horizontal = 1;
place = (736,-20);
target = down;
type = TopGhost;
},
{
place = (79,207);
type = Stem;
},
{
place = (400,198);
type = Stem;
}
);
layerId = "A410FBA5-8D09-49B2-9E86-D368B18AE5F7";
shapes = (
{
closed = 1;
nodes = (
(65,0,l),
(262,0,l),
(262,278,ls),
(262,374,o),
(298,453,o),
(345,453,cs),
(377,453,o),
(382,424,o),
(382,345,cs),
(382,184,ls),
(382,47,o),
(430,-9,o),
(525,-9,cs),
(586,-9,o),
(615,14,o),
(627,47,c),
(622,54,l),
(617,37,o),
(608,32,o),
(601,32,cs),
(587,32,o),
(584,60,o),
(584,106,cs),
(584,295,ls),
(584,420,o),
(554,500,o),
(427,500,cs),
(295,500,o),
(268,379,o),
(259,351,c),
(251,351,l),
(251,471,l),
(251,721,l),
(-12,689,l),
(-12,682,l),
(44,682,o),
(65,686,o),
(65,634,cs)
);
},
{
closed = 1;
nodes = (
(104,677,l),
(110,662,o),
(110,650,o),
(110,637,c),
(110,24,l),
(90,24,l),
(90,637,l),
(90,650,o),
(88,666,o),
(83,677,c)
);
},
{
closed = 1;
nodes = (
(429,188,ls),
(429,51,o),
(482,24,o),
(538,18,c),
(531,18,o),
(531,18,o),
(525,18,c),
(466,18,o),
(409,37,o),
(409,188,cs),
(409,344,ls),
(409,396,o),
(409,447,o),
(382,467,c),
(428,459,o),
(429,396,o),
(429,344,cs)
);
}
);
width = 644;
}
);
unicode = 104;
},
{
color = (153, 255, 154, 255);
glyphname = h.4;
layers = (
{
layerId = "A410FBA5-8D09-49B2-9E86-D368B18AE5F7";
shapes = (
{
closed = 1;
nodes = (
(-12,689,l),
(-12,682,l),
(44,682,o),
(65,686,o),
(65,634,cs),
(65,0,l),
(262,0,l),
(262,278,ls),
(262,374,o),
(298,453,o),
(345,453,cs),
(377,453,o),
(382,424,o),
(382,345,cs),
(382,173,ls),
(382,-192,o),
(706,-413,o),
(1092,-413,cs),
(1435,-413,o),
(1712,-136,o),
(1712,207,cs),
(1712,544,o),
(1439,817,o),
(1102,817,cs),
(944,817,o),
(800,757,o),
(692,659,c),
(698,655,l),
(805,752,o),
(947,811,o),
(1102,811,cs),
(1435,811,o),
(1706,540,o),
(1706,207,cs),
(1706,-126,o),
(1435,-397,o),
(1102,-397,cs),
(831,-397,o),
(584,-231,o),
(584,138,cs),
(584,295,ls),
(584,420,o),
(554,500,o),
(427,500,cs),
(295,500,o),
(267,379,o),
(259,351,cs),
(257,346,o),
(255,344,o),
(254,344,c),
(252,344,o),
(251,347,o),
(251,351,cs),
(251,721,l)
);
},
{
closed = 1;
nodes = (
(104,677,l),
(110,662,o),
(110,650,o),
(110,637,c),
(110,24,l),
(90,24,l),
(90,637,l),
(90,650,o),
(88,666,o),
(83,677,c)
);
},
{
closed = 1;
nodes = (
(429,157,ls),
(429,-17,o),
(528,-199,o),
(742,-316,c),
(670,-298,o),
(409,-144,o),
(409,168,cs),
(409,344,ls),
(409,396,o),
(409,447,o),
(382,467,c),
(428,459,o),
(429,396,o),
(429,344,cs)
);
}
);
width = 644;
}
);
},
{
color = (153, 255, 154, 255);
glyphname = h.6;
layers = (
{
layerId = "A410FBA5-8D09-49B2-9E86-D368B18AE5F7";
shapes = (
{
closed = 1;
nodes = (
(65,0,l),
(262,0,l),
(262,278,ls),
(262,374,o),
(298,453,o),
(345,453,cs),
(377,453,o),
(382,424,o),
(382,345,cs),
(382,184,ls),
(382,47,o),
(430,-9,o),
(525,-9,cs),
(586,-9,o),
(615,14,o),
(627,47,c),
(622,54,l),
(617,37,o),
(608,32,o),
(601,32,cs),
(587,32,o),
(584,60,o),
(584,106,cs),
(584,295,l),
(585,420,o),
(554,500,o),
(427,500,cs),
(295,500,o),
(267,379,o),
(259,351,cs),
(255,339,o),
(251,344,o),
(251,351,cs),
(251,617,ls),
(251,978,o),
(497,1233,o),
(829,1233,cs),
(1270,1233,o),
(1627,872,o),
(1627,421,cs),
(1627,-24,o),
(1274,-382,o),
(839,-382,cs),
(646,-382,o),
(468,-308,o),
(334,-187,c),
(328,-192,l),
(462,-314,o),
(642,-389,o),
(839,-389,cs),
(1279,-389,o),
(1633,-29,o),
(1633,421,cs),
(1633,878,o),
(1274,1243,o),
(826,1243,cs),
(357,1243,o),
(65,923,o),
(65,517,cs)
);
},
{
closed = 1;
nodes = (
(429,188,ls),
(429,51,o),
(482,24,o),
(538,18,c),
(531,18,o),
(531,18,o),
(525,18,c),
(466,18,o),
(409,37,o),
(409,188,cs),
(409,344,ls),
(409,396,o),
(409,447,o),
(382,467,c),
(428,459,o),
(429,396,o),
(429,344,cs)
);
},
{
closed = 1;
nodes = (
(355,1073,l),
(175,933,o),
(110,668,o),
(110,522,cs),
(110,24,l),
(90,24,l),
(90,522,ls),
(90,734,o),
(169,937,o),
(350,1073,c)
);
}
);
width = 644;
}
);
},
{
color = (153, 255, 154, 255);
glyphname = h.6.more;
layers = (
{
layerId = "A410FBA5-8D09-49B2-9E86-D368B18AE5F7";
shapes = (
{
closed = 1;
nodes = (
(-656,-320,l),
(-554,-210,o),
(-404,-146,o),
(-236,-146,cs),
(143,-146,o),
(409,-388,o),
(839,-388,cs),
(1277,-388,o),
(1633,-28,o),
(1633,421,cs),
(1633,878,o),
(1274,1243,o),
(826,1243,cs),
(357,1243,o),
(65,923,o),
(65,517,cs),
(65,0,l),
(262,0,l),
(262,278,ls),
(262,374,o),
(298,453,o),
(345,453,cs),
(377,453,o),
(382,424,o),
(382,345,cs),
(382,184,ls),
(382,47,o),
(430,-9,o),
(525,-9,cs),
(586,-9,o),
(615,14,o),
(627,47,c),
(622,54,l),
(617,37,o),
(608,32,o),
(601,32,cs),
(587,32,o),
(584,60,o),
(584,106,cs),
(584,295,l),
(585,420,o),
(554,500,o),
(427,500,cs),
(295,500,o),
(267,379,o),
(259,351,cs),
(255,339,o),
(251,344,o),
(251,351,cs),
(251,617,l),
(256,978,o),
(500,1233,o),
(829,1233,cs),
(1270,1233,o),
(1627,872,o),
(1627,421,cs),
(1627,-24,o),
(1274,-382,o),
(839,-382,cs),
(417,-382,o),
(146,-140,o),
(-236,-140,cs),
(-407,-140,o),
(-561,-205,o),
(-664,-318,c)
);
},
{
closed = 1;
nodes = (
(429,188,ls),
(429,51,o),
(482,24,o),
(538,18,c),
(531,18,o),
(531,18,o),
(525,18,c),
(466,18,o),
(409,37,o),
(409,188,cs),
(409,344,ls),
(409,396,o),
(409,447,o),
(382,467,c),
(428,459,o),
(429,396,o),
(429,344,cs)
);
},
{
closed = 1;
nodes = (
(355,1073,l),
(175,933,o),
(110,668,o),
(110,522,cs),
(110,24,l),
(90,24,l),
(90,522,ls),
(90,734,o),
(169,937,o),
(350,1073,c)
);
}
);
width = 644;
}
);
},
{
color = (153, 255, 154, 255);
glyphname = h.44;
layers = (
{
layerId = "A410FBA5-8D09-49B2-9E86-D368B18AE5F7";
shapes = (
{
closed = 1;
nodes = (
(-2037,453,l),
(-1900,733,o),
(-1613,928,o),
(-1284,928,cs),
(-355,928,o),
(-124,-389,o),
(826,-389,cs),
(1284,-389,o),
(1633,-19,o),
(1633,421,cs),
(1633,878,o),
(1274,1243,o),
(826,1243,cs),
(364,1243,o),
(65,933,o),
(65,536,cs),
(65,0,l),
(262,0,l),
(262,278,ls),
(262,374,o),
(298,453,o),
(345,453,cs),
(377,453,o),
(382,424,o),
(382,345,cs),
(382,184,ls),
(382,47,o),
(430,-9,o),
(525,-9,cs),
(586,-9,o),
(615,14,o),
(627,47,c),
(622,54,l),
(617,37,o),
(608,32,o),
(601,32,cs),
(587,32,o),
(584,60,o),
(584,106,cs),
(584,295,l),
(585,420,o),
(554,500,o),
(427,500,cs),
(295,500,o),
(267,379,o),
(259,351,cs),
(255,339,o),
(251,344,o),
(251,351,cs),
(251,619,ls),
(251,980,o),
(500,1233,o),
(829,1233,cs),
(1270,1233,o),
(1627,872,o),
(1627,421,cs),
(1627,-35,o),
(1266,-383,o),
(826,-383,cs),
(-125,-383,o),
(-342,934,o),
(-1284,934,cs),
(-1615,934,o),
(-1905,737,o),
(-2043,455,c)
);
},
{
closed = 1;
nodes = (
(429,188,ls),
(429,51,o),
(482,24,o),
(538,18,c),
(531,18,o),
(531,18,o),
(525,18,c),
(466,18,o),
(409,37,o),
(409,188,cs),
(409,344,ls),
(409,396,o),
(409,447,o),
(382,467,c),
(428,459,o),
(429,396,o),
(429,344,cs)
);
},
{
closed = 1;
nodes = (
(355,1073,l),
(175,933,o),
(110,668,o),
(110,522,cs),
(110,24,l),
(90,24,l),
(90,522,ls),
(90,734,o),
(169,937,o),
(350,1073,c)
);
}
);
width = 644;
}
);
},
{
color = (153, 255, 154, 255);
glyphname = h.6.more.acc;
layers = (
{
layerId = "A410FBA5-8D09-49B2-9E86-D368B18AE5F7";
shapes = (
{
closed = 1;
nodes = (
(-656,-320,l),
(-554,-210,o),
(-404,-146,o),
(-236,-146,cs),
(143,-146,o),
(409,-466,o),
(839,-466,cs),
(1277,-466,o),
(1633,-28,o),
(1633,421,cs),
(1633,878,o),
(1274,1243,o),
(826,1243,cs),
(357,1243,o),
(65,923,o),
(65,517,cs),
(65,0,l),
(262,0,l),
(262,278,ls),
(262,374,o),
(298,453,o),
(345,453,cs),
(377,453,o),
(382,424,o),
(382,345,cs),
(382,184,ls),
(382,47,o),
(430,-9,o),
(525,-9,cs),
(586,-9,o),
(615,14,o),
(627,47,c),
(622,54,l),
(617,37,o),
(608,32,o),
(601,32,cs),
(587,32,o),
(584,60,o),
(584,106,cs),
(584,295,l),
(585,420,o),
(554,500,o),
(427,500,cs),
(295,500,o),
(267,379,o),
(259,351,cs),
(255,339,o),
(251,344,o),
(251,351,cs),
(251,617,l),
(256,978,o),
(500,1233,o),
(829,1233,cs),
(1270,1233,o),
(1627,872,o),
(1627,421,cs),
(1627,-24,o),
(1274,-306,o),
(839,-306,cs),
(417,-306,o),
(146,-140,o),
(-236,-140,cs),
(-407,-140,o),
(-561,-205,o),
(-664,-318,c)
);
},
{
closed = 1;
nodes = (
(429,188,ls),
(429,51,o),
(482,24,o),
(538,18,c),
(531,18,o),
(531,18,o),
(525,18,c),
(466,18,o),
(409,37,o),
(409,188,cs),
(409,344,ls),
(409,396,o),
(409,447,o),
(382,467,c),
(428,459,o),
(429,396,o),
(429,344,cs)
);
},
{
closed = 1;
nodes = (
(355,1073,l),
(175,933,o),
(110,668,o),
(110,522,cs),
(110,24,l),
(90,24,l),
(90,522,ls),
(90,734,o),
(169,937,o),
(350,1073,c)
);
},
{
closed = 1;
nodes = (
(1390,-147,l),
(1242,-280,o),
(1064,-358,o),
(839,-358,cs),
(627,-358,o),
(414,-298,o),
(266,-239,c),
(268,-237,l),
(414,-284,o),
(627,-336,o),
(839,-336,cs),
(1064,-336,o),
(1242,-266,o),
(1388,-145,c)
);
}
);
width = 644;
}
);
},
{
color = (153, 255, 154, 255);
glyphname = h.44.acc;
layers = (
{
layerId = "A410FBA5-8D09-49B2-9E86-D368B18AE5F7";
shapes = (
{
closed = 1;
nodes = (
(-2037,453,l),
(-1900,733,o),
(-1613,928,o),
(-1284,928,cs),
(-862,928,o),
(-562,643,o),
(-299,314,cs),
(27,-93,o),
(344,-488,o),
(826,-488,cs),
(1284,-488,o),
(1633,-19,o),
(1633,421,cs),
(1633,878,o),
(1274,1243,o),
(826,1243,cs),
(364,1243,o),
(74,933,o),
(65,536,c),
(65,0,l),
(262,0,l),
(262,278,ls),
(262,374,o),
(298,453,o),
(345,453,cs),
(377,453,o),
(382,424,o),
(382,345,cs),
(382,184,ls),
(382,47,o),
(430,-9,o),
(525,-9,cs),
(586,-9,o),
(615,14,o),
(627,47,c),
(622,54,l),
(617,37,o),
(608,32,o),
(601,32,cs),
(587,32,o),
(584,60,o),
(584,106,cs),
(584,295,l),
(585,420,o),
(554,500,o),
(427,500,cs),
(295,500,o),
(267,379,o),
(259,351,cs),
(255,339,o),
(251,344,o),
(251,351,cs),
(251,619,ls),
(251,980,o),
(500,1233,o),
(829,1233,cs),
(1270,1233,o),
(1627,872,o),
(1627,421,cs),
(1627,-35,o),
(1266,-328,o),
(826,-328,cs),
(294,-328,o),
(9,-57,o),
(-295,318,cs),
(-557,641,o),
(-846,934,o),
(-1284,934,cs),
(-1615,934,o),
(-1905,737,o),
(-2043,455,c)
);
},
{
closed = 1;
nodes = (
(429,188,ls),
(429,51,o),
(482,24,o),
(538,18,c),
(531,18,o),
(531,18,o),
(525,18,c),
(466,18,o),
(409,37,o),
(409,188,cs),
(409,344,ls),
(409,396,o),
(409,447,o),
(382,467,c),
(428,459,o),
(429,396,o),
(429,344,cs)
);
},
{
closed = 1;
nodes = (
(355,1073,l),
(175,933,o),
(110,668,o),
(110,522,cs),
(110,24,l),
(90,24,l),
(90,522,ls),
(90,734,o),
(169,937,o),
(350,1073,c)
);
},
{
closed = 1;
nodes = (
(1377,-169,l),
(1229,-302,o),
(1051,-380,o),
(826,-380,cs),
(618,-380,o),
(407,-316,o),
(263,-232,c),
(265,-230,l),
(407,-302,o),
(618,-358,o),
(826,-358,cs),
(1051,-358,o),
(1229,-288,o),
(1375,-167,c)
);
}
);
width = 644;
}
);
},
{
color = (153, 255, 154, 255);
glyphname = h.9;
layers = (
{
layerId = "A410FBA5-8D09-49B2-9E86-D368B18AE5F7";
shapes = (
{
closed = 1;
nodes = (
(65,0,l),
(262,0,l),
(262,278,ls),
(262,374,o),
(298,453,o),
(345,453,cs),
(374,453,o),
(386,424,o),
(386,345,cs),
(386,180,ls),
(386,-23,o),
(527,-150,o),
(728,-150,cs),
(933,-150,o),
(1050,-12,o),
(1050,126,cs),
(1050,218,o),
(998,303,o),
(908,303,cs),
(843,303,o),
(799,258,o),
(799,205,cs),
(799,154,o),
(840,107,o),
(903,107,cs),
(952,107,o),
(993,136,o),
(1009,173,c),
(1017,146,o),
(1021,122,o),
(1021,96,cs),
(1021,-29,o),
(927,-119,o),
(800,-119,cs),
(688,-119,o),
(584,-54,o),
(584,162,cs),
(584,295,ls),
(584,420,o),
(554,500,o),
(427,500,cs),
(295,500,o),
(267,379,o),
(259,351,cs),
(255,339,o),
(251,344,o),
(251,351,cs),
(251,721,l),
(-12,689,l),
(-12,682,l),
(44,682,o),
(65,686,o),
(65,634,cs)
);
},
{
closed = 1;
nodes = (
(104,677,l),
(110,662,o),
(110,650,o),
(110,637,c),
(110,24,l),
(90,24,l),
(90,637,l),
(90,650,o),
(88,666,o),
(83,677,c)
);
},
{
closed = 1;
nodes = (
(846,165,o),
(878,138,o),
(916,129,c),
(908,129,o),
(908,129,o),
(902,129,cs),
(858,129,o),
(824,165,o),
(824,203,cs),
(824,241,o),
(858,277,o),
(902,277,cs),
(908,277,o),
(908,277,o),
(916,277,c),
(878,268,o),
(846,241,o),
(846,203,cs)
);
},
{
closed = 1;
nodes = (
(429,167,ls),
(429,-18,o),
(574,-135,o),
(721,-135,c),
(721,-135,o),
(714,-136,o),
(714,-136,c),
(566,-136,o),
(409,-28,o),
(409,169,cs),
(409,344,ls),
(409,396,o),
(409,447,o),
(382,467,c),
(428,459,o),
(429,396,o),
(429,344,cs)
);
}
);
width = 1089;
}
);
},
{
color = (255, 153, 153, 255);
glyphname = i;
layers = (
{
anchors = (
{
name = top;
position = "{157, 577}";
}
);
hints = (
{
horizontal = 1;
place = (-6,38);
type = Stem;
},
{
horizontal = 1;
place = (580,174);
type = Stem;
},
{
place = (65,197);
type = Stem;
},
{
place = (65,250);
type = Stem;
},
{
place = (77,185);
type = Stem;
}
);
layerId = "A410FBA5-8D09-49B2-9E86-D368B18AE5F7";
shapes = (
{
closed = 1;
nodes = (
(311,40,l),
(308,35,o),
(298,27,o),
(286,27,cs),
(256,27,o),
(256,72,o),
(256,185,cs),
(256,500,l),
(181,487,o),
(90,481,o),
(-14,481,c),
(-14,473,l),
(42,473,o),
(63,468,o),
(63,416,cs),
(63,157,ls),
(63,43,o),
(104,-6,o),
(197,-6,cs),
(253,-6,o),
(301,12,o),
(317,33,c)
);
},
{
closed = 1;
nodes = (
(51,587,o),
(99,544,o),
(161,544,cs),
(223,544,o),
(271,587,o),
(271,642,cs),
(271,697,o),
(223,740,o),
(161,740,cs),
(99,740,o),
(51,697,o),
(51,642,cs)
);
},
{
closed = 1;
nodes = (
(88,407,ls),
(88,421,o),
(86,445,o),
(81,458,c),
(101,460,l),
(106,447,o),
(108,423,o),
(108,409,cs),
(108,160,ls),
(108,50,o),
(142,24,o),
(207,24,c),
(207,24,o),
(199,23,o),
(199,23,c),
(136,23,o),
(88,42,o),
(88,160,cs)
);
},
{
closed = 1;
nodes = (
(99,603,o),
(131,576,o),
(169,567,c),
(161,567,o),
(161,567,o),
(155,567,cs),
(111,567,o),
(77,603,o),
(77,641,cs),
(77,679,o),
(111,715,o),
(155,715,cs),
(161,715,o),
(161,715,o),
(169,715,c),
(131,706,o),
(99,679,o),
(99,641,cs)
);
}
);
width = 317;
}
);
unicode = 105;
},
{
color = (153, 255, 154, 255);
glyphname = i.1;
layers = (
{
layerId = "A410FBA5-8D09-49B2-9E86-D368B18AE5F7";
shapes = (
{
closed = 1;
nodes = (
(66,157,ls),
(66,43,o),
(107,-6,o),
(200,-6,cs),
(256,-6,o),
(302,12,o),
(318,33,c),
(312,40,l),
(309,35,o),
(299,27,o),
(287,27,cs),
(257,27,o),
(257,72,o),
(257,185,cs),
(257,495,ls),
(257,544,o),
(275,593,o),
(275,642,cs),
(275,697,o),
(227,740,o),
(165,740,cs),
(103,740,o),
(55,697,o),
(55,642,cs),
(55,587,o),
(103,544,o),
(165,544,cs),
(206,544,o),
(240,562,o),
(259,590,c),
(242,472,o),
(64,481,o),
(-11,481,c),
(-11,473,l),
(45,473,o),
(66,478,o),
(66,426,cs)
);
},
{
closed = 1;
nodes = (
(91,407,ls),
(91,421,o),
(89,445,o),
(84,458,c),
(104,460,l),
(109,447,o),
(111,423,o),
(111,409,cs),
(111,160,ls),
(111,50,o),
(145,24,o),
(210,24,c),
(210,24,o),
(202,23,o),
(202,23,c),
(139,23,o),
(91,42,o),
(91,160,cs)
);
},
{
closed = 1;
nodes = (
(102,604,o),
(134,577,o),
(172,568,c),
(164,568,o),
(164,568,o),
(158,568,cs),
(114,568,o),
(80,604,o),
(80,642,cs),
(80,680,o),
(114,716,o),
(158,716,cs),
(164,716,o),
(164,716,o),
(172,716,c),
(134,707,o),
(102,680,o),
(102,642,cs)
);
}
);
width = 319;
}
);
},
{
color = (153, 255, 154, 255);
glyphname = i.7;
layers = (
{
layerId = "A410FBA5-8D09-49B2-9E86-D368B18AE5F7";
shapes = (
{
closed = 1;
nodes = (
(256,408,l),
(279,404,o),
(303,401,o),
(328,401,cs),
(507,401,o),
(606,543,o),
(606,682,cs),
(606,817,o),
(517,948,o),
(326,948,cs),
(-193,948,o),
(-582,-235,o),
(-1298,-235,cs),
(-1690,-235,o),
(-1908,58,o),
(-1908,372,cs),
(-1908,684,o),
(-1695,1005,o),
(-1269,1005,cs),
(-1141,1005,o),
(-1049,974,o),
(-984,934,c),
(-981,940,l),
(-1047,981,o),
(-1140,1011,o),
(-1269,1011,cs),
(-1699,1011,o),
(-1914,686,o),
(-1914,372,cs),
(-1914,54,o),
(-1694,-241,o),
(-1298,-241,cs),
(-574,-241,o),
(-188,942,o),
(326,942,cs),
(513,942,o),
(600,813,o),
(600,682,cs),
(600,545,o),
(503,407,o),
(328,407,cs),
(305,407,o),
(280,411,o),
(256,418,c),
(256,500,l),
(219,494,o),
(177,489,o),
(133,486,c),
(101,515,o),
(78,551,o),
(72,593,c),
(90,568,o),
(128,546,o),
(166,546,cs),
(226,546,o),
(272,592,o),
(272,644,cs),
(272,699,o),
(230,740,o),
(166,740,cs),
(84,740,o),
(45,678,o),
(45,611,cs),
(45,561,o),
(65,518,o),
(98,484,c),
(63,482,o),
(25,481,o),
(-14,481,c),
(-14,473,l),
(42,473,o),
(63,468,o),
(63,416,cs),
(63,157,ls),
(63,43,o),
(104,-6,o),
(197,-6,cs),
(253,-6,o),
(301,12,o),
(317,33,c),
(311,40,l),
(308,35,o),
(298,27,o),
(286,27,cs),
(256,27,o),
(256,72,o),
(256,185,cs)
);
},
{
closed = 1;
nodes = (
(88,407,ls),
(88,421,o),
(86,445,o),
(81,458,c),
(101,460,l),
(106,447,o),
(108,423,o),
(108,409,cs),
(108,160,ls),
(108,50,o),
(142,24,o),
(207,24,c),
(207,24,o),
(199,23,o),
(199,23,c),
(136,23,o),
(88,42,o),
(88,160,cs)
);
},
{
closed = 1;
nodes = (
(102,606,o),
(134,579,o),
(172,570,c),
(164,570,o),
(164,570,o),
(158,570,cs),
(114,570,o),
(80,606,o),
(80,644,cs),
(80,682,o),
(114,718,o),
(158,718,cs),
(164,718,o),
(164,718,o),
(172,718,c),
(134,709,o),
(102,682,o),
(102,644,cs)
);
}
);
width = 319;
}
);
},
{
color = (153, 255, 154, 255);
glyphname = i.7.acc;
layers = (
{
layerId = "A410FBA5-8D09-49B2-9E86-D368B18AE5F7";
shapes = (
{
closed = 1;
nodes = (
(256,408,l),
(279,404,o),
(303,401,o),
(328,401,cs),
(507,401,o),
(601,542,o),
(611,681,cs),
(623,849,o),
(496,988,o),
(299,988,cs),
(-164,988,o),
(-586,-160,o),
(-1298,-160,cs),
(-1690,-160,o),
(-1908,103,o),
(-1908,372,cs),
(-1908,684,o),
(-1695,1005,o),
(-1269,1005,cs),
(-1141,1005,o),
(-1049,974,o),
(-984,934,c),
(-981,940,l),
(-1047,981,o),
(-1140,1011,o),
(-1269,1011,cs),
(-1699,1011,o),
(-1914,686,o),
(-1914,372,cs),
(-1914,24,o),
(-1694,-291,o),
(-1298,-291,cs),
(-625,-291,o),
(-265,942,o),
(309,942,cs),
(496,942,o),
(600,813,o),
(600,682,cs),
(600,545,o),
(503,407,o),
(328,407,cs),
(305,407,o),
(280,411,o),
(256,418,c),
(256,500,l),
(219,494,o),
(177,489,o),
(133,486,c),
(101,515,o),
(78,551,o),
(72,593,c),
(90,568,o),
(128,546,o),
(166,546,cs),
(226,546,o),
(272,592,o),
(272,644,cs),
(272,699,o),
(230,740,o),
(166,740,cs),
(84,740,o),
(45,678,o),
(45,611,cs),
(45,561,o),
(65,518,o),
(98,484,c),
(63,482,o),
(25,481,o),
(-14,481,c),
(-14,473,l),
(42,473,o),
(63,468,o),
(63,416,cs),
(63,157,ls),
(63,43,o),
(104,-6,o),
(197,-6,cs),
(253,-6,o),
(301,12,o),
(317,33,c),
(311,40,l),
(308,35,o),
(298,27,o),
(286,27,cs),
(256,27,o),
(256,72,o),
(256,185,cs)
);
},
{
closed = 1;
nodes = (
(88,407,ls),
(88,421,o),
(86,445,o),
(81,458,c),
(101,460,l),
(106,447,o),
(108,423,o),
(108,409,cs),
(108,160,ls),
(108,50,o),
(142,24,o),
(207,24,c),
(207,24,o),
(199,23,o),
(199,23,c),
(136,23,o),
(88,42,o),
(88,160,cs)
);
},
{
closed = 1;
nodes = (
(102,606,o),
(134,579,o),
(172,570,c),
(164,570,o),
(164,570,o),
(158,570,cs),
(114,570,o),
(80,606,o),
(80,644,cs),
(80,682,o),
(114,718,o),
(158,718,cs),
(164,718,o),
(164,718,o),
(172,718,c),
(134,709,o),
(102,682,o),
(102,644,cs)
);
},
{
closed = 1;
nodes = (
(-734,48,l),
(-900,-104,o),
(-1083,-212,o),
(-1298,-212,cs),
(-1496,-212,o),
(-1673,-130,o),
(-1798,14,c),
(-1796,16,l),
(-1672,-115,o),
(-1496,-190,o),
(-1298,-190,cs),
(-1084,-190,o),
(-900,-90,o),
(-736,50,c)
);
},
{
closed = 1;
nodes = (
(155,932,l),
(205,954,o),
(256,967,o),
(309,967,cs),
(371,967,o),
(424,951,o),
(467,924,c),
(467,922,l),
(424,946,o),
(371,960,o),
(309,960,cs),
(256,960,o),
(205,949,o),
(155,930,c)
);
}
);
width = 319;
}
);
},
{
color = (153, 255, 154, 255);
glyphname = i.9;
layers = (
{
layerId = "A410FBA5-8D09-49B2-9E86-D368B18AE5F7";
shapes = (
{
closed = 1;
nodes = (
(63,178,ls),
(63,-25,o),
(202,-152,o),
(400,-152,cs),
(605,-152,o),
(722,-14,o),
(722,124,cs),
(722,216,o),
(670,301,o),
(580,301,cs),
(515,301,o),
(471,256,o),
(471,203,cs),
(471,152,o),
(512,105,o),
(575,105,cs),
(624,105,o),
(665,134,o),
(681,171,c),
(689,144,o),
(693,120,o),
(693,94,cs),
(693,-31,o),
(599,-121,o),
(472,-121,cs),
(360,-121,o),
(256,-56,o),
(256,160,cs),
(256,500,l),
(181,487,o),
(90,481,o),
(-14,481,c),
(-14,473,l),
(42,473,o),
(63,468,o),
(63,416,cs)
);
},
{
closed = 1;
nodes = (
(51,587,o),
(99,544,o),
(161,544,cs),
(223,544,o),
(271,587,o),
(271,642,cs),
(271,697,o),
(223,740,o),
(161,740,cs),
(99,740,o),
(51,697,o),
(51,642,cs)
);
},
{
closed = 1;
nodes = (
(515,165,o),
(547,138,o),
(585,129,c),
(577,129,o),
(577,129,o),
(571,129,cs),
(527,129,o),
(493,165,o),
(493,203,cs),
(493,241,o),
(527,277,o),
(571,277,cs),
(577,277,o),
(577,277,o),
(585,277,c),
(547,268,o),
(515,241,o),
(515,203,cs)
);
},
{
closed = 1;
nodes = (
(88,407,ls),
(88,421,o),
(86,445,o),
(81,458,c),
(101,460,l),
(106,447,o),
(108,423,o),
(108,409,cs),
(108,160,ls),
(108,-25,o),
(251,-133,o),
(398,-133,c),
(398,-133,o),
(391,-134,o),
(391,-134,c),
(243,-134,o),
(88,-35,o),
(88,160,cs)
);
},
{
closed = 1;
nodes = (
(102,604,o),
(134,577,o),
(172,568,c),
(164,568,o),
(164,568,o),
(158,568,cs),
(114,568,o),
(80,604,o),
(80,642,cs),
(80,680,o),
(114,716,o),
(158,716,cs),
(164,716,o),
(164,716,o),
(172,716,c),
(134,707,o),
(102,680,o),
(102,642,cs)
);
}
);
width = 761;
}
);
},
{
color = (255, 153, 153, 255);
glyphname = j;
layers = (
{
hints = (
{
horizontal = 1;
place = (-321,199);
type = Stem;
},
{
horizontal = 1;
place = (-220,98);
type = Stem;
},
{
horizontal = 1;
place = (580,174);
type = Stem;
},
{
place = (79,197);
type = Stem;
},
{
place = (91,185);
type = Stem;
},
{
place = (197,79);
type = Stem;
}
);
layerId = "A410FBA5-8D09-49B2-9E86-D368B18AE5F7";
shapes = (
{
closed = 1;
nodes = (
(-14,473,l),
(42,473,o),
(63,468,o),
(63,416,cs),
(63,-176,ls),
(63,-223,o),
(46,-280,o),
(-7,-280,cs),
(-30,-280,o),
(-41,-269,o),
(-44,-262,c),
(-11,-247,o),
(5,-211,o),
(5,-177,cs),
(5,-133,o),
(-21,-91,o),
(-74,-91,cs),
(-123,-91,o),
(-151,-128,o),
(-151,-177,cs),
(-151,-235,o),
(-113,-290,o),
(19,-290,cs),
(196,-290,o),
(260,-192,o),
(260,-58,cs),
(260,500,l),
(185,487,o),
(90,481,o),
(-14,481,c)
);
},
{
closed = 1;
nodes = (
(51,587,o),
(99,544,o),
(161,544,cs),
(223,544,o),
(271,587,o),
(271,642,cs),
(271,697,o),
(223,740,o),
(161,740,cs),
(99,740,o),
(51,697,o),
(51,642,cs)
);
},
{
closed = 1;
nodes = (
(88,407,ls),
(88,421,o),
(86,445,o),
(81,458,c),
(101,460,l),
(106,447,o),
(108,423,o),
(108,409,cs),
(108,-177,ls),
(108,-214,o),
(93,-263,o),
(71,-263,c),
(83,-242,o),
(88,-217,o),
(88,-177,cs)
);
},
{
closed = 1;
nodes = (
(99,603,o),
(131,576,o),
(169,567,c),
(161,567,o),
(161,567,o),
(155,567,cs),
(111,567,o),
(77,603,o),
(77,641,cs),
(77,679,o),
(111,715,o),
(155,715,cs),
(161,715,o),
(161,715,o),
(169,715,c),
(131,706,o),
(99,679,o),
(99,641,cs)
);
},
{
closed = 1;
nodes = (
(-107,-122,o),
(-107,-163,o),
(-107,-177,cs),
(-107,-202,o),
(-88,-231,o),
(-69,-250,c),
(-76,-250,l),
(-106,-237,o),
(-126,-209,o),
(-126,-177,cs),
(-126,-156,o),
(-119,-117,o),
(-81,-117,c),
(-74,-117,o),
(-74,-117,o),
(-68,-117,c)
);
}
);
width = 316;
}
);
unicode = 106;
},
{
color = (153, 255, 154, 255);
glyphname = j.4;
layers = (
{
layerId = "A410FBA5-8D09-49B2-9E86-D368B18AE5F7";
shapes = (
{
closed = 1;
nodes = (
(-10,473,l),
(46,473,o),
(67,468,o),
(67,416,cs),
(67,138,ls),
(67,-231,o),
(-180,-397,o),
(-451,-397,cs),
(-784,-397,o),
(-1055,-126,o),
(-1055,207,cs),
(-1055,540,o),
(-784,811,o),
(-451,811,cs),
(-296,811,o),
(-154,752,o),
(-47,655,c),
(-41,659,l),
(-149,757,o),
(-293,817,o),
(-451,817,cs),
(-788,817,o),
(-1061,544,o),
(-1061,207,cs),
(-1061,-136,o),
(-784,-413,o),
(-441,-413,cs),
(-58,-413,o),
(264,-192,o),
(264,173,cs),
(264,500,l),
(189,487,o),
(94,481,o),
(-10,481,c)
);
},
{
closed = 1;
nodes = (
(55,587,o),
(103,544,o),
(165,544,cs),
(227,544,o),
(275,587,o),
(275,642,cs),
(275,697,o),
(227,740,o),
(165,740,cs),
(103,740,o),
(55,697,o),
(55,642,cs)
);
},
{
closed = 1;
nodes = (
(102,603,o),
(134,576,o),
(172,567,c),
(164,567,o),
(164,567,o),
(158,567,cs),
(114,567,o),
(80,603,o),
(80,641,cs),
(80,679,o),
(114,715,o),
(158,715,cs),
(164,715,o),
(164,715,o),
(172,715,c),
(134,706,o),
(102,679,o),
(102,641,cs)
);
},
{
closed = 1;
nodes = (
(112,138,ls),
(112,-140,o),
(-21,-305,o),
(-205,-368,c),
(-223,-370,l),
(-40,-309,o),
(92,-144,o),
(92,138,cs),
(92,407,ls),
(92,421,o),
(90,445,o),
(85,458,c),
(105,460,l),
(110,447,o),
(112,423,o),
(112,409,cs)
);
}
);
width = 317;
}
);
},
{
color = (153, 255, 154, 255);
glyphname = j.7;
layers = (
{
layerId = "A410FBA5-8D09-49B2-9E86-D368B18AE5F7";
shapes = (
{
closed = 1;
nodes = (
(-981,940,l),
(-1047,981,o),
(-1140,1011,o),
(-1269,1011,cs),
(-1699,1011,o),
(-1914,686,o),
(-1914,372,cs),
(-1914,54,o),
(-1694,-241,o),
(-1298,-241,cs),
(-574,-241,o),
(-188,942,o),
(326,942,cs),
(513,942,o),
(600,813,o),
(600,682,cs),
(600,545,o),
(503,407,o),
(328,407,cs),
(306,407,o),
(283,411,o),
(260,417,c),
(260,500,l),
(222,493,o),
(179,489,o),
(133,486,c),
(101,515,o),
(78,551,o),
(72,593,c),
(90,568,o),
(128,546,o),
(166,546,cs),
(226,546,o),
(272,592,o),
(272,644,cs),
(272,699,o),
(230,740,o),
(166,740,cs),
(84,740,o),
(45,678,o),
(45,611,cs),
(45,561,o),
(65,518,o),
(98,484,c),
(62,482,o),
(25,481,o),
(-14,481,c),
(-14,473,l),
(42,473,o),
(63,468,o),
(63,416,cs),
(63,-176,ls),
(63,-223,o),
(46,-280,o),
(-7,-280,cs),
(-30,-280,o),
(-41,-269,o),
(-44,-262,c),
(-11,-247,o),
(5,-211,o),
(5,-177,cs),
(5,-133,o),
(-21,-91,o),
(-74,-91,cs),
(-123,-91,o),
(-151,-128,o),
(-151,-177,cs),
(-151,-235,o),
(-113,-290,o),
(19,-290,cs),
(196,-290,o),
(260,-192,o),
(260,-58,cs),
(260,407,l),
(282,403,o),
(304,401,o),
(328,401,cs),
(507,401,o),
(606,543,o),
(606,682,cs),
(606,817,o),
(517,948,o),
(326,948,cs),
(-193,948,o),
(-582,-235,o),
(-1298,-235,cs),
(-1690,-235,o),
(-1908,58,o),
(-1908,372,cs),
(-1908,684,o),
(-1695,1005,o),
(-1269,1005,cs),
(-1141,1005,o),
(-1049,974,o),
(-984,934,c)
);
},
{
closed = 1;
nodes = (
(88,407,ls),
(88,421,o),
(86,445,o),
(81,458,c),
(101,460,l),
(106,447,o),
(108,423,o),
(108,409,cs),
(108,-177,ls),
(108,-214,o),
(93,-263,o),
(71,-263,c),
(83,-242,o),
(88,-217,o),
(88,-177,cs)
);
},
{
closed = 1;
nodes = (
(102,606,o),
(134,579,o),
(172,570,c),
(164,570,o),
(164,570,o),
(158,570,cs),
(114,570,o),
(80,606,o),
(80,644,cs),
(80,682,o),
(114,718,o),
(158,718,cs),
(164,718,o),
(164,718,o),
(172,718,c),
(134,709,o),
(102,682,o),
(102,644,cs)
);
}
);
width = 316;
}
);
},
{
color = (153, 255, 154, 255);
glyphname = j.7.acc;
layers = (
{
layerId = "A410FBA5-8D09-49B2-9E86-D368B18AE5F7";
shapes = (
{
closed = 1;
nodes = (
(-981,940,l),
(-1047,981,o),
(-1140,1011,o),
(-1269,1011,cs),
(-1699,1011,o),
(-1914,686,o),
(-1914,372,cs),
(-1914,54,o),
(-1694,-294,o),
(-1298,-294,cs),
(-574,-294,o),
(-294,942,o),
(306,942,cs),
(493,942,o),
(600,813,o),
(600,682,cs),
(600,545,o),
(503,407,o),
(328,407,cs),
(306,407,o),
(283,411,o),
(260,417,c),
(260,500,l),
(222,493,o),
(179,489,o),
(133,486,c),
(101,515,o),
(78,551,o),
(72,593,c),
(90,568,o),
(128,546,o),
(166,546,cs),
(226,546,o),
(272,592,o),
(272,644,cs),
(272,699,o),
(230,740,o),
(166,740,cs),
(84,740,o),
(45,678,o),
(45,611,cs),
(45,561,o),
(65,518,o),
(98,484,c),
(62,482,o),
(25,481,o),
(-14,481,c),
(-14,473,l),
(42,473,o),
(63,468,o),
(63,416,cs),
(63,-176,ls),
(63,-223,o),
(46,-280,o),
(-7,-280,cs),
(-30,-280,o),
(-41,-269,o),
(-44,-262,c),
(-11,-247,o),
(5,-211,o),
(5,-177,cs),
(5,-133,o),
(-21,-91,o),
(-74,-91,cs),
(-123,-91,o),
(-151,-128,o),
(-151,-177,cs),
(-151,-235,o),
(-113,-290,o),
(19,-290,cs),
(196,-290,o),
(260,-192,o),
(260,-58,cs),
(260,407,l),
(282,403,o),
(304,401,o),
(328,401,cs),
(507,401,o),
(606,543,o),
(606,682,cs),
(606,817,o),
(497,992,o),
(306,992,cs),
(-213,992,o),
(-474,-134,o),
(-1298,-134,cs),
(-1690,-134,o),
(-1908,58,o),
(-1908,372,cs),
(-1908,684,o),
(-1695,1005,o),
(-1269,1005,cs),
(-1141,1005,o),
(-1049,974,o),
(-984,934,c)
);
},
{
closed = 1;
nodes = (
(88,407,ls),
(88,421,o),
(86,445,o),
(81,458,c),
(101,460,l),
(106,447,o),
(108,423,o),
(108,409,cs),
(108,-177,ls),
(108,-214,o),
(93,-263,o),
(71,-263,c),
(83,-242,o),
(88,-217,o),
(88,-177,cs)
);
},
{
closed = 1;
nodes = (
(102,606,o),
(134,579,o),
(172,570,c),
(164,570,o),
(164,570,o),
(158,570,cs),
(114,570,o),
(80,606,o),
(80,644,cs),
(80,682,o),
(114,718,o),
(158,718,cs),
(164,718,o),
(164,718,o),
(172,718,c),
(134,709,o),
(102,682,o),
(102,644,cs)
);
},
{
closed = 1;
nodes = (
(-734,39,l),
(-900,-98,o),
(-1083,-186,o),
(-1298,-186,cs),
(-1496,-186,o),
(-1673,-122,o),
(-1798,5,c),
(-1796,7,l),
(-1672,-107,o),
(-1496,-164,o),
(-1298,-164,cs),
(-1084,-164,o),
(-900,-84,o),
(-736,41,c)
);
},
{
closed = 1;
nodes = (
(155,932,l),
(205,954,o),
(256,967,o),
(309,967,cs),
(371,967,o),
(424,951,o),
(467,924,c),
(467,922,l),
(424,946,o),
(371,960,o),
(309,960,cs),
(256,960,o),
(205,949,o),
(155,930,c)
);
}
);
width = 316;
}
);
},
{
color = (255, 153, 153, 255);
glyphname = k;
layers = (
{
guides = (
{
position = "{0, 474}";
}
);
hints = (
{
horizontal = 1;
place = (-6,38);
type = Stem;
},
{
horizontal = 1;
place = (-6,244);
type = Stem;
},
{
horizontal = 1;
place = (224,111);
type = Stem;
},
{
horizontal = 1;
place = (255,80);
type = Stem;
},
{
horizontal = 1;
place = (462,29);
type = Stem;
},
{
horizontal = 1;
place = (736,-20);
target = down;
type = TopGhost;
},
{
place = (88,207);
type = Stem;
},
{
place = (388,198);
type = Stem;
}
);
layerId = "A410FBA5-8D09-49B2-9E86-D368B18AE5F7";
shapes = (
{
closed = 1;
nodes = (
(342.5,481,ls),
(340.4,481,o),
(339,479.6,o),
(339,477.5,c),
(339,477.5,l),
(339,475.452,o),
(340.351,474.039,o),
(342.496,473.845,cs),
(389.778,469.557,o),
(384.429,377.288,o),
(319,306,cs),
(262,243,l),
(262,721,l),
(-12,689,l),
(-12,682,l),
(44,682,o),
(65,686,o),
(65,634,cs),
(65,0,l),
(262,0,l),
(262,233,l),
(274,246,l),
(275,247,o),
(276,248,o),
(277,249,c),
(283,256,o),
(290,261,o),
(299,261,cs),
(358,261,o),
(276,-9,o),
(494,-9,cs),
(537,-9,o),
(614,13,o),
(614,53,c),
(607,53,l),
(607,45,o),
(604,37,o),
(593,37,cs),
(576,37,o),
(564,79,o),
(554,129,cs),
(540,202,o),
(483,281,o),
(362,281,cs),
(343,281,o),
(318,279,o),
(296,270,c),
(328,305,ls),
(401,386,o),
(513,474,o),
(585,474,cs),
(589,474,o),
(591,476,o),
(591,478,cs),
(591,479,o),
(589,481,o),
(585,481,cs)
);
},
{
closed = 1;
nodes = (
(104,677,l),
(110,662,o),
(110,650,o),
(110,637,c),
(110,24,l),
(90,24,l),
(90,637,l),
(90,650,o),
(88,666,o),
(83,677,c)
);
},
{
closed = 1;
nodes = (
(391,91,o),
(404,19,o),
(502,13,c),
(502,13,o),
(495,13,o),
(495,13,c),
(384,13,o),
(366,91,o),
(352,191,cs),
(349,213,o),
(344,234,o),
(336,248,c),
(356,248,o),
(366,221,o),
(372,191,cs)
);
},
{
closed = 1;
nodes = (
(415,457,l),
(424,429,o),
(403,400,o),
(389,389,c),
(400,418,o),
(401,450,o),
(393,457,c)
);
}
);
width = 617;
}
);
unicode = 107;
},
{
color = (153, 255, 154, 255);
glyphname = k.7;
layers = (
{
guides = (
{
position = "{0, 474}";
}
);
hints = (
{
horizontal = 1;
place = (-6,38);
type = Stem;
},
{
horizontal = 1;
place = (-6,244);
type = Stem;
},
{
horizontal = 1;
place = (224,111);
type = Stem;
},
{
horizontal = 1;
place = (255,80);
type = Stem;
},
{
horizontal = 1;
place = (438,29);
type = Stem;
},
{
horizontal = 1;
place = (736,-20);
target = down;
type = TopGhost;
},
{
place = (88,207);
type = Stem;
},
{
place = (388,198);
type = Stem;
}
);
layerId = "A410FBA5-8D09-49B2-9E86-D368B18AE5F7";
shapes = (
{
closed = 1;
nodes = (
(342.5,481,ls),
(340.4,481.,o),
(339,479.6,o),
(339,477.5,c),
(339,477.5,l),
(339,475.452,o),
(340.351,474.039,o),
(342.496,473.845,cs),
(389.778,469.557,o),
(384.429,377.288,o),
(319,306,cs),
(262,243,l),
(262,721,l),
(-12,689,l),
(-12,682,l),
(44,682,o),
(65,686,o),
(65,634,cs),
(65,50,l),
(-242,-284,o),
(-592,-616,o),
(-1028,-616,cs),
(-1504,-616,o),
(-1891,-229,o),
(-1891,247,cs),
(-1891,723,o),
(-1504,1110,o),
(-1028,1110,cs),
(-817,1110,o),
(-623,1034,o),
(-473,907,c),
(-468,911,l),
(-619,1039,o),
(-815,1116,o),
(-1028,1116,cs),
(-1508,1116,o),
(-1897,727,o),
(-1897,247,cs),
(-1897,-233,o),
(-1508,-622,o),
(-1028,-622,cs),
(-593,-622,o),
(-243,-293,o),
(65,39,c),
(65,0,l),
(262,0,l),
(262,233,l),
(274,246,l),
(277,249,o),
(287,259,o),
(289,262,c),
(293,265,o),
(297,266,o),
(302,266,cs),
(346,266,o),
(351,37,o),
(478,-143,cs),
(576,-281,o),
(754,-381,o),
(1021,-381,cs),
(1333,-381,o),
(1600,-127,o),
(1600,201,cs),
(1600,526,o),
(1335,789,o),
(1010,789,cs),
(807,789,o),
(631,661,o),
(463,481,c)
);
},
{
closed = 1;
nodes = (
(584,474,o),
(585,475,o),
(585,477,c),
(585,479,o),
(584,481,o),
(582,481,c),
(474,481,l),
(639,658,o),
(812,783,o),
(1010,783,cs),
(1331,783,o),
(1594,522,o),
(1594,201,cs),
(1594,-116,o),
(1340,-364,o),
(1051,-364,cs),
(882,-364,o),
(800,-243,o),
(683,-75,cs),
(562,98,o),
(452,274,o),
(304,274,c),
(303,274,o),
(301,274,o),
(299,274,c),
(328,305,l),
(400,385,o),
(510,471,o),
(582,474,c)
);
},
{
closed = 1;
nodes = (
(104,677,l),
(110,662,o),
(110,650,o),
(110,637,c),
(110,24,l),
(90,24,l),
(90,637,l),
(90,650,o),
(88,666,o),
(83,677,c)
);
},
{
closed = 1;
nodes = (
(415,457,l),
(424,429,o),
(403,400,o),
(389,389,c),
(400,418,o),
(401,450,o),
(393,457,c)
);
}
);
width = 603;
}
);
},
{
color = (153, 255, 154, 255);
glyphname = k.6;
layers = (
{
layerId = "A410FBA5-8D09-49B2-9E86-D368B18AE5F7";
shapes = (
{
closed = 1;
nodes = (
(583.62,474.013,o),
(585,475.42,o),
(585,477.5,c),
(585,477.5,l),
(585,479.6,o),
(583.6,481.,o),
(581.5,481,cs),
(342.5,481,ls),
(340.4,481,o),
(339,479.6,o),
(339,477.5,c),
(339,477.5,l),
(339,475.452,o),
(340.351,474.039,o),
(342.496,473.845,cs),
(389.778,469.557,o),
(384.429,377.288,o),
(319,306,cs),
(262,243,l),
(262,617,ls),
(262,978,o),
(500,1233,o),
(829,1233,cs),
(1270,1233,o),
(1627,872,o),
(1627,421,cs),
(1627,-24,o),
(1274,-382,o),
(839,-382,cs),
(646,-382,o),
(468,-308,o),
(334,-187,c),
(328,-192,l),
(462,-314,o),
(642,-389,o),
(839,-389,cs),
(1279,-389,o),
(1633,-29,o),
(1633,421,cs),
(1633,878,o),
(1274,1243,o),
(826,1243,cs),
(357,1243,o),
(65,923,o),
(65,517,cs),
(65,0,l),
(262,0,l),
(262,233,l),
(315,291,l),
(314,230,o),
(305,-9,o),
(509,-9,cs),
(556,-9,o),
(612,-2,o),
(606,48,c),
(602,49,l),
(602,38,o),
(600,32,o),
(593,32,cs),
(546,32,o),
(575,298,o),
(325,302,c),
(328,305,l),
(399.828,384.699,o),
(509.413,471.176,o),
(581.501,473.932,cs)
);
},
{
closed = 1;
nodes = (
(415,457,l),
(424,429,o),
(403,400,o),
(389,389,c),
(400,418,o),
(401,450,o),
(393,457,c)
);
},
{
closed = 1;
nodes = (
(355,1073,l),
(175,933,o),
(110,668,o),
(110,522,cs),
(110,24,l),
(90,24,l),
(90,522,ls),
(90,734,o),
(169,937,o),
(350,1073,c)
);
}
);
width = 617;
}
);
},
{
color = (153, 255, 154, 255);
glyphname = k.44;
layers = (
{
layerId = "A410FBA5-8D09-49B2-9E86-D368B18AE5F7";
shapes = (
{
closed = 1;
nodes = (
(583.62,474.013,o),
(585,475.42,o),
(585,477.5,c),
(585,477.5,l),
(585,479.6,o),
(583.6,481.,o),
(581.5,481,cs),
(342.5,481,ls),
(340.4,481,o),
(339,479.6,o),
(339,477.5,c),
(339,477.5,l),
(339,475.452,o),
(340.351,474.039,o),
(342.496,473.845,cs),
(389.778,469.557,o),
(384.429,377.288,o),
(319,306,cs),
(262,243,l),
(262,619,ls),
(262,980,o),
(506,1233,o),
(829,1233,cs),
(1270,1233,o),
(1627,872,o),
(1627,421,cs),
(1627,-35,o),
(1266,-383,o),
(826,-383,cs),
(-125,-383,o),
(-342,934,o),
(-1284,934,cs),
(-1615,934,o),
(-1905,737,o),
(-2043,455,c),
(-2037,453,l),
(-1900,733,o),
(-1613,928,o),
(-1284,928,cs),
(-355,928,o),
(-124,-389,o),
(826,-389,cs),
(1284,-389,o),
(1633,-19,o),
(1633,421,cs),
(1633,878,o),
(1274,1243,o),
(826,1243,cs),
(357,1243,o),
(65,923,o),
(65,517,cs),
(65,0,l),
(262,0,l),
(262,233,l),
(315,291,l),
(314,230,o),
(305,-9,o),
(509,-9,cs),
(556,-9,o),
(612,-2,o),
(606,48,c),
(602,49,l),
(602,38,o),
(600,32,o),
(593,32,cs),
(546,32,o),
(575,298,o),
(325,302,c),
(328,305,l),
(399.828,384.699,o),
(509.413,471.176,o),
(581.501,473.932,cs)
);
},
{
closed = 1;
nodes = (
(415,457,l),
(424,429,o),
(403,400,o),
(389,389,c),
(400,418,o),
(401,450,o),
(393,457,c)
);
},
{
closed = 1;
nodes = (
(355,1073,l),
(175,933,o),
(110,668,o),
(110,522,cs),
(110,24,l),
(90,24,l),
(90,522,ls),
(90,734,o),
(169,937,o),
(350,1073,c)
);
}
);
width = 617;
}
);
},
{
color = (153, 255, 154, 255);
glyphname = k.44.acc;
layers = (
{
layerId = "A410FBA5-8D09-49B2-9E86-D368B18AE5F7";
shapes = (
{
closed = 1;
nodes = (
(583.62,474.013,o),
(585,475.42,o),
(585,477.5,c),
(585,477.5,l),
(585,479.6,o),
(583.6,481.,o),
(581.5,481,cs),
(342.5,481,ls),
(340.4,481,o),
(339,479.6,o),
(339,477.5,c),
(339,477.5,l),
(339,475.452,o),
(340.351,474.039,o),
(342.496,473.845,cs),
(389.778,469.557,o),
(384.429,377.288,o),
(319,306,cs),
(262,243,l),
(262,619,ls),
(262,972,o),
(505,1233,o),
(829,1233,cs),
(1270,1233,o),
(1627,872,o),
(1627,421,cs),
(1627,-35,o),
(1266,-328,o),
(826,-328,cs),
(294,-328,o),
(9,-57,o),
(-295,318,cs),
(-557,641,o),
(-846,934,o),
(-1284,934,cs),
(-1615,934,o),
(-1905,737,o),
(-2043,455,c),
(-2037,453,l),
(-1900,733,o),
(-1613,928,o),
(-1284,928,cs),
(-849,928,o),
(-562,643,o),
(-299,314,cs),
(27,-93,o),
(344,-488,o),
(826,-488,cs),
(1284,-488,o),
(1633,-19,o),
(1633,421,cs),
(1633,878,o),
(1274,1243,o),
(826,1243,cs),
(357,1243,o),
(65,923,o),
(65,517,cs),
(65,0,l),
(262,0,l),
(262,233,l),
(315,291,l),
(314,230,o),
(305,-9,o),
(509,-9,cs),
(556,-9,o),
(612,-2,o),
(606,48,c),
(602,49,l),
(602,38,o),
(600,32,o),
(593,32,cs),
(546,32,o),
(575,298,o),
(325,302,c),
(328,305,l),
(399.828,384.699,o),
(509.413,471.176,o),
(581.501,473.932,cs)
);
},
{
closed = 1;
nodes = (
(415,457,l),
(424,429,o),
(403,400,o),
(389,389,c),
(400,418,o),
(401,450,o),
(393,457,c)
);
},
{
closed = 1;
nodes = (
(355,1073,l),
(175,933,o),
(110,668,o),
(110,522,cs),
(110,24,l),
(90,24,l),
(90,522,ls),
(90,734,o),
(169,937,o),
(350,1073,c)
);
},
{
closed = 1;
nodes = (
(1377,-169,l),
(1229,-302,o),
(1051,-380,o),
(826,-380,cs),
(618,-380,o),
(407,-316,o),
(263,-232,c),
(265,-230,l),
(407,-302,o),
(618,-358,o),
(826,-358,cs),
(1051,-358,o),
(1229,-288,o),
(1375,-167,c)
);
}
);
width = 617;
}
);
},
{
color = (153, 255, 154, 255);
glyphname = k.7.acc;
layers = (
{
guides = (
{
position = "{0, 474}";
}
);
hints = (
{
horizontal = 1;
place = (-6,38);
type = Stem;
},
{
horizontal = 1;
place = (-6,244);
type = Stem;
},
{
horizontal = 1;
place = (224,111);
type = Stem;
},
{
horizontal = 1;
place = (255,80);
type = Stem;
},
{
horizontal = 1;
place = (438,29);
type = Stem;
},
{
horizontal = 1;
place = (736,-20);
target = down;
type = TopGhost;
},
{
place = (88,207);
type = Stem;
},
{
place = (388,198);
type = Stem;
}
);
layerId = "A410FBA5-8D09-49B2-9E86-D368B18AE5F7";
shapes = (
{
closed = 1;
nodes = (
(342.5,481,ls),
(340.4,481.,o),
(339,479.6,o),
(339,477.5,c),
(339,477.5,l),
(339,475.452,o),
(340.351,474.039,o),
(342.496,473.845,cs),
(389.778,469.557,o),
(384.429,377.288,o),
(319,306,cs),
(262,243,l),
(262,721,l),
(-12,689,l),
(-12,682,l),
(44,682,o),
(65,686,o),
(65,634,cs),
(65,53,l),
(-242,-262,o),
(-592,-492,o),
(-1028,-492,cs),
(-1504,-492,o),
(-1891,-229,o),
(-1891,247,cs),
(-1891,723,o),
(-1504,1110,o),
(-1028,1110,cs),
(-817,1110,o),
(-623,1034,o),
(-473,907,c),
(-468,911,l),
(-619,1039,o),
(-815,1116,o),
(-1028,1116,cs),
(-1508,1116,o),
(-1897,727,o),
(-1897,247,cs),
(-1897,-233,o),
(-1508,-652,o),
(-1028,-652,cs),
(-593,-652,o),
(-243,-299,o),
(65,39,c),
(65,0,l),
(262,0,l),
(262,233,l),
(267,238,o),
(284,257,o),
(289,262,c),
(293,265,o),
(297,266,o),
(302,266,cs),
(346,266,o),
(351,37,o),
(478,-143,cs),
(576,-281,o),
(754,-381,o),
(1021,-381,cs),
(1333,-381,o),
(1600,-127,o),
(1600,201,cs),
(1600,526,o),
(1335,789,o),
(1010,789,cs),
(807,789,o),
(631,661,o),
(463,481,c)
);
},
{
closed = 1;
nodes = (
(583.62,474.013,o),
(585,475.42,o),
(585,477.5,c),
(585,477.5,l),
(585,479.6,o),
(583.6,481.,o),
(581.5,481,cs),
(474,481,l),
(639,658,o),
(812,783,o),
(1010,783,cs),
(1331,783,o),
(1594,522,o),
(1594,201,cs),
(1594,-116,o),
(1340,-364,o),
(1051,-364,cs),
(882,-364,o),
(800,-243,o),
(683,-75,cs),
(562,98,o),
(452,274,o),
(304,274,cs),
(303,274,o),
(301,274,o),
(299,274,c),
(328,305,l),
(399.828,384.699,o),
(509.413,471.176,o),
(581.501,473.932,cs)
);
},
{
closed = 1;
nodes = (
(104,677,l),
(110,662,o),
(110,650,o),
(110,637,c),
(110,24,l),
(90,24,l),
(90,637,l),
(90,650,o),
(88,666,o),
(83,677,c)
);
},
{
closed = 1;
nodes = (
(415,457,l),
(424,429,o),
(403,400,o),
(389,389,c),
(400,418,o),
(401,450,o),
(393,457,c)
);
},
{
closed = 1;
nodes = (
(-342,-321,l),
(-544,-449,o),
(-767,-544,o),
(-1028,-544,cs),
(-1277,-544,o),
(-1500,-455,o),
(-1657,-320,c),
(-1655,-318,l),
(-1500,-440,o),
(-1277,-522,o),
(-1028,-522,cs),
(-767,-522,o),
(-544,-435,o),
(-344,-319,c)
);
},
{
closed = 1;
nodes = (
(387,138,l),
(420,50,o),
(462,-36,o),
(519,-114,cs),
(593,-216,o),
(702,-302,o),
(864,-338,c),
(864,-340,l),
(703,-306,o),
(581,-238,o),
(501,-125,cs),
(454,-58,o),
(416,43,o),
(385,133,c)
);
}
);
width = 603;
}
);
},
{
color = (153, 255, 154, 255);
glyphname = k.9;
layers = (
{
layerId = "A410FBA5-8D09-49B2-9E86-D368B18AE5F7";
shapes = (
{
closed = 1;
nodes = (
(583.62,474.013,o),
(585,475.42,o),
(585,477.5,c),
(585,477.5,l),
(585,479.6,o),
(583.6,481.,o),
(581.5,481,cs),
(342.5,481,ls),
(340.4,481,o),
(339,479.6,o),
(339,477.5,c),
(339,477.5,l),
(339,475.452,o),
(340.351,474.039,o),
(342.496,473.845,cs),
(389.778,469.557,o),
(384.429,377.288,o),
(319,306,cs),
(262,243,l),
(262,721,l),
(-12,689,l),
(-12,682,l),
(44,682,o),
(65,686,o),
(65,634,cs),
(65,0,l),
(262,0,l),
(262,233,l),
(314,290,l),
(313,281,o),
(312,271,o),
(312,260,cs),
(312,126,o),
(409,-152,o),
(721,-152,cs),
(940,-152,o),
(1052,-14,o),
(1052,123,cs),
(1052,216,o),
(1000,301,o),
(910,301,cs),
(845,301,o),
(801,256,o),
(801,203,cs),
(801,152,o),
(842,105,o),
(905,105,cs),
(954,105,o),
(995,134,o),
(1011,171,c),
(1019,144,o),
(1023,120,o),
(1023,94,cs),
(1023,-31,o),
(931,-121,o),
(798,-121,cs),
(510,-121,o),
(656,301,o),
(324,301,c),
(328,305,l),
(399.828,384.699,o),
(509.413,471.176,o),
(581.501,473.932,cs)
);
},
{
closed = 1;
nodes = (
(104,677,l),
(110,662,o),
(110,650,o),
(110,637,c),
(110,24,l),
(90,24,l),
(90,637,l),
(90,650,o),
(88,666,o),
(83,677,c)
);
},
{
closed = 1;
nodes = (
(415,457,l),
(424,429,o),
(403,400,o),
(389,389,c),
(400,418,o),
(401,450,o),
(393,457,c)
);
},
{
closed = 1;
nodes = (
(848,165,o),
(880,138,o),
(918,129,c),
(910,129,o),
(910,129,o),
(904,129,cs),
(860,129,o),
(826,165,o),
(826,203,cs),
(826,241,o),
(860,277,o),
(904,277,cs),
(910,277,o),
(910,277,o),
(918,277,c),
(880,268,o),
(848,241,o),
(848,203,cs)
);
},
{
closed = 1;
nodes = (
(347,216,l),
(376,105,o),
(490,-77,o),
(636,-120,c),
(636,-122,l),
(437,-68,o),
(359,105,o),
(342,222,c)
);
}
);
width = 1100;
}
);
},
{
color = (255, 153, 153, 255);
glyphname = l;
layers = (
{
hints = (
{
horizontal = 1;
place = (-6,38);
type = Stem;
},
{
horizontal = 1;
place = (736,-20);
target = down;
type = TopGhost;
},
{
place = (57,198);
type = Stem;
}
);
layerId = "A410FBA5-8D09-49B2-9E86-D368B18AE5F7";
shapes = (
{
closed = 1;
nodes = (
(305,37,l),
(302,32,o),
(292,24,o),
(280,24,cs),
(256,24,o),
(250,52,o),
(250,122,cs),
(250,721,l),
(-20,689,l),
(-20,682,l),
(36,682,o),
(57,686,o),
(57,634,cs),
(57,118,ls),
(57,34,o),
(102,-9,o),
(192,-9,cs),
(250,-9,o),
(295,9,o),
(311,30,c)
);
},
{
closed = 1;
nodes = (
(82,637,ls),
(82,650,o),
(80,666,o),
(75,677,c),
(96,677,l),
(102,662,o),
(102,650,o),
(102,637,cs),
(102,120,ls),
(102,49,o),
(133,22,o),
(198,16,c),
(198,16,o),
(192,16,o),
(192,16,c),
(114,16,o),
(82,49,o),
(82,120,cs)
);
}
);
width = 315;
}
);
unicode = 108;
},
{
color = (153, 255, 154, 255);
glyphname = l.5;
layers = (
{
layerId = "A410FBA5-8D09-49B2-9E86-D368B18AE5F7";
shapes = (
{
closed = 1;
nodes = (
(620,-134,l),
(597,-192,o),
(521,-222,o),
(456,-222,cs),
(348,-222,o),
(250,-145,o),
(250,31,cs),
(250,721,l),
(-20,689,l),
(-20,682,l),
(36,682,o),
(57,686,o),
(57,634,cs),
(57,129,ls),
(57,-52,o),
(99,-239,o),
(413,-239,cs),
(501,-239,o),
(596,-208,o),
(625,-139,c)
);
},
{
closed = 1;
nodes = (
(82,637,ls),
(82,650,o),
(80,666,o),
(75,677,c),
(96,677,l),
(102,662,o),
(102,650,o),
(102,637,cs),
(102,120,ls),
(102,-73,o),
(184,-168,o),
(294,-200,c),
(294,-203,l),
(176,-175,o),
(82,-85,o),
(82,120,cs)
);
}
);
width = 312;
}
);
},
{
color = (153, 255, 154, 255);
glyphname = l.4;
layers = (
{
layerId = "A410FBA5-8D09-49B2-9E86-D368B18AE5F7";
shapes = (
{
closed = 1;
nodes = (
(-23,682,l),
(33,682,o),
(54,686,o),
(54,634,cs),
(54,173,ls),
(54,-192,o),
(373,-413,o),
(753,-413,cs),
(1096,-413,o),
(1373,-136,o),
(1373,207,cs),
(1373,544,o),
(1100,817,o),
(763,817,cs),
(605,817,o),
(461,757,o),
(353,659,c),
(359,655,l),
(466,752,o),
(608,811,o),
(763,811,cs),
(1096,811,o),
(1367,540,o),
(1367,207,cs),
(1367,-126,o),
(1096,-397,o),
(763,-397,cs),
(492,-397,o),
(247,-231,o),
(247,138,cs),
(247,721,l),
(-23,689,l)
);
},
{
closed = 1;
nodes = (
(99,157,ls),
(99,-17,o),
(198,-199,o),
(412,-316,c),
(340,-301,o),
(79,-146,o),
(79,168,cs),
(79,637,l),
(79,650,o),
(77,666,o),
(72,677,c),
(93,677,l),
(99,662,o),
(99,650,o),
(99,637,c)
);
}
);
width = 312;
}
);
},
{
color = (153, 255, 154, 255);
glyphname = l.6;
layers = (
{
layerId = "A410FBA5-8D09-49B2-9E86-D368B18AE5F7";
shapes = (
{
closed = 1;
nodes = (
(323,-192,l),
(457,-314,o),
(637,-389,o),
(834,-389,cs),
(1274,-389,o),
(1628,-29,o),
(1628,421,cs),
(1628,878,o),
(1269,1243,o),
(821,1243,cs),
(352,1243,o),
(57,923,o),
(57,517,cs),
(57,118,ls),
(57,34,o),
(101,-9,o),
(193,-9,cs),
(249,-9,o),
(295,9,o),
(311,30,c),
(305,37,l),
(302,32,o),
(292,24,o),
(280,24,cs),
(256,24,o),
(250,52,o),
(250,122,cs),
(250,617,ls),
(250,978,o),
(495,1233,o),
(824,1233,cs),
(1265,1233,o),
(1622,872,o),
(1622,421,cs),
(1622,-24,o),
(1269,-382,o),
(834,-382,cs),
(641,-382,o),
(463,-308,o),
(329,-187,c)
);
},
{
closed = 1;
nodes = (
(82,515,ls),
(82,727,o),
(161,937,o),
(342,1073,c),
(347,1073,l),
(167,933,o),
(102,691,o),
(102,522,cs),
(102,120,ls),
(102,49,o),
(133,22,o),
(198,16,c),
(198,16,o),
(192,16,o),
(192,16,c),
(114,16,o),
(82,49,o),
(82,120,cs)
);
}
);
width = 315;
}
);
},
{
color = (153, 255, 154, 255);
glyphname = l.6.more;
layers = (
{
layerId = "A410FBA5-8D09-49B2-9E86-D368B18AE5F7";
shapes = (
{
closed = 1;
nodes = (
(-662,-320,l),
(-560,-210,o),
(-410,-146,o),
(-242,-146,cs),
(137,-146,o),
(403,-388,o),
(833,-388,cs),
(1271,-388,o),
(1627,-28,o),
(1627,421,cs),
(1627,878,o),
(1268,1243,o),
(820,1243,cs),
(348,1243,o),
(52,923,o),
(52,517,cs),
(52,118,ls),
(52,34,o),
(96,-9,o),
(188,-9,cs),
(244,-9,o),
(290,9,o),
(306,30,c),
(300,37,l),
(297,32,o),
(287,24,o),
(275,24,cs),
(251,24,o),
(245,52,o),
(245,122,cs),
(245,617,ls),
(245,978,o),
(494,1233,o),
(823,1233,cs),
(1264,1233,o),
(1621,872,o),
(1621,421,cs),
(1621,-24,o),
(1268,-382,o),
(833,-382,cs),
(411,-382,o),
(140,-140,o),
(-242,-140,cs),
(-413,-140,o),
(-567,-205,o),
(-670,-318,c)
);
},
{
closed = 1;
nodes = (
(77,515,ls),
(77,727,o),
(156,937,o),
(337,1073,c),
(342,1073,l),
(162,933,o),
(97,691,o),
(97,522,cs),
(97,120,ls),
(97,49,o),
(128,22,o),
(193,16,c),
(193,16,o),
(187,16,o),
(187,16,c),
(109,16,o),
(77,49,o),
(77,120,cs)
);
}
);
width = 310;
}
);
},
{
color = (153, 255, 154, 255);
glyphname = l.6.more.acc;
layers = (
{
layerId = "A410FBA5-8D09-49B2-9E86-D368B18AE5F7";
shapes = (
{
closed = 1;
nodes = (
(-662,-320,l),
(-560,-210,o),
(-410,-146,o),
(-242,-146,cs),
(137,-146,o),
(403,-459,o),
(833,-459,cs),
(1271,-459,o),
(1627,-28,o),
(1627,421,cs),
(1627,878,o),
(1268,1243,o),
(820,1243,cs),
(348,1243,o),
(52,923,o),
(52,517,cs),
(52,118,ls),
(52,34,o),
(96,-9,o),
(188,-9,cs),
(244,-9,o),
(290,9,o),
(306,30,c),
(300,37,l),
(297,32,o),
(287,24,o),
(275,24,cs),
(251,24,o),
(245,52,o),
(245,122,cs),
(245,617,ls),
(245,978,o),
(494,1233,o),
(823,1233,cs),
(1264,1233,o),
(1621,872,o),
(1621,421,cs),
(1621,-24,o),
(1268,-299,o),
(833,-299,cs),
(411,-299,o),
(140,-140,o),
(-242,-140,cs),
(-413,-140,o),
(-567,-205,o),
(-670,-318,c)
);
},
{
closed = 1;
nodes = (
(77,515,ls),
(77,727,o),
(156,937,o),
(337,1073,c),
(342,1073,l),
(162,933,o),
(97,691,o),
(97,522,cs),
(97,120,ls),
(97,49,o),
(128,22,o),
(193,16,c),
(193,16,o),
(187,16,o),
(187,16,c),
(109,16,o),
(77,49,o),
(77,120,cs)
);
},
{
closed = 1;
nodes = (
(1384,-140,l),
(1236,-273,o),
(1058,-351,o),
(833,-351,cs),
(621,-351,o),
(408,-291,o),
(260,-232,c),
(262,-230,l),
(408,-277,o),
(621,-329,o),
(833,-329,cs),
(1058,-329,o),
(1236,-259,o),
(1382,-138,c)
);
}
);
width = 310;
}
);
},
{
color = (153, 255, 154, 255);
glyphname = l.9;
layers = (
{
layerId = "A410FBA5-8D09-49B2-9E86-D368B18AE5F7";
shapes = (
{
closed = 1;
nodes = (
(-20,682,l),
(36,682,o),
(57,686,o),
(57,634,cs),
(57,178,ls),
(57,-25,o),
(196,-152,o),
(394,-152,cs),
(599,-152,o),
(716,-14,o),
(716,124,cs),
(716,216,o),
(664,301,o),
(574,301,cs),
(509,301,o),
(465,256,o),
(465,203,cs),
(465,152,o),
(506,105,o),
(569,105,cs),
(618,105,o),
(659,134,o),
(675,171,c),
(683,144,o),
(687,120,o),
(687,94,cs),
(687,-31,o),
(593,-121,o),
(466,-121,cs),
(354,-121,o),
(250,-56,o),
(250,160,cs),
(250,721,l),
(-20,689,l)
);
},
{
closed = 1;
nodes = (
(82,637,ls),
(82,650,o),
(80,666,o),
(75,677,c),
(96,677,l),
(102,662,o),
(102,650,o),
(102,637,cs),
(102,178,ls),
(102,8,o),
(204,-84,o),
(294,-111,c),
(294,-114,l),
(196,-90,o),
(82,-3,o),
(82,178,cs)
);
},
{
closed = 1;
nodes = (
(511,165,o),
(543,138,o),
(581,129,c),
(573,129,o),
(573,129,o),
(567,129,cs),
(523,129,o),
(489,165,o),
(489,203,cs),
(489,241,o),
(523,277,o),
(567,277,cs),
(573,277,o),
(573,277,o),
(581,277,c),
(543,268,o),
(511,241,o),
(511,203,cs)
);
}
);
width = 754;
}
);
},
{
color = (154, 153, 255, 255);
glyphname = m;
layers = (
{
hints = (
{
horizontal = 1;
place = (-6,38);
type = Stem;
},
{
horizontal = 1;
place = (446,21);
type = Stem;
},
{
place = (84,197);
type = Stem;
},
{
place = (403,198);
type = Stem;
},
{
place = (724,198);
type = Stem;
}
);
layerId = "A410FBA5-8D09-49B2-9E86-D368B18AE5F7";
shapes = (
{
closed = 1;
nodes = (
(67,0,l),
(264,0,l),
(264,278,ls),
(264,374,o),
(300,453,o),
(347,453,cs),
(379,453,o),
(384,421,o),
(384,329,cs),
(384,0,l),
(585,0,l),
(585,278,ls),
(585,374,o),
(621,453,o),
(668,453,cs),
(700,453,o),
(705,421,o),
(705,329,cs),
(705,184,ls),
(705,47,o),
(753,-9,o),
(848,-9,cs),
(909,-9,o),
(937,14,o),
(949,47,c),
(944,54,l),
(939,37,o),
(930,32,o),
(923,32,cs),
(909,32,o),
(906,60,o),
(906,106,cs),
(906,295,l),
(907,420,o),
(877,500,o),
(750,500,cs),
(621,500,o),
(591,385,o),
(583,353,c),
(573,444,o),
(535,500,o),
(429,500,cs),
(297,500,o),
(269,379,o),
(261,351,cs),
(257,339,o),
(253,344,o),
(253,351,cs),
(253,500,l),
(178,487,o),
(94,481,o),
(-10,481,c),
(-10,473,l),
(46,473,o),
(67,468,o),
(67,416,cs)
);
},
{
closed = 1;
nodes = (
(752,188,ls),
(752,51,o),
(805,24,o),
(861,18,c),
(854,18,o),
(854,18,o),
(848,18,c),
(789,18,o),
(732,37,o),
(732,188,cs),
(732,344,ls),
(732,396,o),
(732,447,o),
(705,467,c),
(751,459,o),
(752,396,o),
(752,344,cs)
);
},
{
closed = 1;
nodes = (
(112,24,l),
(92,24,l),
(92,407,ls),
(92,421,o),
(90,445,o),
(85,458,c),
(105,460,l),
(110,447,o),
(112,423,o),
(112,409,cs)
);
},
{
closed = 1;
nodes = (
(431,24,l),
(411,24,l),
(411,344,ls),
(411,396,o),
(411,447,o),
(384,467,c),
(430,459,o),
(431,396,o),
(431,344,cs)
);
}
);
width = 966;
}
);
unicode = 109;
},
{
color = (153, 255, 154, 255);
glyphname = m.5;
layers = (
{
layerId = "A410FBA5-8D09-49B2-9E86-D368B18AE5F7";
shapes = (
{
closed = 1;
nodes = (
(67,0,l),
(264,0,l),
(264,278,ls),
(264,374,o),
(300,453,o),
(347,453,cs),
(379,453,o),
(384,421,o),
(384,329,cs),
(384,0,l),
(585,0,l),
(585,278,ls),
(585,374,o),
(621,453,o),
(668,453,cs),
(700,453,o),
(705,421,o),
(705,329,cs),
(705,129,ls),
(705,-52,o),
(747,-239,o),
(1061,-239,cs),
(1149,-239,o),
(1244,-208,o),
(1273,-139,c),
(1268,-134,l),
(1245,-192,o),
(1169,-222,o),
(1104,-222,cs),
(996,-222,o),
(906,-145,o),
(906,31,cs),
(906,295,ls),
(906,420,o),
(877,500,o),
(750,500,cs),
(621,500,o),
(591,385,o),
(583,353,c),
(573,444,o),
(535,500,o),
(429,500,cs),
(297,500,o),
(269,379,o),
(261,351,cs),
(257,339,o),
(253,344,o),
(253,351,cs),
(253,500,l),
(178,487,o),
(94,481,o),
(-10,481,c),
(-10,473,l),
(46,473,o),
(67,468,o),
(67,416,cs)
);
},
{
closed = 1;
nodes = (
(112,24,l),
(92,24,l),
(92,407,ls),
(92,421,o),
(90,445,o),
(85,458,c),
(105,460,l),
(110,447,o),
(112,423,o),
(112,409,cs)
);
},
{
closed = 1;
nodes = (
(431,24,l),
(411,24,l),
(411,344,ls),
(411,396,o),
(411,447,o),
(384,467,c),
(430,459,o),
(431,396,o),
(431,344,cs)
);
},
{
closed = 1;
nodes = (
(752,106,ls),
(752,-87,o),
(834,-170,o),
(944,-202,c),
(944,-205,l),
(826,-177,o),
(732,-99,o),
(732,108,cs),
(732,346,ls),
(732,398,o),
(732,449,o),
(705,469,c),
(751,461,o),
(752,398,o),
(752,346,cs)
);
}
);
width = 966;
}
);
},
{
color = (153, 255, 154, 255);
glyphname = m.4;
layers = (
{
layerId = "A410FBA5-8D09-49B2-9E86-D368B18AE5F7";
shapes = (
{
closed = 1;
nodes = (
(67,0,l),
(264,0,l),
(264,278,ls),
(264,374,o),
(300,453,o),
(347,453,cs),
(379,453,o),
(384,421,o),
(384,329,cs),
(384,0,l),
(585,0,l),
(585,278,ls),
(585,374,o),
(621,453,o),
(668,453,cs),
(700,453,o),
(705,424,o),
(705,345,cs),
(705,173,l),
(707,-192,o),
(1029,-413,o),
(1415,-413,cs),
(1758,-413,o),
(2035,-136,o),
(2035,207,cs),
(2035,544,o),
(1762,817,o),
(1425,817,cs),
(1267,817,o),
(1123,757,o),
(1015,659,c),
(1021,655,l),
(1128,752,o),
(1270,811,o),
(1425,811,cs),
(1758,811,o),
(2029,540,o),
(2029,207,cs),
(2029,-126,o),
(1758,-397,o),
(1425,-397,cs),
(1154,-397,o),
(907,-231,o),
(907,138,cs),
(907,295,ls),
(907,420,o),
(877,500,o),
(750,500,cs),
(621,500,o),
(591,385,o),
(583,353,c),
(573,444,o),
(535,500,o),
(429,500,cs),
(297,500,o),
(269,379,o),
(261,351,cs),
(257,339,o),
(253,344,o),
(253,351,cs),
(253,500,l),
(178,487,o),
(94,481,o),
(-10,481,c),
(-10,473,l),
(46,473,o),
(67,468,o),
(67,416,cs)
);
},
{
closed = 1;
nodes = (
(112,24,l),
(92,24,l),
(92,407,ls),
(92,421,o),
(90,445,o),
(85,458,c),
(105,460,l),
(110,447,o),
(112,423,o),
(112,409,cs)
);
},
{
closed = 1;
nodes = (
(431,24,l),
(411,24,l),
(411,344,ls),
(411,396,o),
(411,447,o),
(384,467,c),
(430,459,o),
(431,396,o),
(431,344,cs)
);
},
{
closed = 1;
nodes = (
(752,157,ls),
(752,-17,o),
(851,-199,o),
(1065,-316,c),
(993,-298,o),
(732,-144,o),
(732,168,cs),
(732,344,ls),
(732,396,o),
(732,447,o),
(705,467,c),
(751,459,o),
(752,396,o),
(752,344,cs)
);
}
);
width = 966;
}
);
},
{
color = (153, 255, 154, 255);
glyphname = m.7;
layers = (
{
layerId = "A410FBA5-8D09-49B2-9E86-D368B18AE5F7";
shapes = (
{
closed = 1;
nodes = (
(67,0,l),
(264,0,l),
(264,278,ls),
(264,374,o),
(300,453,o),
(347,453,cs),
(379,453,o),
(384,421,o),
(384,329,cs),
(384,5,l),
(88,-317,o),
(-232,-616,o),
(-658,-616,cs),
(-1134,-616,o),
(-1521,-229,o),
(-1521,247,cs),
(-1521,723,o),
(-1134,1110,o),
(-658,1110,cs),
(-447,1110,o),
(-253,1034,o),
(-103,907,c),
(-98,911,l),
(-249,1039,o),
(-445,1116,o),
(-658,1116,cs),
(-1138,1116,o),
(-1527,727,o),
(-1527,247,cs),
(-1527,-233,o),
(-1138,-622,o),
(-658,-622,cs),
(-230,-622,o),
(91,-322,o),
(389,0,c),
(585,0,l),
(585,278,ls),
(585,374,o),
(621,453,o),
(668,453,cs),
(700,453,o),
(705,421,o),
(705,329,cs),
(705,184,ls),
(705,-186,o),
(1014,-396,o),
(1401,-396,cs),
(1732,-396,o),
(1999,-130,o),
(1999,201,cs),
(1999,526,o),
(1736,789,o),
(1411,789,cs),
(1182,789,o),
(984,668,o),
(795,496,c),
(782,499,o),
(767,500,o),
(750,500,cs),
(621,500,o),
(591,385,o),
(583,353,c),
(573,444,o),
(535,500,o),
(429,500,cs),
(297,500,o),
(269,379,o),
(261,351,cs),
(257,339,o),
(253,344,o),
(253,351,cs),
(253,500,l),
(178,487,o),
(94,481,o),
(-10,481,c),
(-10,473,l),
(46,473,o),
(67,468,o),
(67,416,cs)
);
},
{
closed = 1;
nodes = (
(992,663,o),
(1187,783,o),
(1411,783,cs),
(1732,783,o),
(1993,522,o),
(1993,201,cs),
(1993,-120,o),
(1732,-380,o),
(1411,-380,cs),
(1139,-380,o),
(906,-273,o),
(906,134,cs),
(906,295,ls),
(906,395,o),
(889,472,o),
(805,494,c)
);
},
{
closed = 1;
nodes = (
(431,24,l),
(411,24,l),
(411,344,ls),
(411,396,o),
(411,447,o),
(384,467,c),
(430,459,o),
(431,396,o),
(431,344,cs)
);
},
{
closed = 1;
nodes = (
(752,161,ls),
(752,-3,o),
(838,-213,o),
(1065,-316,c),
(993,-299,o),
(732,-140,o),
(732,168,cs),
(732,344,ls),
(732,396,o),
(732,447,o),
(705,467,c),
(751,459,o),
(752,396,o),
(752,344,cs)
);
},
{
closed = 1;
nodes = (
(112,24,l),
(92,24,l),
(92,407,ls),
(92,421,o),
(90,445,o),
(85,458,c),
(105,460,l),
(110,447,o),
(112,423,o),
(112,409,cs)
);
}
);
width = 966;
}
);
},
{
color = (153, 255, 154, 255);
glyphname = m.7.more;
layers = (
{
layerId = "A410FBA5-8D09-49B2-9E86-D368B18AE5F7";
shapes = (
{
closed = 1;
nodes = (
(67,0,l),
(264,0,l),
(264,278,ls),
(264,374,o),
(300,453,o),
(347,453,cs),
(379,453,o),
(384,421,o),
(384,329,cs),
(384,5,l),
(88,-317,o),
(-232,-616,o),
(-658,-616,cs),
(-1134,-616,o),
(-1521,-229,o),
(-1521,247,cs),
(-1521,723,o),
(-1134,1110,o),
(-658,1110,cs),
(-236,1110,o),
(35,868,o),
(417,868,cs),
(588,868,o),
(742,933,o),
(845,1046,c),
(837,1048,l),
(735,938,o),
(585,874,o),
(417,874,cs),
(38,874,o),
(-228,1116,o),
(-658,1116,cs),
(-1138,1116,o),
(-1527,727,o),
(-1527,247,cs),
(-1527,-233,o),
(-1138,-622,o),
(-658,-622,cs),
(-230,-622,o),
(91,-322,o),
(389,0,c),
(585,0,l),
(585,278,ls),
(585,374,o),
(621,453,o),
(668,453,cs),
(700,453,o),
(705,421,o),
(705,329,cs),
(705,184,ls),
(705,-186,o),
(1014,-396,o),
(1401,-396,cs),
(1732,-396,o),
(1999,-130,o),
(1999,201,cs),
(1999,526,o),
(1736,789,o),
(1411,789,cs),
(1182,789,o),
(984,668,o),
(794,495,c),
(781,498,o),
(766,500,o),
(750,500,cs),
(621,500,o),
(591,385,o),
(583,353,c),
(573,444,o),
(535,500,o),
(429,500,cs),
(297,500,o),
(269,379,o),
(261,351,cs),
(257,339,o),
(253,344,o),
(253,351,cs),
(253,500,l),
(178,487,o),
(94,481,o),
(-10,481,c),
(-10,473,l),
(46,473,o),
(67,468,o),
(67,416,cs)
);
},
{
closed = 1;
nodes = (
(992,663,o),
(1186,783,o),
(1411,783,cs),
(1732,783,o),
(1993,522,o),
(1993,201,cs),
(1993,-120,o),
(1732,-380,o),
(1411,-380,cs),
(1139,-380,o),
(906,-273,o),
(906,134,cs),
(906,295,ls),
(906,387,o),
(883,469,o),
(804,493,c)
);
},
{
closed = 1;
nodes = (
(431,24,l),
(411,24,l),
(411,344,ls),
(411,396,o),
(411,447,o),
(384,467,c),
(430,459,o),
(431,396,o),
(431,344,cs)
);
},
{
closed = 1;
nodes = (
(752,161,ls),
(752,-3,o),
(838,-213,o),
(1065,-316,c),
(993,-299,o),
(732,-140,o),
(732,168,cs),
(732,344,ls),
(732,396,o),
(732,447,o),
(705,467,c),
(751,459,o),
(752,396,o),
(752,344,cs)
);
},
{
closed = 1;
nodes = (
(112,24,l),
(92,24,l),
(92,407,ls),
(92,421,o),
(90,445,o),
(85,458,c),
(105,460,l),
(110,447,o),
(112,423,o),
(112,409,cs)
);
}
);
width = 966;
}
);
},
{
color = (153, 255, 154, 255);
glyphname = m.7.acc;
layers = (
{
layerId = "A410FBA5-8D09-49B2-9E86-D368B18AE5F7";
shapes = (
{
closed = 1;
nodes = (
(67,0,l),
(264,0,l),
(264,278,ls),
(264,374,o),
(300,453,o),
(347,453,cs),
(379,453,o),
(384,421,o),
(384,329,cs),
(384,8,l),
(88,-299,o),
(-232,-538,o),
(-658,-538,cs),
(-1134,-538,o),
(-1521,-229,o),
(-1521,247,cs),
(-1521,723,o),
(-1134,1110,o),
(-658,1110,cs),
(-447,1110,o),
(-253,1034,o),
(-103,907,c),
(-98,911,l),
(-249,1039,o),
(-445,1116,o),
(-658,1116,cs),
(-1138,1116,o),
(-1527,727,o),
(-1527,247,cs),
(-1527,-233,o),
(-1138,-698,o),
(-658,-698,cs),
(-229,-698,o),
(92,-338,o),
(391,0,c),
(585,0,l),
(585,278,ls),
(585,374,o),
(621,453,o),
(668,453,cs),
(700,453,o),
(705,421,o),
(705,329,cs),
(705,184,ls),
(705,-186,o),
(1014,-396,o),
(1401,-396,cs),
(1732,-396,o),
(1999,-130,o),
(1999,201,cs),
(1999,526,o),
(1736,820,o),
(1411,820,cs),
(1182,820,o),
(984,672,o),
(794,496,c),
(781,499,o),
(766,500,o),
(750,500,cs),
(621,500,o),
(591,385,o),
(583,353,c),
(573,444,o),
(535,500,o),
(429,500,cs),
(297,500,o),
(269,379,o),
(261,351,cs),
(257,339,o),
(253,344,o),
(253,351,cs),
(253,500,l),
(178,487,o),
(94,481,o),
(-10,481,c),
(-10,473,l),
(46,473,o),
(67,468,o),
(67,416,cs)
);
},
{
closed = 1;
nodes = (
(1703,707,l),
(1616,749,o),
(1515,777,o),
(1411,777,cs),
(1340,777,o),
(1258,761,o),
(1193,743,c),
(1214,753,l),
(1273,770,o),
(1349,786,o),
(1412,786,cs),
(1510,786,o),
(1602,762,o),
(1683,721,c)
);
},
{
closed = 1;
nodes = (
(991,661,o),
(1187,760,o),
(1411,760,cs),
(1732,760,o),
(1993,522,o),
(1993,201,cs),
(1993,-120,o),
(1732,-380,o),
(1411,-380,cs),
(1139,-380,o),
(906,-273,o),
(906,134,cs),
(906,295,ls),
(906,394,o),
(889,472,o),
(805,494,c)
);
},
{
closed = 1;
nodes = (
(431,24,l),
(411,24,l),
(411,344,ls),
(411,396,o),
(411,447,o),
(384,467,c),
(430,459,o),
(431,396,o),
(431,344,cs)
);
},
{
closed = 1;
nodes = (
(752,161,ls),
(752,-3,o),
(838,-213,o),
(1065,-316,c),
(993,-299,o),
(732,-140,o),
(732,168,cs),
(732,344,ls),
(732,396,o),
(732,447,o),
(705,467,c),
(751,459,o),
(752,396,o),
(752,344,cs)
);
},
{
closed = 1;
nodes = (
(112,24,l),
(92,24,l),
(92,407,ls),
(92,421,o),
(90,445,o),
(85,458,c),
(105,460,l),
(110,447,o),
(112,423,o),
(112,409,cs)
);
},
{
closed = 1;
nodes = (
(28,-344,l),
(-174,-485,o),
(-397,-590,o),
(-658,-590,cs),
(-907,-590,o),
(-1130,-492,o),
(-1287,-343,c),
(-1285,-341,l),
(-1130,-477,o),
(-907,-568,o),
(-658,-568,cs),
(-397,-568,o),
(-174,-471,o),
(26,-342,c)
);
}
);
width = 966;
}
);
},
{
color = (153, 255, 154, 255);
glyphname = m.7.more.acc;
layers = (
{
layerId = "A410FBA5-8D09-49B2-9E86-D368B18AE5F7";
shapes = (
{
closed = 1;
nodes = (
(67,0,l),
(264,0,l),
(264,278,ls),
(264,374,o),
(300,453,o),
(347,453,cs),
(379,453,o),
(384,421,o),
(384,329,cs),
(384,7,l),
(88,-296,o),
(-233,-514,o),
(-658,-514,cs),
(-1134,-514,o),
(-1521,-229,o),
(-1521,247,cs),
(-1521,723,o),
(-1134,1110,o),
(-658,1110,cs),
(-236,1110,o),
(35,868,o),
(417,868,cs),
(588,868,o),
(742,933,o),
(845,1046,c),
(837,1048,l),
(735,938,o),
(585,874,o),
(417,874,cs),
(38,874,o),
(-228,1116,o),
(-658,1116,cs),
(-1138,1116,o),
(-1527,727,o),
(-1527,247,cs),
(-1527,-233,o),
(-1138,-674,o),
(-658,-674,cs),
(-230,-674,o),
(91,-332,o),
(390,0,c),
(585,0,l),
(585,278,ls),
(585,374,o),
(621,453,o),
(668,453,cs),
(700,453,o),
(705,421,o),
(705,329,cs),
(705,184,ls),
(705,-186,o),
(1014,-396,o),
(1401,-396,cs),
(1732,-396,o),
(1999,-130,o),
(1999,201,cs),
(1999,526,o),
(1736,820,o),
(1411,820,cs),
(1182,820,o),
(984,672,o),
(794,496,c),
(781,499,o),
(766,500,o),
(750,500,cs),
(621,500,o),
(591,385,o),
(583,353,c),
(573,444,o),
(535,500,o),
(429,500,cs),
(297,500,o),
(269,379,o),
(261,351,cs),
(257,339,o),
(253,344,o),
(253,351,cs),
(253,500,l),
(178,487,o),
(94,481,o),
(-10,481,c),
(-10,473,l),
(46,473,o),
(67,468,o),
(67,416,cs)
);
},
{
closed = 1;
nodes = (
(1703,707,l),
(1616,749,o),
(1515,777,o),
(1411,777,cs),
(1340,777,o),
(1258,761,o),
(1193,743,c),
(1214,753,l),
(1273,770,o),
(1349,786,o),
(1412,786,cs),
(1510,786,o),
(1602,762,o),
(1683,721,c)
);
},
{
closed = 1;
nodes = (
(991,661,o),
(1187,760,o),
(1411,760,cs),
(1732,760,o),
(1993,522,o),
(1993,201,cs),
(1993,-120,o),
(1732,-380,o),
(1411,-380,cs),
(1139,-380,o),
(906,-273,o),
(906,134,cs),
(906,295,ls),
(906,394,o),
(889,472,o),
(805,494,c)
);
},
{
closed = 1;
nodes = (
(431,24,l),
(411,24,l),
(411,344,ls),
(411,396,o),
(411,447,o),
(384,467,c),
(430,459,o),
(431,396,o),
(431,344,cs)
);
},
{
closed = 1;
nodes = (
(752,161,ls),
(752,-3,o),
(838,-213,o),
(1065,-316,c),
(993,-299,o),
(732,-140,o),
(732,168,cs),
(732,344,ls),
(732,396,o),
(732,447,o),
(705,467,c),
(751,459,o),
(752,396,o),
(752,344,cs)
);
},
{
closed = 1;
nodes = (
(112,24,l),
(92,24,l),
(92,407,ls),
(92,421,o),
(90,445,o),
(85,458,c),
(105,460,l),
(110,447,o),
(112,423,o),
(112,409,cs)
);
},
{
closed = 1;
nodes = (
(28,-330,l),
(-174,-465,o),
(-397,-566,o),
(-658,-566,cs),
(-907,-566,o),
(-1130,-472,o),
(-1287,-329,c),
(-1285,-327,l),
(-1130,-457,o),
(-907,-544,o),
(-658,-544,cs),
(-397,-544,o),
(-174,-451,o),
(26,-328,c)
);
}
);
width = 966;
}
);
},
{
color = (153, 255, 154, 255);
glyphname = m.9;
layers = (
{
layerId = "A410FBA5-8D09-49B2-9E86-D368B18AE5F7";
shapes = (
{
closed = 1;
nodes = (
(67,0,l),
(264,0,l),
(264,278,ls),
(264,374,o),
(300,453,o),
(347,453,cs),
(379,453,o),
(384,421,o),
(384,329,cs),
(384,0,l),
(585,0,l),
(585,278,ls),
(585,374,o),
(621,453,o),
(668,453,cs),
(700,453,o),
(705,421,o),
(705,329,cs),
(705,205,ls),
(705,2,o),
(852,-125,o),
(1050,-125,cs),
(1255,-125,o),
(1372,13,o),
(1372,151,cs),
(1372,243,o),
(1320,328,o),
(1230,328,cs),
(1165,328,o),
(1121,283,o),
(1121,230,cs),
(1121,179,o),
(1162,132,o),
(1225,132,cs),
(1274,132,o),
(1315,161,o),
(1331,198,c),
(1339,171,o),
(1343,147,o),
(1343,121,cs),
(1343,-4,o),
(1249,-94,o),
(1122,-94,cs),
(1010,-94,o),
(906,-29,o),
(906,187,cs),
(906,295,ls),
(906,420,o),
(877,500,o),
(750,500,cs),
(621,500,o),
(591,385,o),
(583,353,c),
(573,444,o),
(535,500,o),
(429,500,cs),
(297,500,o),
(269,379,o),
(261,351,cs),
(257,339,o),
(253,344,o),
(253,351,cs),
(253,500,l),
(178,487,o),
(94,481,o),
(-10,481,c),
(-10,473,l),
(46,473,o),
(67,468,o),
(67,416,cs)
);
},
{
closed = 1;
nodes = (
(112,24,l),
(92,24,l),
(92,407,ls),
(92,421,o),
(90,445,o),
(85,458,c),
(105,460,l),
(110,447,o),
(112,423,o),
(112,409,cs)
);
},
{
closed = 1;
nodes = (
(431,24,l),
(411,24,l),
(411,344,ls),
(411,396,o),
(411,447,o),
(384,467,c),
(430,459,o),
(431,396,o),
(431,344,cs)
);
},
{
closed = 1;
nodes = (
(732,344,ls),
(732,396,o),
(732,447,o),
(705,467,c),
(751,459,o),
(752,396,o),
(752,344,cs),
(752,197,ls),
(752,19,o),
(895,-103,o),
(1042,-103,c),
(1042,-103,o),
(1035,-104,o),
(1035,-104,c),
(887,-104,o),
(732,9,o),
(732,197,cs)
);
},
{
closed = 1;
nodes = (
(1167,192,o),
(1199,165,o),
(1237,156,c),
(1229,156,o),
(1229,156,o),
(1223,156,cs),
(1179,156,o),
(1145,192,o),
(1145,230,cs),
(1145,268,o),
(1179,304,o),
(1223,304,cs),
(1229,304,o),
(1229,304,o),
(1237,304,c),
(1199,295,o),
(1167,268,o),
(1167,230,cs)
);
}
);
width = 1396;
}
);
},
{
color = (255, 153, 153, 255);
glyphname = n;
layers = (
{
hints = (
{
horizontal = 1;
place = (-6,38);
type = Stem;
},
{
horizontal = 1;
place = (446,21);
type = Stem;
},
{
place = (67,197);
type = Stem;
},
{
place = (386,198);
type = Stem;
}
);
layerId = "A410FBA5-8D09-49B2-9E86-D368B18AE5F7";
shapes = (
{
closed = 1;
nodes = (
(67,0,l),
(264,0,l),
(264,278,ls),
(264,374,o),
(300,453,o),
(347,453,cs),
(379,453,o),
(384,424,o),
(384,345,cs),
(384,184,ls),
(384,47,o),
(432,-9,o),
(527,-9,cs),
(588,-9,o),
(617,14,o),
(629,47,c),
(624,54,l),
(619,37,o),
(610,32,o),
(603,32,cs),
(589,32,o),
(586,60,o),
(586,106,cs),
(586,295,ls),
(586,420,o),
(556,500,o),
(429,500,cs),
(297,500,o),
(270,379,o),
(261,351,c),
(253,351,l),
(253,500,l),
(178,487,o),
(94,481,o),
(-10,481,c),
(-10,473,l),
(46,473,o),
(67,468,o),
(67,416,cs)
);
},
{
closed = 1;
nodes = (
(431,188,ls),
(431,51,o),
(484,24,o),
(540,18,c),
(533,18,o),
(533,18,o),
(527,18,c),
(468,18,o),
(411,37,o),
(411,188,cs),
(411,344,ls),
(411,396,o),
(411,447,o),
(384,467,c),
(430,459,o),
(431,396,o),
(431,344,cs)
);
},
{
closed = 1;
nodes = (
(112,24,l),
(92,24,l),
(92,407,ls),
(92,421,o),
(90,445,o),
(85,458,c),
(105,460,l),
(110,447,o),
(112,423,o),
(112,409,cs)
);
}
);
width = 646;
}
);
unicode = 110;
},
{
color = (153, 255, 154, 255);
glyphname = n.5;
layers = (
{
layerId = "A410FBA5-8D09-49B2-9E86-D368B18AE5F7";
shapes = (
{
closed = 1;
nodes = (
(67,0,l),
(264,0,l),
(264,278,ls),
(264,374,o),
(300,453,o),
(347,453,cs),
(379,453,o),
(384,424,o),
(384,345,cs),
(384,129,ls),
(384,-52,o),
(426,-239,o),
(740,-239,cs),
(828,-239,o),
(923,-208,o),
(952,-139,c),
(947,-134,l),
(924,-192,o),
(848,-222,o),
(783,-222,cs),
(675,-222,o),
(582,-145,o),
(586,31,c),
(586,295,l),
(587,420,o),
(556,500,o),
(429,500,cs),
(297,500,o),
(269,379,o),
(261,351,cs),
(257,339,o),
(253,344,o),
(253,351,cs),
(253,500,l),
(178,487,o),
(94,481,o),
(-10,481,c),
(-10,473,l),
(46,473,o),
(67,468,o),
(67,416,cs)
);
},
{
closed = 1;
nodes = (
(112,24,l),
(92,24,l),
(92,407,ls),
(92,421,o),
(90,445,o),
(85,458,c),
(105,460,l),
(110,447,o),
(112,423,o),
(112,409,cs)
);
},
{
closed = 1;
nodes = (
(431,106,ls),
(431,-87,o),
(513,-170,o),
(623,-202,c),
(623,-205,l),
(505,-177,o),
(411,-99,o),
(411,108,cs),
(411,346,ls),
(411,398,o),
(411,449,o),
(384,469,c),
(430,461,o),
(431,398,o),
(431,346,cs)
);
}
);
width = 642;
}
);
},
{
color = (153, 255, 154, 255);
glyphname = n.4;
layers = (
{
layerId = "A410FBA5-8D09-49B2-9E86-D368B18AE5F7";
shapes = (
{
closed = 1;
nodes = (
(67,0,l),
(264,0,l),
(264,278,ls),
(264,374,o),
(300,453,o),
(347,453,cs),
(379,453,o),
(384,424,o),
(384,345,cs),
(384,173,ls),
(384,-192,o),
(708,-413,o),
(1094,-413,cs),
(1437,-413,o),
(1714,-136,o),
(1714,207,cs),
(1714,544,o),
(1441,817,o),
(1104,817,cs),
(946,817,o),
(802,757,o),
(694,659,c),
(700,655,l),
(807,752,o),
(949,811,o),
(1104,811,cs),
(1437,811,o),
(1708,540,o),
(1708,207,cs),
(1708,-126,o),
(1437,-397,o),
(1104,-397,cs),
(843,-397,o),
(586,-245,o),
(586,138,cs),
(586,295,ls),
(586,420,o),
(556,500,o),
(429,500,cs),
(297,500,o),
(270,379,o),
(261,351,cs),
(257,339,o),
(253,344,o),
(253,351,cs),
(253,500,l),
(178,487,o),
(94,481,o),
(-10,481,c),
(-10,473,l),
(46,473,o),
(67,468,o),
(67,416,cs)
);
},
{
closed = 1;
nodes = (
(112,24,l),
(92,24,l),
(92,407,ls),
(92,421,o),
(90,445,o),
(85,458,c),
(105,460,l),
(110,447,o),
(112,423,o),
(112,409,cs)
);
},
{
closed = 1;
nodes = (
(431,161,ls),
(431,-3,o),
(517,-213,o),
(744,-316,c),
(672,-299,o),
(411,-140,o),
(411,168,cs),
(411,344,ls),
(411,396,o),
(411,447,o),
(384,467,c),
(430,459,o),
(431,396,o),
(431,344,cs)
);
}
);
width = 646;
}
);
},
{
color = (153, 255, 154, 255);
glyphname = n.7;
layers = (
{
layerId = "A410FBA5-8D09-49B2-9E86-D368B18AE5F7";
shapes = (
{
closed = 1;
nodes = (
(67,0,l),
(264,0,l),
(264,278,ls),
(264,374,o),
(300,453,o),
(347,453,cs),
(379,453,o),
(384,424,o),
(384,345,cs),
(384,184,ls),
(384,-186,o),
(694,-396,o),
(1081,-396,cs),
(1412,-396,o),
(1679,-130,o),
(1679,201,cs),
(1679,526,o),
(1416,789,o),
(1091,789,cs),
(862,789,o),
(664,668,o),
(475,496,c),
(461,499,o),
(446,500,o),
(429,500,cs),
(297,500,o),
(270,379,o),
(261,351,cs),
(257,339,o),
(253,344,o),
(253,351,cs),
(253,500,l),
(178,487,o),
(94,481,o),
(-10,481,c),
(-10,473,l),
(46,473,o),
(67,468,o),
(67,416,cs),
(67,67,l),
(-247,-277,o),
(-579,-616,o),
(-1032,-616,cs),
(-1508,-616,o),
(-1895,-229,o),
(-1895,247,cs),
(-1895,723,o),
(-1508,1110,o),
(-1032,1110,cs),
(-821,1110,o),
(-627,1034,o),
(-477,907,c),
(-472,911,l),
(-623,1039,o),
(-819,1116,o),
(-1032,1116,cs),
(-1512,1116,o),
(-1901,727,o),
(-1901,247,cs),
(-1901,-233,o),
(-1512,-622,o),
(-1032,-622,cs),
(-579,-622,o),
(-247,-286,o),
(67,56,c)
);
},
{
closed = 1;
nodes = (
(671,662,o),
(867,783,o),
(1091,783,cs),
(1412,783,o),
(1673,522,o),
(1673,201,cs),
(1673,-120,o),
(1412,-380,o),
(1091,-380,cs),
(819,-380,o),
(586,-273,o),
(586,134,cs),
(586,295,l),
(587,395,o),
(567,471,o),
(484,493,c)
);
},
{
closed = 1;
nodes = (
(431,161,ls),
(431,-3,o),
(519,-210,o),
(746,-313,c),
(674,-296,o),
(411,-140,o),
(411,168,cs),
(411,344,ls),
(411,396,o),
(411,447,o),
(384,467,c),
(430,459,o),
(431,396,o),
(431,344,cs)
);
},
{
closed = 1;
nodes = (
(112,24,l),
(92,24,l),
(92,407,ls),
(92,421,o),
(90,445,o),
(85,458,c),
(105,460,l),
(110,447,o),
(112,423,o),
(112,409,cs)
);
}
);
width = 646;
}
);
},
{
color = (153, 255, 154, 255);
glyphname = n.7.more;
layers = (
{
layerId = "A410FBA5-8D09-49B2-9E86-D368B18AE5F7";
shapes = (
{
closed = 1;
nodes = (
(67,0,l),
(264,0,l),
(264,278,ls),
(264,374,o),
(300,453,o),
(347,453,cs),
(379,453,o),
(384,424,o),
(384,345,cs),
(384,184,ls),
(384,-186,o),
(694,-396,o),
(1081,-396,cs),
(1412,-396,o),
(1679,-130,o),
(1679,201,cs),
(1679,526,o),
(1416,789,o),
(1091,789,cs),
(862,789,o),
(664,668,o),
(475,496,c),
(461,499,o),
(446,500,o),
(429,500,cs),
(297,500,o),
(270,379,o),
(261,351,cs),
(257,339,o),
(253,344,o),
(253,351,cs),
(253,500,l),
(178,487,o),
(94,481,o),
(-10,481,c),
(-10,473,l),
(46,473,o),
(67,468,o),
(67,416,cs),
(67,67,l),
(-247,-277,o),
(-579,-616,o),
(-1032,-616,cs),
(-1508,-616,o),
(-1895,-229,o),
(-1895,247,cs),
(-1895,723,o),
(-1508,1110,o),
(-1032,1110,cs),
(-610,1110,o),
(-339,868,o),
(43,868,cs),
(214,868,o),
(368,933,o),
(471,1046,c),
(463,1048,l),
(361,938,o),
(211,874,o),
(43,874,cs),
(-336,874,o),
(-602,1116,o),
(-1032,1116,cs),
(-1512,1116,o),
(-1901,727,o),
(-1901,247,cs),
(-1901,-233,o),
(-1512,-622,o),
(-1032,-622,cs),
(-579,-622,o),
(-247,-286,o),
(67,56,c)
);
},
{
closed = 1;
nodes = (
(672,663,o),
(867,783,o),
(1091,783,cs),
(1412,783,o),
(1673,522,o),
(1673,201,cs),
(1673,-120,o),
(1412,-380,o),
(1091,-380,cs),
(819,-380,o),
(586,-273,o),
(586,134,cs),
(586,295,ls),
(586,394,o),
(567,470,o),
(485,493,c)
);
},
{
closed = 1;
nodes = (
(431,161,ls),
(431,-3,o),
(519,-210,o),
(746,-313,c),
(674,-296,o),
(411,-140,o),
(411,168,cs),
(411,344,ls),
(411,396,o),
(411,447,o),
(384,467,c),
(430,459,o),
(431,396,o),
(431,344,cs)
);
},
{
closed = 1;
nodes = (
(112,24,l),
(92,24,l),
(92,407,ls),
(92,421,o),
(90,445,o),
(85,458,c),
(105,460,l),
(110,447,o),
(112,423,o),
(112,409,cs)
);
}
);
width = 646;
}
);
},
{
color = (153, 255, 154, 255);
glyphname = n.7.acc;
layers = (
{
layerId = "A410FBA5-8D09-49B2-9E86-D368B18AE5F7";
shapes = (
{
closed = 1;
nodes = (
(67,0,l),
(264,0,l),
(264,278,ls),
(264,374,o),
(300,453,o),
(347,453,cs),
(379,453,o),
(384,424,o),
(384,345,cs),
(384,184,ls),
(384,-186,o),
(693,-396,o),
(1081,-396,cs),
(1412,-396,o),
(1679,-130,o),
(1679,201,cs),
(1679,526,o),
(1416,820,o),
(1091,820,cs),
(862,820,o),
(664,672,o),
(474,496,c),
(461,499,o),
(446,500,o),
(429,500,cs),
(297,500,o),
(270,379,o),
(261,351,cs),
(257,339,o),
(253,344,o),
(253,351,cs),
(253,500,l),
(178,487,o),
(94,481,o),
(-10,481,c),
(-10,473,l),
(46,473,o),
(67,468,o),
(67,416,cs),
(67,68,l),
(-246,-269,o),
(-579,-538,o),
(-1032,-538,cs),
(-1508,-538,o),
(-1895,-229,o),
(-1895,247,cs),
(-1895,723,o),
(-1508,1110,o),
(-1032,1110,cs),
(-821,1110,o),
(-627,1034,o),
(-477,907,c),
(-472,911,l),
(-623,1039,o),
(-819,1116,o),
(-1032,1116,cs),
(-1512,1116,o),
(-1901,727,o),
(-1901,247,cs),
(-1901,-233,o),
(-1512,-698,o),
(-1032,-698,cs),
(-579,-698,o),
(-246,-295,o),
(67,56,c)
);
},
{
closed = 1;
nodes = (
(1375,707,l),
(1288,749,o),
(1187,777,o),
(1083,777,cs),
(1012,777,o),
(930,761,o),
(865,743,c),
(886,753,l),
(945,770,o),
(1021,786,o),
(1084,786,cs),
(1182,786,o),
(1274,762,o),
(1355,721,c)
);
},
{
closed = 1;
nodes = (
(671,660,o),
(867,760,o),
(1091,760,cs),
(1412,760,o),
(1673,522,o),
(1673,201,cs),
(1673,-120,o),
(1412,-380,o),
(1091,-380,cs),
(819,-380,o),
(586,-273,o),
(586,134,cs),
(586,295,l),
(587,394,o),
(567,470,o),
(485,493,c)
);
},
{
closed = 1;
nodes = (
(431,161,ls),
(431,-3,o),
(519,-210,o),
(746,-313,c),
(674,-296,o),
(411,-140,o),
(411,168,cs),
(411,344,ls),
(411,396,o),
(411,447,o),
(384,467,c),
(430,459,o),
(431,396,o),
(431,344,cs)
);
},
{
closed = 1;
nodes = (
(112,24,l),
(92,24,l),
(92,407,ls),
(92,421,o),
(90,445,o),
(85,458,c),
(105,460,l),
(110,447,o),
(112,423,o),
(112,409,cs)
);
},
{
closed = 1;
nodes = (
(-346,-343,l),
(-548,-484,o),
(-771,-590,o),
(-1032,-590,cs),
(-1281,-590,o),
(-1504,-495,o),
(-1661,-350,c),
(-1659,-348,l),
(-1504,-480,o),
(-1281,-568,o),
(-1032,-568,cs),
(-771,-568,o),
(-548,-470,o),
(-348,-341,c)
);
}
);
width = 646;
}
);
},
{
color = (153, 255, 154, 255);
glyphname = n.7.more.acc;
layers = (
{
layerId = "A410FBA5-8D09-49B2-9E86-D368B18AE5F7";
shapes = (
{
closed = 1;
nodes = (
(67,0,l),
(264,0,l),
(264,278,ls),
(264,374,o),
(300,453,o),
(347,453,cs),
(379,453,o),
(384,424,o),
(384,345,cs),
(384,184,ls),
(384,-186,o),
(694,-396,o),
(1081,-396,cs),
(1412,-396,o),
(1679,-130,o),
(1679,201,cs),
(1679,526,o),
(1416,819,o),
(1091,819,cs),
(862,819,o),
(664,672,o),
(474,496,c),
(461,499,o),
(446,500,o),
(429,500,cs),
(297,500,o),
(270,379,o),
(261,351,cs),
(257,339,o),
(253,344,o),
(253,351,cs),
(253,500,l),
(178,487,o),
(94,481,o),
(-10,481,c),
(-10,473,l),
(46,473,o),
(67,468,o),
(67,416,cs),
(67,68,l),
(-246,-263,o),
(-579,-488,o),
(-1032,-488,cs),
(-1508,-488,o),
(-1895,-229,o),
(-1895,247,cs),
(-1895,723,o),
(-1508,1110,o),
(-1032,1110,cs),
(-610,1110,o),
(-339,868,o),
(43,868,cs),
(214,868,o),
(368,933,o),
(471,1046,c),
(463,1048,l),
(361,938,o),
(211,874,o),
(43,874,cs),
(-336,874,o),
(-602,1116,o),
(-1032,1116,cs),
(-1512,1116,o),
(-1901,727,o),
(-1901,247,cs),
(-1901,-233,o),
(-1512,-648,o),
(-1032,-648,cs),
(-579,-648,o),
(-246,-290,o),
(67,56,c)
);
},
{
closed = 1;
nodes = (
(1375,707,l),
(1288,749,o),
(1187,777,o),
(1083,777,cs),
(1012,777,o),
(930,761,o),
(865,743,c),
(886,753,l),
(945,770,o),
(1021,786,o),
(1084,786,cs),
(1182,786,o),
(1274,762,o),
(1355,721,c)
);
},
{
closed = 1;
nodes = (
(672,660,o),
(867,759,o),
(1091,759,cs),
(1412,759,o),
(1673,522,o),
(1673,201,cs),
(1673,-120,o),
(1412,-380,o),
(1091,-380,cs),
(819,-380,o),
(586,-273,o),
(586,134,cs),
(586,295,ls),
(586,399,o),
(565,472,o),
(485,493,c)
);
},
{
closed = 1;
nodes = (
(431,161,ls),
(431,-3,o),
(519,-210,o),
(746,-313,c),
(674,-296,o),
(411,-140,o),
(411,168,cs),
(411,344,ls),
(411,396,o),
(411,447,o),
(384,467,c),
(430,459,o),
(431,396,o),
(431,344,cs)
);
},
{
closed = 1;
nodes = (
(112,24,l),
(92,24,l),
(92,407,ls),
(92,421,o),
(90,445,o),
(85,458,c),
(105,460,l),
(110,447,o),
(112,423,o),
(112,409,cs)
);
},
{
closed = 1;
nodes = (
(-346,-319,l),
(-548,-445,o),
(-771,-540,o),
(-1032,-540,cs),
(-1281,-540,o),
(-1504,-452,o),
(-1661,-318,c),
(-1659,-316,l),
(-1504,-437,o),
(-1281,-518,o),
(-1032,-518,cs),
(-771,-518,o),
(-548,-431,o),
(-348,-317,c)
);
}
);
width = 646;
}
);
},
{
color = (153, 255, 154, 255);
glyphname = n.9;
layers = (
{
layerId = "A410FBA5-8D09-49B2-9E86-D368B18AE5F7";
shapes = (
{
closed = 1;
nodes = (
(67,0,l),
(264,0,l),
(264,278,ls),
(264,374,o),
(300,453,o),
(347,453,cs),
(379,453,o),
(384,424,o),
(384,345,cs),
(384,205,ls),
(384,2,o),
(532,-125,o),
(730,-125,cs),
(935,-125,o),
(1052,13,o),
(1052,151,cs),
(1052,243,o),
(1000,328,o),
(910,328,cs),
(845,328,o),
(801,283,o),
(801,230,cs),
(801,179,o),
(842,132,o),
(905,132,cs),
(954,132,o),
(995,161,o),
(1011,198,c),
(1019,171,o),
(1023,147,o),
(1023,121,cs),
(1023,-4,o),
(929,-94,o),
(802,-94,cs),
(690,-94,o),
(586,-29,o),
(586,187,cs),
(586,295,ls),
(586,420,o),
(556,500,o),
(429,500,cs),
(297,500,o),
(269,379,o),
(261,351,cs),
(257,339,o),
(253,344,o),
(253,351,cs),
(253,500,l),
(178,487,o),
(94,481,o),
(-10,481,c),
(-10,473,l),
(46,473,o),
(67,468,o),
(67,416,cs)
);
},
{
closed = 1;
nodes = (
(112,24,l),
(92,24,l),
(92,407,ls),
(92,421,o),
(90,445,o),
(85,458,c),
(105,460,l),
(110,447,o),
(112,423,o),
(112,409,cs)
);
},
{
closed = 1;
nodes = (
(411,344,ls),
(411,396,o),
(411,447,o),
(384,467,c),
(430,459,o),
(431,396,o),
(431,344,cs),
(431,197,ls),
(431,19,o),
(574,-103,o),
(721,-103,c),
(721,-103,o),
(714,-104,o),
(714,-104,c),
(566,-104,o),
(411,9,o),
(411,197,cs)
);
},
{
closed = 1;
nodes = (
(846,192,o),
(878,165,o),
(916,156,c),
(908,156,o),
(908,156,o),
(902,156,cs),
(858,156,o),
(824,192,o),
(824,230,cs),
(824,268,o),
(858,304,o),
(902,304,cs),
(908,304,o),
(908,304,o),
(916,304,c),
(878,295,o),
(846,268,o),
(846,230,cs)
);
}
);
width = 1091;
}
);
},
{
color = (255, 153, 153, 255);
glyphname = o;
layers = (
{
anchors = (
{
name = top;
position = "{298, 577}";
}
);
hints = (
{
horizontal = 1;
place = (-6,245);
type = Stem;
},
{
horizontal = 1;
place = (250,218);
type = Stem;
},
{
place = (25,194);
type = Stem;
},
{
place = (70,149);
type = Stem;
},
{
place = (70,208);
type = Stem;
},
{
place = (369,201);
type = Stem;
}
);
layerId = "A410FBA5-8D09-49B2-9E86-D368B18AE5F7";
shapes = (
{
closed = 1;
nodes = (
(20,78,o),
(144,-9,o),
(298,-9,cs),
(452,-9,o),
(577,78,o),
(577,246,cs),
(577,414,o),
(452,500,o),
(298,500,cs),
(144,500,o),
(20,414,o),
(20,246,cs)
);
},
{
closed = 1;
nodes = (
(225,418,o),
(259,491,o),
(298,491,cs),
(337,491,o),
(371,418,o),
(371,246,cs),
(371,65,o),
(337,0,o),
(298,0,cs),
(259,0,o),
(225,65,o),
(225,246,cs)
);
},
{
closed = 1;
nodes = (
(143,439,o),
(72,375,o),
(72,246,cs),
(72,121,o),
(143,50,o),
(233,22,c),
(133,44,o),
(50,107,o),
(50,246,cs),
(50,382,o),
(133,449,o),
(233,468,c)
);
},
{
closed = 1;
nodes = (
(423,155,o),
(419,83,o),
(367,22,c),
(389,71,o),
(401,147,o),
(401,246,cs),
(401,345,o),
(389,421,o),
(367,470,c),
(419,409,o),
(423,337,o),
(423,246,cs)
);
}
);
width = 597;
}
);
leftKerningGroup = _o;
rightKerningGroup = _o;
unicode = 111;
},
{
color = (153, 255, 154, 255);
glyphname = o.2;
layers = (
{
anchors = (
{
name = top;
position = "{298, 577}";
}
);
guides = (
{
angle = 90;
position = "{297, 0}";
}
);
hints = (
{
horizontal = 1;
place = (-6,245);
type = Stem;
},
{
horizontal = 1;
place = (250,218);
type = Stem;
},
{
place = (25,194);
type = Stem;
},
{
place = (70,149);
type = Stem;
},
{
place = (70,208);
type = Stem;
},
{
place = (369,201);
type = Stem;
}
);
layerId = "A410FBA5-8D09-49B2-9E86-D368B18AE5F7";
shapes = (
{
closed = 1;
nodes = (
(53,366,o),
(20,301,o),
(20,246,cs),
(20,78,o),
(144,-9,o),
(298,-9,cs),
(452,-9,o),
(577,78,o),
(577,246,cs),
(577,414,o),
(457,500,o),
(310,500,cs),
(201,500,o),
(125,454,o),
(95,403,c)
);
},
{
closed = 1;
nodes = (
(423,155,o),
(419,83,o),
(367,22,c),
(389,71,o),
(401,147,o),
(401,246,cs),
(401,345,o),
(389,421,o),
(367,470,c),
(419,409,o),
(423,337,o),
(423,246,cs)
);
},
{
closed = 1;
nodes = (
(147,262,o),
(155,261,o),
(163,261,cs),
(226,261,o),
(254,303,o),
(254,347,cs),
(254,369,o),
(242,390,o),
(223,405,c),
(230,448,o),
(266,491,o),
(298,491,cs),
(341,491,o),
(371,418,o),
(371,246,cs),
(371,65,o),
(337,0,o),
(298,0,cs),
(259,0,o),
(225,74,o),
(225,255,c),
(173,240,o),
(143,251,o),
(140,264,c)
);
},
{
closed = 1;
nodes = (
(78,305,o),
(72,278,o),
(72,246,cs),
(72,121,o),
(143,50,o),
(233,22,c),
(133,44,o),
(50,107,o),
(50,246,cs),
(50,285,o),
(65,328,o),
(89,358,c),
(89,344,o),
(89,336,o),
(90,326,c)
);
},
{
closed = 1;
nodes = (
(125,290,o),
(112,325,o),
(112,350,cs),
(112,376,o),
(129,409,o),
(159,433,c),
(138,404,o),
(134,371,o),
(134,352,cs),
(134,325,o),
(140,299,o),
(175,290,c),
(170,290,o),
(170,290,o),
(162,290,c)
);
}
);
width = 597;
}
);
leftKerningGroup = _o;
rightKerningGroup = _o;
},
{
color = (153, 255, 154, 255);
glyphname = o.7;
layers = (
{
layerId = "A410FBA5-8D09-49B2-9E86-D368B18AE5F7";
shapes = (
{
closed = 1;
nodes = (
(297,468,l),
(142,467,o),
(20,380,o),
(20,226,cs),
(20,70,o),
(145,-9,o),
(295,-9,cs),
(455,-9,o),
(577,82,o),
(577,257,cs),
(577,454,o),
(409,529,o),
(260,529,cs),
(-49,529,o),
(-199,282,o),
(-199,67,cs),
(-199,-155,o),
(-39,-433,o),
(389,-433,cs),
(911,-433,o),
(1166,-49,o),
(1166,300,cs),
(1166,689,o),
(840,1040,o),
(393,1040,cs),
(176,1040,o),
(-23,954,o),
(-170,800,c),
(-165,796,l),
(-18,949,o),
(178,1034,o),
(392,1034,cs),
(835,1034,o),
(1160,686,o),
(1160,300,cs),
(1160,-48,o),
(904,-427,o),
(389,-427,cs),
(-30,-427,o),
(-193,-154,o),
(-193,68,cs),
(-193,299,o),
(-16,519,o),
(239,519,cs),
(332,519,o),
(371,484,o),
(371,266,cs),
(371,62,o),
(337,0,o),
(298,0,cs),
(259,0,o),
(225,62,o),
(225,223,cs),
(225,389,o),
(261,457,o),
(297,459,c)
);
},
{
closed = 1;
nodes = (
(143,414,o),
(72,353,o),
(72,229,cs),
(72,104,o),
(146,38,o),
(236,10,c),
(136,32,o),
(50,90,o),
(50,229,cs),
(50,359,o),
(133,424,o),
(233,442,c)
);
},
{
closed = 1;
nodes = (
(396,461,o),
(423,396,o),
(423,266,cs),
(423,105,o),
(391,38,o),
(355,13,c),
(380,45,o),
(401,121,o),
(401,266,cs),
(401,390,o),
(385,451,o),
(364,479,c)
);
}
);
width = 597;
}
);
leftKerningGroup = _o;
rightKerningGroup = _o;
},
{
color = (153, 255, 154, 255);
glyphname = o.7.001;
layers = (
{
layerId = "A410FBA5-8D09-49B2-9E86-D368B18AE5F7";
shapes = (
{
closed = 1;
nodes = (
(297,468,l),
(142,467,o),
(20,380,o),
(20,226,cs),
(20,70,o),
(145,-9,o),
(295,-9,cs),
(455,-9,o),
(577,82,o),
(577,257,cs),
(577,454,o),
(424,529,o),
(260,529,cs),
(-49,529,o),
(-199,282,o),
(-199,67,cs),
(-199,-155,o),
(-39,-433,o),
(389,-433,cs),
(819,-433,o),
(1085,-191,o),
(1464,-191,cs),
(1632,-191,o),
(1782,-255,o),
(1884,-365,c),
(1892,-363,l),
(1789,-250,o),
(1635,-185,o),
(1464,-185,cs),
(1082,-185,o),
(811,-427,o),
(389,-427,cs),
(-30,-427,o),
(-193,-154,o),
(-193,68,cs),
(-193,299,o),
(-16,519,o),
(239,519,cs),
(332,519,o),
(371,484,o),
(371,266,cs),
(371,62,o),
(337,0,o),
(298,0,cs),
(259,0,o),
(225,62,o),
(225,223,cs),
(225,389,o),
(261,457,o),
(297,459,c)
);
},
{
closed = 1;
nodes = (
(396,461,o),
(423,396,o),
(423,266,cs),
(423,105,o),
(391,38,o),
(355,13,c),
(380,45,o),
(401,121,o),
(401,266,cs),
(401,390,o),
(385,451,o),
(364,479,c)
);
},
{
closed = 1;
nodes = (
(143,414,o),
(72,353,o),
(72,229,cs),
(72,104,o),
(146,38,o),
(236,10,c),
(136,32,o),
(50,90,o),
(50,229,cs),
(50,359,o),
(133,424,o),
(233,442,c)
);
}
);
width = 597;
}
);
leftKerningGroup = _o;
rightKerningGroup = _o;
},
{
color = (153, 255, 154, 255);
glyphname = o.77;
layers = (
{
layerId = "A410FBA5-8D09-49B2-9E86-D368B18AE5F7";
shapes = (
{
closed = 1;
nodes = (
(-466,-291,l),
(-616,-418,o),
(-810,-494,o),
(-1021,-494,cs),
(-1497,-494,o),
(-1884,-107,o),
(-1884,369,cs),
(-1884,845,o),
(-1497,1232,o),
(-1021,1232,cs),
(-484,1232,o),
(-82,632,o),
(302,501,c),
(299,501,o),
(296,501,o),
(293,501,cs),
(138,498,o),
(20,412,o),
(20,246,cs),
(20,78,o),
(144,-9,o),
(298,-9,cs),
(452,-9,o),
(577,78,o),
(577,246,cs),
(577,362,o),
(517,439,o),
(430,476,c),
(434,476,o),
(439,476,o),
(443,476,cs),
(638,476,o),
(789,637,o),
(789,831,cs),
(789,1026,o),
(632,1183,o),
(437,1183,cs),
(330,1183,o),
(234,1136,o),
(170,1061,c),
(176,1060,l),
(237,1132,o),
(330,1177,o),
(437,1177,cs),
(629,1177,o),
(776,1034,o),
(776,842,cs),
(776,651,o),
(616,495,o),
(424,495,cs),
(2,495,o),
(-414,1238,o),
(-1021,1238,cs),
(-1501,1238,o),
(-1890,849,o),
(-1890,369,cs),
(-1890,-111,o),
(-1501,-500,o),
(-1021,-500,cs),
(-808,-500,o),
(-612,-423,o),
(-461,-295,c)
);
},
{
closed = 1;
nodes = (
(259,0,o),
(225,65,o),
(225,246,cs),
(225,418,o),
(259,492,o),
(298,492,cs),
(337,492,o),
(371,418,o),
(371,246,cs),
(371,65,o),
(337,0,o),
(298,0,cs)
);
},
{
closed = 1;
nodes = (
(143,439,o),
(72,375,o),
(72,246,cs),
(72,121,o),
(143,50,o),
(233,22,c),
(133,44,o),
(50,107,o),
(50,246,cs),
(50,382,o),
(133,449,o),
(233,468,c)
);
},
{
closed = 1;
nodes = (
(423,155,o),
(419,83,o),
(367,22,c),
(389,71,o),
(401,147,o),
(401,246,cs),
(401,345,o),
(389,421,o),
(367,470,c),
(419,409,o),
(423,337,o),
(423,246,cs)
);
}
);
width = 597;
}
);
leftKerningGroup = _o;
rightKerningGroup = _o;
},
{
color = (153, 255, 154, 255);
glyphname = o.7.acc;
layers = (
{
layerId = "A410FBA5-8D09-49B2-9E86-D368B18AE5F7";
shapes = (
{
closed = 1;
nodes = (
(297,468,l),
(142,467,o),
(20,380,o),
(20,226,cs),
(20,70,o),
(145,-9,o),
(295,-9,cs),
(455,-9,o),
(577,82,o),
(577,257,cs),
(577,454,o),
(424,529,o),
(260,529,cs),
(-49,529,o),
(-199,282,o),
(-199,67,cs),
(-199,-155,o),
(-39,-519,o),
(389,-519,cs),
(819,-519,o),
(1085,-191,o),
(1464,-191,cs),
(1632,-191,o),
(1782,-255,o),
(1884,-365,c),
(1892,-363,l),
(1789,-250,o),
(1635,-185,o),
(1464,-185,cs),
(1082,-185,o),
(811,-359,o),
(389,-359,cs),
(-30,-359,o),
(-193,-154,o),
(-193,68,cs),
(-193,299,o),
(-16,519,o),
(239,519,cs),
(332,519,o),
(371,484,o),
(371,266,cs),
(371,62,o),
(337,0,o),
(298,0,cs),
(259,0,o),
(225,62,o),
(225,223,cs),
(225,389,o),
(261,457,o),
(297,459,c)
);
},
{
closed = 1;
nodes = (
(143,414,o),
(72,353,o),
(72,229,cs),
(72,104,o),
(146,38,o),
(236,10,c),
(136,32,o),
(50,90,o),
(50,229,cs),
(50,359,o),
(133,424,o),
(233,442,c)
);
},
{
closed = 1;
nodes = (
(396,461,o),
(423,396,o),
(423,266,cs),
(423,105,o),
(391,38,o),
(355,13,c),
(380,45,o),
(401,121,o),
(401,266,cs),
(401,390,o),
(385,451,o),
(364,479,c)
);
},
{
closed = 1;
nodes = (
(-93,-227,l),
(26,-340,o),
(191,-389,o),
(389,-389,cs),
(601,-389,o),
(814,-337,o),
(960,-290,c),
(962,-292,l),
(814,-351,o),
(601,-411,o),
(389,-411,cs),
(191,-411,o),
(26,-354,o),
(-95,-229,c)
);
}
);
width = 597;
}
);
leftKerningGroup = _o;
rightKerningGroup = _o;
},
{
color = (153, 255, 154, 255);
glyphname = o.77.acc;
layers = (
{
layerId = "A410FBA5-8D09-49B2-9E86-D368B18AE5F7";
shapes = (
{
closed = 1;
nodes = (
(-466,-291,l),
(-616,-418,o),
(-810,-494,o),
(-1021,-494,cs),
(-1497,-494,o),
(-1884,-107,o),
(-1884,369,cs),
(-1884,845,o),
(-1497,1145,o),
(-1021,1145,cs),
(-488,1145,o),
(-89,622,o),
(293,501,c),
(290,501,o),
(286,501,o),
(283,501,c),
(136,495,o),
(20,408,o),
(20,246,cs),
(20,78,o),
(144,-9,o),
(298,-9,cs),
(452,-9,o),
(577,78,o),
(577,246,cs),
(577,362,o),
(517,439,o),
(430,476,c),
(434,476,o),
(439,476,o),
(443,476,cs),
(638,476,o),
(789,637,o),
(789,831,cs),
(789,1026,o),
(632,1183,o),
(437,1183,cs),
(330,1183,o),
(234,1136,o),
(170,1061,c),
(176,1060,l),
(237,1132,o),
(330,1177,o),
(437,1177,cs),
(629,1177,o),
(776,1034,o),
(776,842,cs),
(776,651,o),
(616,495,o),
(424,495,cs),
(-78,495,o),
(-414,1305,o),
(-1021,1305,cs),
(-1501,1305,o),
(-1890,849,o),
(-1890,369,cs),
(-1890,-111,o),
(-1501,-500,o),
(-1021,-500,cs),
(-808,-500,o),
(-612,-423,o),
(-461,-295,c)
);
},
{
closed = 1;
nodes = (
(259,0,o),
(225,65,o),
(225,246,cs),
(225,418,o),
(259,492,o),
(298,492,cs),
(337,492,o),
(371,418,o),
(371,246,cs),
(371,65,o),
(337,0,o),
(298,0,cs)
);
},
{
closed = 1;
nodes = (
(143,439,o),
(72,375,o),
(72,246,cs),
(72,121,o),
(143,50,o),
(233,22,c),
(133,44,o),
(50,107,o),
(50,246,cs),
(50,382,o),
(133,449,o),
(233,468,c)
);
},
{
closed = 1;
nodes = (
(423,155,o),
(419,83,o),
(367,22,c),
(389,71,o),
(401,147,o),
(401,246,cs),
(401,345,o),
(389,421,o),
(367,470,c),
(419,409,o),
(423,337,o),
(423,246,cs)
);
},
{
closed = 1;
nodes = (
(-1562,1013,l),
(-1413,1132,o),
(-1225,1199,o),
(-1021,1199,cs),
(-842,1199,o),
(-678,1131,o),
(-525,1033,c),
(-525,1031,l),
(-678,1115,o),
(-842,1175,o),
(-1021,1175,cs),
(-1225,1175,o),
(-1413,1114,o),
(-1560,1011,c)
);
}
);
width = 597;
}
);
leftKerningGroup = _o;
rightKerningGroup = _o;
},
{
color = (255, 153, 153, 255);
glyphname = p;
layers = (
{
guides = (
{
position = "{0, -240}";
}
);
hints = (
{
horizontal = 1;
place = (-300,21);
target = up;
type = BottomGhost;
},
{
horizontal = 1;
place = (446,20);
type = Stem;
},
{
place = (84,197);
type = Stem;
},
{
place = (409,201);
type = Stem;
}
);
layerId = "A410FBA5-8D09-49B2-9E86-D368B18AE5F7";
shapes = (
{
closed = 1;
nodes = (
(67,-240,l),
(264,-240,l),
(264,34,l),
(284,12,o),
(313,1,o),
(352,1,cs),
(471,1,o),
(593,78,o),
(593,270,cs),
(593,403,o),
(504,500,o),
(389,500,cs),
(312,500,o),
(275,461,o),
(262,401,cs),
(261,397,o),
(260,394,o),
(258,394,c),
(253,394,l),
(253,500,l),
(178,487,o),
(94,481,o),
(-10,481,c),
(-10,473,l),
(46,473,o),
(67,468,o),
(67,416,cs)
);
},
{
closed = 1;
nodes = (
(280,17,o),
(264,43,o),
(264,126,cs),
(264,348,ls),
(264,409,o),
(284,468,o),
(335,468,cs),
(382,468,o),
(392,419,o),
(392,273,cs),
(392,50,o),
(368,17,o),
(321,17,cs)
);
},
{
closed = 1;
nodes = (
(105,460,l),
(110,447,o),
(112,423,o),
(112,409,cs),
(112,-212,l),
(92,-212,l),
(92,407,ls),
(92,421,o),
(90,445,o),
(85,458,c)
);
},
{
closed = 1;
nodes = (
(443,170,o),
(438,90,o),
(396,22,c),
(413,77,o),
(421,161,o),
(421,272,cs),
(421,359,o),
(413,427,o),
(396,470,c),
(438,416,o),
(443,352,o),
(443,272,cs)
);
}
);
width = 613;
}
);
unicode = 112;
},
{
color = (153, 255, 154, 255);
glyphname = p.4.more;
layers = (
{
layerId = "A410FBA5-8D09-49B2-9E86-D368B18AE5F7";
shapes = (
{
closed = 1;
nodes = (
(67,-240,l),
(264,-240,l),
(264,348,ls),
(264,409,o),
(284,468,o),
(335,468,cs),
(382,468,o),
(392,419,o),
(392,273,cs),
(392,50,o),
(368,15,o),
(321,15,cs),
(314,15,o),
(304,17,o),
(301,24,c),
(301,11,l),
(406,-111,o),
(639,-247,o),
(889,-247,cs),
(1232,-247,o),
(1509,30,o),
(1509,373,cs),
(1509,710,o),
(1236,983,o),
(899,983,cs),
(469,983,o),
(203,741,o),
(-176,741,cs),
(-344,741,o),
(-494,805,o),
(-596,915,c),
(-604,913,l),
(-501,800,o),
(-347,735,o),
(-176,735,cs),
(206,735,o),
(477,977,o),
(899,977,cs),
(1232,977,o),
(1503,706,o),
(1503,373,cs),
(1503,43,o),
(1230,-241,o),
(889,-241,cs),
(653,-241,o),
(423,-112,o),
(316,6,c),
(327,3,o),
(339,1,o),
(352,1,cs),
(471,1,o),
(593,78,o),
(593,270,cs),
(593,403,o),
(504,500,o),
(389,500,cs),
(312,500,o),
(275,461,o),
(262,401,cs),
(261,397,o),
(260,394,o),
(258,394,c),
(253,394,l),
(253,500,l),
(178,487,o),
(94,481,o),
(-10,481,c),
(-10,473,l),
(46,473,o),
(67,468,o),
(67,416,cs)
);
},
{
closed = 1;
nodes = (
(105,460,l),
(110,447,o),
(112,423,o),
(112,409,cs),
(112,-212,l),
(92,-212,l),
(92,407,ls),
(92,421,o),
(90,445,o),
(85,458,c)
);
},
{
closed = 1;
nodes = (
(443,170,o),
(438,90,o),
(396,22,c),
(413,77,o),
(421,161,o),
(421,272,cs),
(421,359,o),
(413,427,o),
(396,470,c),
(438,416,o),
(443,352,o),
(443,272,cs)
);
}
);
width = 613;
}
);
},
{
color = (153, 255, 154, 255);
glyphname = p.4;
layers = (
{
layerId = "A410FBA5-8D09-49B2-9E86-D368B18AE5F7";
shapes = (
{
closed = 1;
nodes = (
(67,-240,l),
(264,-240,l),
(264,348,ls),
(264,409,o),
(284,468,o),
(335,468,cs),
(382,468,o),
(392,419,o),
(392,273,cs),
(392,50,o),
(368,15,o),
(321,15,cs),
(314,15,o),
(304,17,o),
(301,24,c),
(301,11,l),
(406,-111,o),
(639,-247,o),
(889,-247,cs),
(1232,-247,o),
(1509,30,o),
(1509,373,cs),
(1509,710,o),
(1236,983,o),
(899,983,c),
(899,977,l),
(1232,977,o),
(1503,706,o),
(1503,373,cs),
(1503,43,o),
(1230,-241,o),
(889,-241,cs),
(653,-241,o),
(423,-112,o),
(316,6,c),
(327,3,o),
(339,1,o),
(352,1,cs),
(471,1,o),
(593,78,o),
(593,270,cs),
(593,403,o),
(504,500,o),
(389,500,cs),
(312,500,o),
(275,461,o),
(262,401,cs),
(261,397,o),
(260,394,o),
(258,394,c),
(253,394,l),
(253,500,l),
(178,487,o),
(94,481,o),
(-10,481,c),
(-10,473,l),
(46,473,o),
(67,468,o),
(67,416,cs)
);
},
{
closed = 1;
nodes = (
(105,460,l),
(110,447,o),
(112,423,o),
(112,409,cs),
(112,-212,l),
(92,-212,l),
(92,407,ls),
(92,421,o),
(90,445,o),
(85,458,c)
);
},
{
closed = 1;
nodes = (
(443,170,o),
(438,90,o),
(396,22,c),
(413,77,o),
(421,161,o),
(421,272,cs),
(421,359,o),
(413,427,o),
(396,470,c),
(438,416,o),
(443,352,o),
(443,272,cs)
);
}
);
width = 613;
}
);
},
{
color = (153, 255, 154, 255);
glyphname = p.4.more.acc;
layers = (
{
layerId = "A410FBA5-8D09-49B2-9E86-D368B18AE5F7";
shapes = (
{
closed = 1;
nodes = (
(67,-240,l),
(264,-240,l),
(264,348,ls),
(264,409,o),
(284,468,o),
(335,468,cs),
(382,468,o),
(392,419,o),
(392,273,cs),
(392,50,o),
(368,15,o),
(321,15,cs),
(314,15,o),
(304,17,o),
(301,24,c),
(301,11,l),
(406,-111,o),
(639,-247,o),
(889,-247,cs),
(1232,-247,o),
(1509,30,o),
(1509,373,cs),
(1509,710,o),
(1236,1073,o),
(899,1073,cs),
(469,1073,o),
(203,741,o),
(-176,741,cs),
(-344,741,o),
(-494,805,o),
(-596,915,c),
(-604,913,l),
(-501,800,o),
(-347,735,o),
(-176,735,cs),
(206,735,o),
(477,913,o),
(899,913,cs),
(1232,913,o),
(1503,706,o),
(1503,373,cs),
(1503,43,o),
(1230,-241,o),
(889,-241,cs),
(653,-241,o),
(423,-112,o),
(316,6,c),
(327,3,o),
(339,1,o),
(352,1,cs),
(471,1,o),
(593,78,o),
(593,270,cs),
(593,403,o),
(504,500,o),
(389,500,cs),
(312,500,o),
(275,461,o),
(262,401,cs),
(261,397,o),
(260,394,o),
(258,394,c),
(253,394,l),
(253,500,l),
(178,487,o),
(94,481,o),
(-10,481,c),
(-10,473,l),
(46,473,o),
(67,468,o),
(67,416,cs)
);
},
{
closed = 1;
nodes = (
(105,460,l),
(110,447,o),
(112,423,o),
(112,409,cs),
(112,-212,l),
(92,-212,l),
(92,407,ls),
(92,421,o),
(90,445,o),
(85,458,c)
);
},
{
closed = 1;
nodes = (
(443,170,o),
(438,90,o),
(396,22,c),
(413,77,o),
(421,161,o),
(421,272,cs),
(421,359,o),
(413,427,o),
(396,470,c),
(438,416,o),
(443,352,o),
(443,272,cs)
);
},
{
closed = 1;
nodes = (
(1349,774,l),
(1238,892,o),
(1084,943,o),
(899,943,cs),
(687,943,o),
(474,891,o),
(328,844,c),
(326,846,l),
(474,905,o),
(687,965,o),
(899,965,cs),
(1084,965,o),
(1238,906,o),
(1351,776,c)
);
}
);
width = 613;
}
);
},
{
color = (255, 153, 153, 255);
glyphname = q;
layers = (
{
guides = (
{
position = "{0, -241}";
}
);
hints = (
{
horizontal = 1;
place = (-300,21);
target = up;
type = BottomGhost;
},
{
horizontal = 1;
place = (-6,43);
type = Stem;
},
{
horizontal = 1;
place = (463,-20);
target = down;
type = TopGhost;
},
{
place = (56,213);
type = Stem;
},
{
place = (367,209);
type = Stem;
},
{
place = (386,190);
type = Stem;
}
);
layerId = "A410FBA5-8D09-49B2-9E86-D368B18AE5F7";
shapes = (
{
closed = 1;
nodes = (
(350,456,l),
(336,494,o),
(298,500,o),
(264,500,cs),
(118,500,o),
(20,385,o),
(20,227,cs),
(20,88,o),
(96,-9,o),
(209,-9,cs),
(279,-9,o),
(332,29,o),
(350,127,c),
(350,-240,l),
(436,-226,o),
(532,-220,o),
(623,-220,c),
(623,-213,l),
(567,-213,o),
(546,-205,o),
(546,-153,cs),
(546,500,l),
(523,488,o),
(385,468,o),
(350,468,c)
);
},
{
closed = 1;
nodes = (
(237,71,o),
(231,180,o),
(231,261,cs),
(231,349,o),
(238,482,o),
(303,482,cs),
(334,482,o),
(347,451,o),
(350,410,c),
(350,213,ls),
(350,94,o),
(315,71,o),
(290,71,cs)
);
},
{
closed = 1;
nodes = (
(72,103,o),
(130,22,o),
(219,18,c),
(213,18,o),
(213,18,o),
(205,18,cs),
(112,18,o),
(50,103,o),
(50,227,cs),
(50,366,o),
(131,464,o),
(236,471,c),
(137,452,o),
(72,353,o),
(72,227,cs)
);
},
{
closed = 1;
nodes = (
(395,449,l),
(395,-209,l),
(375,-211,l),
(375,447,l)
);
}
);
width = 615;
}
);
unicode = 113;
},
{
color = (153, 255, 154, 255);
glyphname = q.2;
layers = (
{
anchors = (
{
name = top;
position = "{298, 577}";
}
);
hints = (
{
horizontal = 1;
place = (-6,245);
type = Stem;
},
{
horizontal = 1;
place = (250,218);
type = Stem;
},
{
place = (25,194);
type = Stem;
},
{
place = (70,149);
type = Stem;
},
{
place = (70,208);
type = Stem;
},
{
place = (369,201);
type = Stem;
}
);
layerId = "A410FBA5-8D09-49B2-9E86-D368B18AE5F7";
shapes = (
{
closed = 1;
nodes = (
(20,119,o),
(90,39,o),
(191,7,c),
(187,7,o),
(182,7,o),
(178,7,cs),
(110,7,o),
(44,-16,o),
(16,-46,c),
(20,-50,l),
(47,-22,o),
(112,1,o),
(178,1,cs),
(428,1,o),
(933,-453,o),
(1354,-453,cs),
(1718,-453,o),
(2010,-150,o),
(2010,202,cs),
(2010,524,o),
(1736,788,o),
(1399,788,cs),
(1250,788,o),
(1113,734,o),
(1006,644,c),
(1010,640,l),
(1115,728,o),
(1251,782,o),
(1399,782,cs),
(1732,782,o),
(2004,520,o),
(2004,202,cs),
(2004,-116,o),
(1732,-371,o),
(1399,-371,cs),
(987,-371,o),
(641,-80,o),
(314,-9,c),
(460,-3,o),
(577,84,o),
(577,246,cs),
(577,414,o),
(452,500,o),
(298,500,cs),
(144,500,o),
(20,414,o),
(20,246,cs)
);
},
{
closed = 1;
nodes = (
(225,418,o),
(259,491,o),
(298,491,cs),
(337,491,o),
(371,418,o),
(371,246,cs),
(371,65,o),
(337,0,o),
(298,0,cs),
(259,0,o),
(225,65,o),
(225,246,cs)
);
},
{
closed = 1;
nodes = (
(423,155,o),
(419,83,o),
(367,22,c),
(389,71,o),
(401,147,o),
(401,246,cs),
(401,345,o),
(389,421,o),
(367,470,c),
(419,409,o),
(423,337,o),
(423,246,cs)
);
},
{
closed = 1;
nodes = (
(143,439,o),
(72,375,o),
(72,246,cs),
(72,121,o),
(143,50,o),
(233,22,c),
(133,44,o),
(50,107,o),
(50,246,cs),
(50,382,o),
(133,449,o),
(233,468,c)
);
},
{
closed = 1;
nodes = (
(1803,-248,l),
(1674,-361,o),
(1553,-410,o),
(1399,-410,cs),
(1151,-410,o),
(940,-299,o),
(773,-211,c),
(775,-209,l),
(940,-285,o),
(1151,-391,o),
(1399,-391,cs),
(1552,-391,o),
(1673,-349,o),
(1801,-246,c)
);
}
);
width = 597;
}
);
},
{
color = (255, 153, 153, 255);
glyphname = r;
layers = (
{
anchors = (
{
name = top;
position = "{231, 577}";
}
);
hints = (
{
horizontal = 1;
place = (-6,21);
target = up;
type = BottomGhost;
},
{
horizontal = 1;
place = (255,80);
type = Stem;
},
{
horizontal = 1;
place = (446,21);
type = Stem;
},
{
place = (84,197);
type = Stem;
}
);
layerId = "A410FBA5-8D09-49B2-9E86-D368B18AE5F7";
shapes = (
{
closed = 1;
nodes = (
(-10,473,l),
(46,473,o),
(67,468,o),
(67,416,cs),
(67,0,l),
(264,0,l),
(264,269,ls),
(264,348,o),
(287,453,o),
(336,453,cs),
(341,453,o),
(345,452,o),
(348,451,c),
(332,433,o),
(327,415,o),
(327,391,cs),
(327,349,o),
(354,309,o),
(407,309,cs),
(470,309,o),
(493,365,o),
(493,407,cs),
(493,461,o),
(455,500,o),
(397,500,cs),
(351,500,o),
(273,469,o),
(259,334,c),
(253,334,l),
(253,500,l),
(178,487,o),
(94,481,o),
(-10,481,c)
);
},
{
closed = 1;
nodes = (
(105,460,l),
(110,447,o),
(112,423,o),
(112,409,cs),
(112,24,l),
(92,24,l),
(92,407,ls),
(92,421,o),
(90,445,o),
(85,458,c)
);
},
{
closed = 1;
nodes = (
(376,438,o),
(370,416,o),
(370,395,cs),
(370,369,o),
(379,338,o),
(409,334,c),
(396,334,ls),
(360,334,o),
(351,365,o),
(351,393,cs),
(351,421,o),
(363,441,o),
(386,456,c)
);
}
);
width = 505;
}
);
unicode = 114;
},
{
color = (153, 255, 154, 255);
glyphname = r.4.4;
layers = (
{
layerId = "A410FBA5-8D09-49B2-9E86-D368B18AE5F7";
shapes = (
{
closed = 1;
nodes = (
(1366,769,o),
(1637,552,o),
(2019,552,cs),
(2190,552,o),
(2344,617,o),
(2447,730,c),
(2439,732,l),
(2337,622,o),
(2187,558,o),
(2019,558,cs),
(1630,558,o),
(1349,827,o),
(909,827,cs),
(565,827,o),
(290,558,o),
(264,232,c),
(264,500,l),
(189,487,o),
(94,481,o),
(-10,481,c),
(-10,473,l),
(46,473,o),
(67,468,o),
(67,416,cs),
(67,0,l),
(264,0,l),
(264,154,ls),
(264,564,o),
(623,769,o),
(944,769,cs)
);
},
{
closed = 1;
nodes = (
(588,702,l),
(695,759,o),
(818,797,o),
(933,797,cs),
(1071,797,o),
(1194,768,o),
(1306,730,c),
(1304,728,l),
(1192,760,o),
(1074,784,o),
(940,784,cs),
(822,784,o),
(700,756,o),
(592,701,c)
);
},
{
closed = 1;
nodes = (
(105,460,l),
(110,447,o),
(112,423,o),
(112,409,cs),
(112,24,l),
(92,24,l),
(92,407,ls),
(92,421,o),
(90,445,o),
(85,458,c)
);
}
);
width = 358;
}
);
},
{
color = (153, 255, 154, 255);
glyphname = r.4;
layers = (
{
layerId = "A410FBA5-8D09-49B2-9E86-D368B18AE5F7";
shapes = (
{
closed = 1;
nodes = (
(260,334,l),
(260,500,l),
(185,487,o),
(94,481,o),
(-10,481,c),
(-10,473,l),
(46,473,o),
(67,468,o),
(67,416,cs),
(67,0,l),
(264,0,l),
(264,196,ls),
(264,606,o),
(623,811,o),
(944,811,cs),
(1301,811,o),
(1562,509,o),
(1562,197,cs),
(1562,-136,o),
(1291,-407,o),
(958,-407,cs),
(803,-407,o),
(661,-348,o),
(554,-251,c),
(548,-255,l),
(656,-353,o),
(800,-413,o),
(958,-413,cs),
(1295,-413,o),
(1568,-140,o),
(1568,197,cs),
(1568,547,o),
(1307,869,o),
(909,869,cs),
(587,869,o),
(325,632,o),
(272,334,c)
);
},
{
closed = 1;
nodes = (
(588,746,l),
(691,811,o),
(816,844,o),
(931,844,cs),
(1058,844,o),
(1184,805,o),
(1288,728,c),
(1286,726,l),
(1182,797,o),
(1061,831,o),
(938,831,cs),
(820,831,o),
(696,808,o),
(592,745,c)
);
},
{
closed = 1;
nodes = (
(105,460,l),
(110,447,o),
(112,423,o),
(112,409,cs),
(112,24,l),
(92,24,l),
(92,407,ls),
(92,421,o),
(90,445,o),
(85,458,c)
);
}
);
width = 358;
}
);
},
{
color = (153, 255, 154, 255);
glyphname = r.4.more;
layers = (
{
layerId = "A410FBA5-8D09-49B2-9E86-D368B18AE5F7";
shapes = (
{
closed = 1;
nodes = (
(260,334,l),
(260,500,l),
(185,487,o),
(94,481,o),
(-10,481,c),
(-10,473,l),
(46,473,o),
(67,468,o),
(67,416,cs),
(67,0,l),
(264,0,l),
(264,196,ls),
(264,606,o),
(623,811,o),
(944,811,cs),
(1301,811,o),
(1562,509,o),
(1562,197,cs),
(1562,-136,o),
(1291,-407,o),
(958,-407,cs),
(536,-407,o),
(265,-165,o),
(-117,-165,cs),
(-288,-165,o),
(-442,-230,o),
(-545,-343,c),
(-537,-345,l),
(-435,-235,o),
(-285,-171,o),
(-117,-171,cs),
(262,-171,o),
(528,-413,o),
(958,-413,cs),
(1295,-413,o),
(1568,-140,o),
(1568,197,cs),
(1568,547,o),
(1307,869,o),
(909,869,cs),
(587,869,o),
(325,632,o),
(272,334,c)
);
},
{
closed = 1;
nodes = (
(588,746,l),
(691,811,o),
(816,844,o),
(931,844,cs),
(1058,844,o),
(1184,805,o),
(1288,728,c),
(1286,726,l),
(1182,797,o),
(1061,831,o),
(938,831,cs),
(820,831,o),
(696,808,o),
(592,745,c)
);
},
{
closed = 1;
nodes = (
(105,460,l),
(110,447,o),
(112,423,o),
(112,409,cs),
(112,24,l),
(92,24,l),
(92,407,ls),
(92,421,o),
(90,445,o),
(85,458,c)
);
}
);
width = 358;
}
);
},
{
color = (153, 255, 154, 255);
glyphname = r.7;
layers = (
{
guides = (
{
position = "{0, -535}";
}
);
layerId = "A410FBA5-8D09-49B2-9E86-D368B18AE5F7";
shapes = (
{
closed = 1;
nodes = (
(738,-351,l),
(799,-227,o),
(938,-143,o),
(1112,-143,cs),
(1607,-143,o),
(1923,-693,o),
(2660,-693,cs),
(3199,-693,o),
(3600,-203,o),
(3600,302,cs),
(3600,780,o),
(3168,1120,o),
(2688,1120,cs),
(1842,1120,o),
(1268,283,o),
(593,283,cs),
(543,283,o),
(471,287,o),
(420,313,c),
(484,314,o),
(497,374,o),
(497,407,cs),
(497,465,o),
(455,500,o),
(403,500,cs),
(357,500,o),
(273,473,o),
(259,334,c),
(253,334,l),
(253,500,l),
(178,487,o),
(94,481,o),
(-10,481,c),
(-10,473,l),
(46,473,o),
(67,468,o),
(67,416,cs),
(67,0,l),
(264,0,l),
(264,269,ls),
(264,352,o),
(287,454,o),
(347,454,cs),
(352,454,o),
(354,453,o),
(356,452,c),
(348,433,o),
(344,415,o),
(344,395,cs),
(344,366,o),
(351,340,o),
(372,325,c),
(422,276,o),
(526,270,o),
(590,270,cs),
(1257,270,o),
(1842,1114,o),
(2688,1114,cs),
(3163,1114,o),
(3594,775,o),
(3594,302,cs),
(3594,-248,o),
(3186,-534,o),
(2711,-534,cs),
(1988,-534,o),
(1511,-137,o),
(1112,-137,cs),
(933,-137,o),
(793,-223,o),
(732,-348,c)
);
},
{
closed = 1;
nodes = (
(391,444,o),
(385,422,o),
(385,401,cs),
(385,375,o),
(394,344,o),
(424,340,c),
(411,340,ls),
(375,340,o),
(366,371,o),
(366,399,cs),
(366,427,o),
(378,447,o),
(401,462,c)
);
},
{
closed = 1;
nodes = (
(105,460,l),
(110,447,o),
(112,423,o),
(112,409,cs),
(112,24,l),
(92,24,l),
(92,407,ls),
(92,421,o),
(90,445,o),
(85,458,c)
);
},
{
closed = 1;
nodes = (
(3291,-385,l),
(3115,-526,o),
(2919,-587,o),
(2693,-586,cs),
(2444,-584,o),
(2196,-529,o),
(2022,-444,c),
(2024,-442,l),
(2198,-514,o),
(2448,-563,o),
(2700,-564,cs),
(2916,-565,o),
(3114,-511,o),
(3289,-383,c)
);
}
);
width = 510;
}
);
},
{
color = (153, 255, 154, 255);
glyphname = r.sube;
layers = (
{
layerId = "A410FBA5-8D09-49B2-9E86-D368B18AE5F7";
shapes = (
{
closed = 1;
nodes = (
(67,0,l),
(264,0,l),
(264,273,l),
(278,577,o),
(453,789,o),
(592,789,cs),
(623,789,o),
(659,778,o),
(679,758,c),
(619,751,o),
(587,702,o),
(587,658,cs),
(587,614,o),
(617,577,o),
(668,577,cs),
(719,577,o),
(756,615,o),
(756,672,cs),
(756,744,o),
(692,798,o),
(580,798,cs),
(337,798,o),
(273,542,o),
(260,334,c),
(253,334,l),
(253,500,l),
(178,487,o),
(94,481,o),
(-10,481,c),
(-10,473,l),
(46,473,o),
(67,468,o),
(67,416,cs)
);
},
{
closed = 1;
nodes = (
(637,706,o),
(631,681,o),
(631,660,cs),
(631,634,o),
(641,605,o),
(671,601,c),
(658,601,ls),
(622,601,o),
(612,630,o),
(612,658,cs),
(612,686,o),
(624,709,o),
(647,724,c)
);
},
{
closed = 1;
nodes = (
(105,460,l),
(110,447,o),
(112,423,o),
(112,409,cs),
(112,24,l),
(92,24,l),
(92,407,ls),
(92,421,o),
(90,445,o),
(85,458,c)
);
}
);
width = 346;
}
);
},
{
color = (255, 153, 153, 255);
glyphname = s;
layers = (
{
anchors = (
{
name = top;
position = "{249, 577}";
},
{
name = bottom;
position = "{230, -77}";
}
);
guides = (
{
position = "{0, -77}";
}
);
hints = (
{
horizontal = 1;
place = (-6,190);
type = Stem;
},
{
place = (45,132);
type = Stem;
},
{
place = (60,156);
type = Stem;
},
{
place = (345,115);
type = Stem;
},
{
place = (345,159);
type = Stem;
}
);
layerId = "A410FBA5-8D09-49B2-9E86-D368B18AE5F7";
shapes = (
{
closed = 1;
nodes = (
(75,154,o),
(62,134,o),
(62,102,cs),
(62,73,o),
(73,58,o),
(88,43,c),
(58,56,o),
(42,81,o),
(42,108,cs),
(42,134,o),
(58,161,o),
(88,161,c),
(94,161,o),
(94,161,o),
(100,161,c)
);
},
{
closed = 1;
nodes = (
(410,400,l),
(398,424,o),
(387,444,o),
(367,462,c),
(388,458,o),
(402,444,o),
(410,430,c)
);
},
{
closed = 1;
nodes = (
(23,32,o),
(110,-9,o),
(219,-9,cs),
(337,-9,o),
(460,38,o),
(460,171,cs),
(460,223,o),
(441,276,o),
(367,309,cs),
(240,366,ls),
(200,384,o),
(179,410,o),
(179,441,cs),
(179,474,o),
(203,491,o),
(248,491,cs),
(355,491,o),
(391,420,o),
(412,346,cs),
(413,343,o),
(414,343,o),
(415,343,c),
(416,343,o),
(419,343,o),
(419,347,cs),
(419,508,ls),
(419,511,o),
(417,512,o),
(416,512,c),
(415,512,o),
(412,511,o),
(412,508,cs),
(412,502,ls),
(412,490,o),
(401,474,o),
(382,474,cs),
(354,474,o),
(308,500,o),
(238,500,cs),
(115,500,o),
(33,431,o),
(33,343,cs),
(33,285,o),
(63,239,o),
(123,212,cs),
(248,155,ls),
(291,135,o),
(308,113,o),
(308,77,cs),
(308,35,o),
(270,0,o),
(216,0,cs),
(181,0,o),
(134,17,o),
(125,37,c),
(145,58,o),
(163,83,o),
(163,113,cs),
(163,150,o),
(138,182,o),
(95,182,cs),
(51,182,o),
(23,148,o),
(23,106,cs)
);
},
{
closed = 1;
nodes = (
(78,413,l),
(70,395,o),
(65,375,o),
(65,354,cs),
(65,308,o),
(99,275,o),
(157,249,cs),
(282,192,ls),
(327,171,o),
(345,139,o),
(345,96,cs),
(345,74,o),
(338,55,o),
(324,37,c),
(322,39,l),
(331,52,o),
(335,68,o),
(335,86,cs),
(335,126,o),
(316,153,o),
(270,174,cs),
(145,231,ls),
(86,258,o),
(56,295,o),
(56,349,cs),
(56,372,o),
(64,394,o),
(76,413,c)
);
}
);
width = 480;
}
);
unicode = 115;
},
{
color = (153, 255, 154, 255);
glyphname = s.4;
layers = (
{
layerId = "A410FBA5-8D09-49B2-9E86-D368B18AE5F7";
shapes = (
{
closed = 1;
nodes = (
(21,150,o),
(339,129,o),
(339,-26,cs),
(339,-83,o),
(294,-133,o),
(217,-133,cs),
(174,-133,o),
(117,-113,o),
(105,-87,c),
(129,-62,o),
(150,-32,o),
(150,3,cs),
(150,47,o),
(113,85,o),
(68,85,cs),
(17,85,o),
(-16,43,o),
(-16,-2,cs),
(-16,-93,o),
(90,-143,o),
(220,-143,cs),
(360,-143,o),
(502,-86,o),
(502,63,cs),
(502,283,o),
(172,317,o),
(172,439,cs),
(172,467,o),
(191,492,o),
(254,492,cs),
(365,492,o),
(403,411,o),
(424,328,c),
(424,326,o),
(425,325,o),
(427,325,c),
(429,325,o),
(432,325,o),
(432,329,cs),
(432,509,ls),
(432,512,o),
(430,514,o),
(428,514,c),
(426,514,o),
(425,512,o),
(425,509,c),
(425,508,o),
(425,507,o),
(425,505,c),
(424,494,o),
(419,480,o),
(391,480,cs),
(362,480,o),
(313,500,o),
(241,500,cs),
(109,500,o),
(21,434,o),
(21,337,cs)
);
},
{
closed = 1;
nodes = (
(416,407,l),
(404,431,o),
(393,451,o),
(373,469,c),
(394,465,o),
(408,451,o),
(416,437,c)
);
},
{
closed = 1;
nodes = (
(42,44,o),
(29,24,o),
(29,-8,cs),
(29,-37,o),
(40,-52,o),
(55,-67,c),
(25,-54,o),
(9,-29,o),
(9,-2,cs),
(9,24,o),
(25,51,o),
(55,51,c),
(61,51,o),
(61,51,o),
(67,51,c)
);
},
{
closed = 1;
nodes = (
(60,389,o),
(60,372,o),
(60,358,cs),
(60,188,o),
(381,169,o),
(381,-5,cs),
(381,-38,o),
(360,-69,o),
(352,-69,c),
(364,-55,o),
(369,-38,o),
(369,-22,cs),
(369,151,o),
(49,170,o),
(49,344,cs),
(49,366,o),
(56,387,o),
(68,405,c)
);
}
);
width = 502;
}
);
},
{
color = (153, 255, 154, 255);
glyphname = s.7;
layers = (
{
layerId = "A410FBA5-8D09-49B2-9E86-D368B18AE5F7";
shapes = (
{
closed = 1;
nodes = (
(167,467,o),
(186,492,o),
(249,492,cs),
(360,492,o),
(398,411,o),
(419,328,c),
(419,326,o),
(420,325,o),
(422,325,c),
(424,325,o),
(427,325,o),
(427,329,cs),
(427,509,ls),
(427,512,o),
(425,514,o),
(423,514,c),
(420,514,o),
(419,511,o),
(419,506,c),
(419,505,o),
(419,505,o),
(419,504,c),
(418,493,o),
(412,480,o),
(386,480,cs),
(357,480,o),
(308,500,o),
(236,500,cs),
(104,500,o),
(16,434,o),
(16,337,cs),
(16,236,o),
(108,182,o),
(193,128,cs),
(267,81,o),
(336,33,o),
(336,-47,cs),
(336,-109,o),
(290,-159,o),
(188,-159,cs),
(-30,-159,o),
(-266,98,o),
(-531,353,cs),
(-798,610,o),
(-1095,865,o),
(-1473,865,cs),
(-1867,865,o),
(-2151,571,o),
(-2151,210,cs),
(-2151,-156,o),
(-1858,-450,o),
(-1495,-450,cs),
(-1336,-450,o),
(-1189,-393,o),
(-1075,-299,c),
(-1079,-295,l),
(-1192,-388,o),
(-1336,-444,o),
(-1494,-444,cs),
(-1854,-444,o),
(-2145,-153,o),
(-2145,211,cs),
(-2145,567,o),
(-1866,859,o),
(-1469,859,cs),
(-723,859,o),
(-281,-173,o),
(221,-173,cs),
(345,-173,o),
(497,-110,o),
(497,63,cs),
(497,175,o),
(412,239,o),
(328,290,cs),
(247,340,o),
(167,379,o),
(167,439,cs)
);
},
{
closed = 1;
nodes = (
(411,407,l),
(399,431,o),
(388,451,o),
(368,469,c),
(389,465,o),
(403,451,o),
(411,437,c)
);
},
{
closed = 1;
nodes = (
(56,385,o),
(56,368,o),
(56,354,cs),
(56,184,o),
(379,163,o),
(379,-21,cs),
(379,-54,o),
(358,-85,o),
(350,-85,c),
(362,-71,o),
(367,-54,o),
(367,-38,cs),
(367,145,o),
(45,166,o),
(45,340,cs),
(45,362,o),
(52,383,o),
(64,401,c)
);
}
);
width = 486;
}
);
},
